
<svg xmlns="http://www.w3.org/2000/svg" version="1.1" xmlns:xlink="http://www.w3.org/1999/xlink" preserveAspectRatio="none" x="0px" y="0px" width="800px" height="400px" viewBox="0 0 800 400">
<defs>
<image id="Bitmap_2" x="0" y="0" width="128" height="128" xlink:href="./images/Bitmap_2.png"/>

<image id="Bitmap_3" x="0" y="0" width="128" height="128" xlink:href="./images/Bitmap_3.png"/>

<g id="Layer1_0_STROKES_1_FILL">
<path fill="#4C6C7F" stroke="none" d="
M 293.95 351.1
Q 294.383984375 351.5447265625 295 351.55
L 301 351.55
Q 301.616015625 351.5447265625 302.05 351.1 302.4947265625 350.666015625 302.5 350.05 302.4947265625 349.433984375 302.05 349 301.616015625 348.5552734375 301 348.55
L 295 348.55
Q 294.383984375 348.5552734375 293.95 349 293.5052734375 349.433984375 293.5 350.05 293.5052734375 350.666015625 293.95 351.1
M 314.5 350.05
Q 314.4947265625 349.433984375 314.05 349 313.616015625 348.5552734375 313 348.55
L 307 348.55
Q 306.383984375 348.5552734375 305.95 349 305.5052734375 349.433984375 305.5 350.05 305.5052734375 350.666015625 305.95 351.1 306.383984375 351.5447265625 307 351.55
L 313 351.55
Q 313.616015625 351.5447265625 314.05 351.1 314.4947265625 350.666015625 314.5 350.05
M 254.5 350.05
Q 254.4947265625 349.433984375 254.05 349 253.616015625 348.5552734375 253 348.55
L 247 348.55
Q 246.383984375 348.5552734375 245.95 349 245.5052734375 349.433984375 245.5 350.05 245.5052734375 350.666015625 245.95 351.1 246.383984375 351.5447265625 247 351.55
L 253 351.55
Q 253.616015625 351.5447265625 254.05 351.1 254.4947265625 350.666015625 254.5 350.05
M 265 351.55
Q 265.616015625 351.5447265625 266.05 351.1 266.4947265625 350.666015625 266.5 350.05 266.4947265625 349.433984375 266.05 349 265.616015625 348.5552734375 265 348.55
L 259 348.55
Q 258.383984375 348.5552734375 257.95 349 257.5052734375 349.433984375 257.5 350.05 257.5052734375 350.666015625 257.95 351.1 258.383984375 351.5447265625 259 351.55
L 265 351.55
M 278.05 349
Q 277.616015625 348.5552734375 277 348.55
L 271 348.55
Q 270.383984375 348.5552734375 269.95 349 269.5052734375 349.433984375 269.5 350.05 269.5052734375 350.666015625 269.95 351.1 270.383984375 351.5447265625 271 351.55
L 277 351.55
Q 277.616015625 351.5447265625 278.05 351.1 278.4947265625 350.666015625 278.5 350.05 278.4947265625 349.433984375 278.05 349
M 281.95 351.1
Q 282.383984375 351.5447265625 283 351.55
L 289 351.55
Q 289.616015625 351.5447265625 290.05 351.1 290.4947265625 350.666015625 290.5 350.05 290.4947265625 349.433984375 290.05 349 289.616015625 348.5552734375 289 348.55
L 283 348.55
Q 282.383984375 348.5552734375 281.95 349 281.5052734375 349.433984375 281.5 350.05 281.5052734375 350.666015625 281.95 351.1
M 218.05 349
Q 217.616015625 348.5552734375 217 348.55
L 211 348.55
Q 210.383984375 348.5552734375 209.95 349 209.5052734375 349.433984375 209.5 350.05 209.5052734375 350.666015625 209.95 351.1 210.383984375 351.5447265625 211 351.55
L 217 351.55
Q 217.616015625 351.5447265625 218.05 351.1 218.4947265625 350.666015625 218.5 350.05 218.4947265625 349.433984375 218.05 349
M 223 351.55
L 229 351.55
Q 229.616015625 351.5447265625 230.05 351.1 230.4947265625 350.666015625 230.5 350.05 230.4947265625 349.433984375 230.05 349 229.616015625 348.5552734375 229 348.55
L 223 348.55
Q 222.383984375 348.5552734375 221.95 349 221.5052734375 349.433984375 221.5 350.05 221.5052734375 350.666015625 221.95 351.1 222.383984375 351.5447265625 223 351.55
M 241 351.55
Q 241.616015625 351.5447265625 242.05 351.1 242.4947265625 350.666015625 242.5 350.05 242.4947265625 349.433984375 242.05 349 241.616015625 348.5552734375 241 348.55
L 235 348.55
Q 234.383984375 348.5552734375 233.95 349 233.5052734375 349.433984375 233.5 350.05 233.5052734375 350.666015625 233.95 351.1 234.383984375 351.5447265625 235 351.55
L 241 351.55
M 173.95 351.1
Q 174.383984375 351.5447265625 175 351.55
L 181 351.55
Q 181.616015625 351.5447265625 182.05 351.1 182.4947265625 350.666015625 182.5 350.05 182.4947265625 349.433984375 182.05 349 181.616015625 348.5552734375 181 348.55
L 175 348.55
Q 174.383984375 348.5552734375 173.95 349 173.5052734375 349.433984375 173.5 350.05 173.5052734375 350.666015625 173.95 351.1
M 194.05 349
Q 193.616015625 348.5552734375 193 348.55
L 187 348.55
Q 186.383984375 348.5552734375 185.95 349 185.5052734375 349.433984375 185.5 350.05 185.5052734375 350.666015625 185.95 351.1 186.383984375 351.5447265625 187 351.55
L 193 351.55
Q 193.616015625 351.5447265625 194.05 351.1 194.4947265625 350.666015625 194.5 350.05 194.4947265625 349.433984375 194.05 349
M 197.95 351.1
Q 198.383984375 351.5447265625 199 351.55
L 205 351.55
Q 205.616015625 351.5447265625 206.05 351.1 206.4947265625 350.666015625 206.5 350.05 206.4947265625 349.433984375 206.05 349 205.616015625 348.5552734375 205 348.55
L 199 348.55
Q 198.383984375 348.5552734375 197.95 349 197.5052734375 349.433984375 197.5 350.05 197.5052734375 350.666015625 197.95 351.1
M 134.05 349
Q 133.616015625 348.5552734375 133 348.55
L 127 348.55
Q 126.383984375 348.5552734375 125.95 349 125.5052734375 349.433984375 125.5 350.05 125.5052734375 350.666015625 125.95 351.1 126.383984375 351.5447265625 127 351.55
L 133 351.55
Q 133.616015625 351.5447265625 134.05 351.1 134.4947265625 350.666015625 134.5 350.05 134.4947265625 349.433984375 134.05 349
M 145 351.55
Q 145.616015625 351.5447265625 146.05 351.1 146.4947265625 350.666015625 146.5 350.05 146.4947265625 349.433984375 146.05 349 145.616015625 348.5552734375 145 348.55
L 139 348.55
Q 138.383984375 348.5552734375 137.95 349 137.5052734375 349.433984375 137.5 350.05 137.5052734375 350.666015625 137.95 351.1 138.383984375 351.5447265625 139 351.55
L 145 351.55
M 158.05 349
Q 157.616015625 348.5552734375 157 348.55
L 151 348.55
Q 150.383984375 348.5552734375 149.95 349 149.5052734375 349.433984375 149.5 350.05 149.5052734375 350.666015625 149.95 351.1 150.383984375 351.5447265625 151 351.55
L 157 351.55
Q 157.616015625 351.5447265625 158.05 351.1 158.4947265625 350.666015625 158.5 350.05 158.4947265625 349.433984375 158.05 349
M 161.5 350.05
Q 161.5052734375 350.666015625 161.95 351.1 162.383984375 351.5447265625 163 351.55
L 169 351.55
Q 169.616015625 351.5447265625 170.05 351.1 170.4947265625 350.666015625 170.5 350.05 170.4947265625 349.433984375 170.05 349 169.616015625 348.5552734375 169 348.55
L 163 348.55
Q 162.383984375 348.5552734375 161.95 349 161.5052734375 349.433984375 161.5 350.05
M 98.05 349
Q 97.616015625 348.5552734375 97 348.55
L 91 348.55
Q 90.383984375 348.5552734375 89.95 349 89.5052734375 349.433984375 89.5 350.05 89.5052734375 350.666015625 89.95 351.1 90.383984375 351.5447265625 91 351.55
L 97 351.55
Q 97.616015625 351.5447265625 98.05 351.1 98.4947265625 350.666015625 98.5 350.05 98.4947265625 349.433984375 98.05 349
M 109 351.55
Q 109.616015625 351.5447265625 110.05 351.1 110.4947265625 350.666015625 110.5 350.05 110.4947265625 349.433984375 110.05 349 109.616015625 348.5552734375 109 348.55
L 103 348.55
Q 102.383984375 348.5552734375 101.95 349 101.5052734375 349.433984375 101.5 350.05 101.5052734375 350.666015625 101.95 351.1 102.383984375 351.5447265625 103 351.55
L 109 351.55
M 113.95 351.1
Q 114.383984375 351.5447265625 115 351.55
L 121 351.55
Q 121.616015625 351.5447265625 122.05 351.1 122.4947265625 350.666015625 122.5 350.05 122.4947265625 349.433984375 122.05 349 121.616015625 348.5552734375 121 348.55
L 115 348.55
Q 114.383984375 348.5552734375 113.95 349 113.5052734375 349.433984375 113.5 350.05 113.5052734375 350.666015625 113.95 351.1
M 49 351.55
Q 49.616015625 351.5447265625 50.05 351.1 50.4947265625 350.666015625 50.5 350.05 50.4947265625 349.433984375 50.05 349 49.616015625 348.5552734375 49 348.55
L 43 348.55
Q 42.383984375 348.5552734375 41.95 349 41.5052734375 349.433984375 41.5 350.05 41.5052734375 350.666015625 41.95 351.1 42.383984375 351.5447265625 43 351.55
L 49 351.55
M 61 351.55
Q 61.616015625 351.5447265625 62.05 351.1 62.4947265625 350.666015625 62.5 350.05 62.4947265625 349.433984375 62.05 349 61.616015625 348.5552734375 61 348.55
L 55 348.55
Q 54.383984375 348.5552734375 53.95 349 53.5052734375 349.433984375 53.5 350.05 53.5052734375 350.666015625 53.95 351.1 54.383984375 351.5447265625 55 351.55
L 61 351.55
M 74.05 349
Q 73.616015625 348.5552734375 73 348.55
L 67 348.55
Q 66.383984375 348.5552734375 65.95 349 65.5052734375 349.433984375 65.5 350.05 65.5052734375 350.666015625 65.95 351.1 66.383984375 351.5447265625 67 351.55
L 73 351.55
Q 73.616015625 351.5447265625 74.05 351.1 74.4947265625 350.666015625 74.5 350.05 74.4947265625 349.433984375 74.05 349
M 77.95 351.1
Q 78.383984375 351.5447265625 79 351.55
L 85 351.55
Q 85.616015625 351.5447265625 86.05 351.1 86.4947265625 350.666015625 86.5 350.05 86.4947265625 349.433984375 86.05 349 85.616015625 348.5552734375 85 348.55
L 79 348.55
Q 78.383984375 348.5552734375 77.95 349 77.5052734375 349.433984375 77.5 350.05 77.5052734375 350.666015625 77.95 351.1
M 38.05 349
Q 37.616015625 348.5552734375 37 348.55
L 31 348.55
Q 30.383984375 348.5552734375 29.95 349 29.5052734375 349.433984375 29.5 350.05 29.5052734375 350.666015625 29.95 351.1 30.383984375 351.5447265625 31 351.55
L 37 351.55
Q 37.616015625 351.5447265625 38.05 351.1 38.4947265625 350.666015625 38.5 350.05 38.4947265625 349.433984375 38.05 349
M 23.95 343
Q 23.5052734375 343.433984375 23.5 344.05
L 23.5 350.05
Q 23.5052734375 350.666015625 23.95 351.1 24.383984375 351.5447265625 25 351.55 25.616015625 351.5447265625 26.05 351.1 26.4947265625 350.666015625 26.5 350.05
L 26.5 344.05
Q 26.4947265625 343.433984375 26.05 343 25.616015625 342.5552734375 25 342.55 24.383984375 342.5552734375 23.95 343
M 26.5 332.05
Q 26.4947265625 331.433984375 26.05 331 25.616015625 330.5552734375 25 330.55 24.383984375 330.5552734375 23.95 331 23.5052734375 331.433984375 23.5 332.05
L 23.5 338.05
Q 23.5052734375 338.666015625 23.95 339.1 24.383984375 339.5447265625 25 339.55 25.616015625 339.5447265625 26.05 339.1 26.4947265625 338.666015625 26.5 338.05
L 26.5 332.05
M 25 318.55
Q 24.383984375 318.5552734375 23.95 319 23.5052734375 319.433984375 23.5 320.05
L 23.5 326.05
Q 23.5052734375 326.666015625 23.95 327.1 24.383984375 327.5447265625 25 327.55 25.616015625 327.5447265625 26.05 327.1 26.4947265625 326.666015625 26.5 326.05
L 26.5 320.05
Q 26.4947265625 319.433984375 26.05 319 25.616015625 318.5552734375 25 318.55
M 26.5 308.05
Q 26.4947265625 307.433984375 26.05 307 25.616015625 306.5552734375 25 306.55 24.383984375 306.5552734375 23.95 307 23.5052734375 307.433984375 23.5 308.05
L 23.5 314.05
Q 23.5052734375 314.666015625 23.95 315.1 24.383984375 315.5447265625 25 315.55 25.616015625 315.5447265625 26.05 315.1 26.4947265625 314.666015625 26.5 314.05
L 26.5 308.05
M 23.95 295
Q 23.5052734375 295.433984375 23.5 296.05
L 23.5 302.05
Q 23.5052734375 302.666015625 23.95 303.1 24.383984375 303.5447265625 25 303.55 25.616015625 303.5447265625 26.05 303.1 26.4947265625 302.666015625 26.5 302.05
L 26.5 296.05
Q 26.4947265625 295.433984375 26.05 295 25.616015625 294.5552734375 25 294.55 24.383984375 294.5552734375 23.95 295
M 26.5 284.05
Q 26.4947265625 283.433984375 26.05 283 25.616015625 282.5552734375 25 282.55 24.383984375 282.5552734375 23.95 283 23.5052734375 283.433984375 23.5 284.05
L 23.5 290.05
Q 23.5052734375 290.666015625 23.95 291.1 24.383984375 291.5447265625 25 291.55 25.616015625 291.5447265625 26.05 291.1 26.4947265625 290.666015625 26.5 290.05
L 26.5 284.05
M 25 270.55
Q 24.383984375 270.5552734375 23.95 271 23.5052734375 271.433984375 23.5 272.05
L 23.5 278.05
Q 23.5052734375 278.666015625 23.95 279.1 24.383984375 279.5447265625 25 279.55 25.616015625 279.5447265625 26.05 279.1 26.4947265625 278.666015625 26.5 278.05
L 26.5 272.05
Q 26.4947265625 271.433984375 26.05 271 25.616015625 270.5552734375 25 270.55
M 26.05 259
Q 25.616015625 258.5552734375 25 258.55 24.383984375 258.5552734375 23.95 259 23.5052734375 259.433984375 23.5 260.05
L 23.5 266.05
Q 23.5052734375 266.666015625 23.95 267.1 24.383984375 267.5447265625 25 267.55 25.616015625 267.5447265625 26.05 267.1 26.4947265625 266.666015625 26.5 266.05
L 26.5 260.05
Q 26.4947265625 259.433984375 26.05 259
M 25 246.55
Q 24.383984375 246.5552734375 23.95 247 23.5052734375 247.433984375 23.5 248.05
L 23.5 254.05
Q 23.5052734375 254.666015625 23.95 255.1 24.383984375 255.5447265625 25 255.55 25.616015625 255.5447265625 26.05 255.1 26.4947265625 254.666015625 26.5 254.05
L 26.5 248.05
Q 26.4947265625 247.433984375 26.05 247 25.616015625 246.5552734375 25 246.55
M 25 234.55
Q 24.383984375 234.5552734375 23.95 235 23.5052734375 235.433984375 23.5 236.05
L 23.5 242.05
Q 23.5052734375 242.666015625 23.95 243.1 24.383984375 243.5447265625 25 243.55 25.616015625 243.5447265625 26.05 243.1 26.4947265625 242.666015625 26.5 242.05
L 26.5 236.05
Q 26.4947265625 235.433984375 26.05 235 25.616015625 234.5552734375 25 234.55
M 26.5 224.05
Q 26.4947265625 223.433984375 26.05 223 25.616015625 222.5552734375 25 222.55 24.383984375 222.5552734375 23.95 223 23.5052734375 223.433984375 23.5 224.05
L 23.5 230.05
Q 23.5052734375 230.666015625 23.95 231.1 24.383984375 231.5447265625 25 231.55 25.616015625 231.5447265625 26.05 231.1 26.4947265625 230.666015625 26.5 230.05
L 26.5 224.05
M 26.5 212.05
Q 26.4947265625 211.433984375 26.05 211 25.616015625 210.5552734375 25 210.55 24.383984375 210.5552734375 23.95 211 23.5052734375 211.433984375 23.5 212.05
L 23.5 218.05
Q 23.5052734375 218.666015625 23.95 219.1 24.383984375 219.5447265625 25 219.55 25.616015625 219.5447265625 26.05 219.1 26.4947265625 218.666015625 26.5 218.05
L 26.5 212.05
M 26.5 200.05
Q 26.4947265625 199.433984375 26.05 199 25.616015625 198.5552734375 25 198.55 24.383984375 198.5552734375 23.95 199 23.5052734375 199.433984375 23.5 200.05
L 23.5 206.05
Q 23.5052734375 206.666015625 23.95 207.1 24.383984375 207.5447265625 25 207.55 25.616015625 207.5447265625 26.05 207.1 26.4947265625 206.666015625 26.5 206.05
L 26.5 200.05
M 26.5 188.05
Q 26.4947265625 187.433984375 26.05 187 25.616015625 186.5552734375 25 186.55 24.383984375 186.5552734375 23.95 187 23.5052734375 187.433984375 23.5 188.05
L 23.5 194.05
Q 23.5052734375 194.666015625 23.95 195.1 24.383984375 195.5447265625 25 195.55 25.616015625 195.5447265625 26.05 195.1 26.4947265625 194.666015625 26.5 194.05
L 26.5 188.05
M 26.5 176.05
Q 26.4947265625 175.433984375 26.05 175 25.616015625 174.5552734375 25 174.55 24.383984375 174.5552734375 23.95 175 23.5052734375 175.433984375 23.5 176.05
L 23.5 182.05
Q 23.5052734375 182.666015625 23.95 183.1 24.383984375 183.5447265625 25 183.55 25.616015625 183.5447265625 26.05 183.1 26.4947265625 182.666015625 26.5 182.05
L 26.5 176.05
M 26.5 164.05
Q 26.4947265625 163.433984375 26.05 163 25.616015625 162.5552734375 25 162.55 24.383984375 162.5552734375 23.95 163 23.5052734375 163.433984375 23.5 164.05
L 23.5 170.05
Q 23.5052734375 170.666015625 23.95 171.1 24.383984375 171.5447265625 25 171.55 25.616015625 171.5447265625 26.05 171.1 26.4947265625 170.666015625 26.5 170.05
L 26.5 164.05
M 26.5 152.05
Q 26.4947265625 151.433984375 26.05 151 25.616015625 150.5552734375 25 150.55 24.383984375 150.5552734375 23.95 151 23.5052734375 151.433984375 23.5 152.05
L 23.5 158.05
Q 23.5052734375 158.666015625 23.95 159.1 24.383984375 159.5447265625 25 159.55 25.616015625 159.5447265625 26.05 159.1 26.4947265625 158.666015625 26.5 158.05
L 26.5 152.05
M 26.5 140.05
Q 26.4947265625 139.433984375 26.05 139 25.616015625 138.5552734375 25 138.55 24.383984375 138.5552734375 23.95 139 23.5052734375 139.433984375 23.5 140.05
L 23.5 146.05
Q 23.5052734375 146.666015625 23.95 147.1 24.383984375 147.5447265625 25 147.55 25.616015625 147.5447265625 26.05 147.1 26.4947265625 146.666015625 26.5 146.05
L 26.5 140.05
M 26.5 128.05
Q 26.4947265625 127.433984375 26.05 127 25.616015625 126.5552734375 25 126.55 24.383984375 126.5552734375 23.95 127 23.5052734375 127.433984375 23.5 128.05
L 23.5 134.05
Q 23.5052734375 134.666015625 23.95 135.1 24.383984375 135.5447265625 25 135.55 25.616015625 135.5447265625 26.05 135.1 26.4947265625 134.666015625 26.5 134.05
L 26.5 128.05
M 26.5 116.05
Q 26.4947265625 115.433984375 26.05 115 25.616015625 114.5552734375 25 114.55 24.383984375 114.5552734375 23.95 115 23.5052734375 115.433984375 23.5 116.05
L 23.5 122.05
Q 23.5052734375 122.666015625 23.95 123.1 24.383984375 123.5447265625 25 123.55 25.616015625 123.5447265625 26.05 123.1 26.4947265625 122.666015625 26.5 122.05
L 26.5 116.05
M 26.5 104.05
Q 26.4947265625 103.433984375 26.05 103 25.616015625 102.5552734375 25 102.55 24.383984375 102.5552734375 23.95 103 23.5052734375 103.433984375 23.5 104.05
L 23.5 110.05
Q 23.5052734375 110.666015625 23.95 111.1 24.383984375 111.5447265625 25 111.55 25.616015625 111.5447265625 26.05 111.1 26.4947265625 110.666015625 26.5 110.05
L 26.5 104.05
M 23.95 91
Q 23.5052734375 91.433984375 23.5 92.05
L 23.5 98.05
Q 23.5052734375 98.666015625 23.95 99.1 24.383984375 99.5447265625 25 99.55 25.616015625 99.5447265625 26.05 99.1 26.4947265625 98.666015625 26.5 98.05
L 26.5 92.05
Q 26.4947265625 91.433984375 26.05 91 25.616015625 90.5552734375 25 90.55 24.383984375 90.5552734375 23.95 91
M 23.5 80.05
L 23.5 86.05
Q 23.5052734375 86.666015625 23.95 87.1 24.383984375 87.5447265625 25 87.55 25.616015625 87.5447265625 26.05 87.1 26.4947265625 86.666015625 26.5 86.05
L 26.5 80.05
Q 26.4947265625 79.433984375 26.05 79 25.616015625 78.5552734375 25 78.55 24.383984375 78.5552734375 23.95 79 23.5052734375 79.433984375 23.5 80.05
M 26.5 68.05
Q 26.4947265625 67.433984375 26.05 67 25.616015625 66.5552734375 25 66.55 24.383984375 66.5552734375 23.95 67 23.5052734375 67.433984375 23.5 68.05
L 23.5 74.05
Q 23.5052734375 74.666015625 23.95 75.1 24.383984375 75.5447265625 25 75.55 25.616015625 75.5447265625 26.05 75.1 26.4947265625 74.666015625 26.5 74.05
L 26.5 68.05
M 26.05 55
Q 25.616015625 54.5552734375 25 54.55 24.383984375 54.5552734375 23.95 55 23.5052734375 55.433984375 23.5 56.05
L 23.5 62.05
Q 23.5052734375 62.666015625 23.95 63.1 24.383984375 63.5447265625 25 63.55 25.616015625 63.5447265625 26.05 63.1 26.4947265625 62.666015625 26.5 62.05
L 26.5 56.05
Q 26.4947265625 55.433984375 26.05 55
M 23.95 43
Q 23.5052734375 43.433984375 23.5 44.05
L 23.5 50.05
Q 23.5052734375 50.666015625 23.95 51.1 24.383984375 51.5447265625 25 51.55 25.616015625 51.5447265625 26.05 51.1 26.4947265625 50.666015625 26.5 50.05
L 26.5 44.05
Q 26.4947265625 43.433984375 26.05 43 25.616015625 42.5552734375 25 42.55 24.383984375 42.5552734375 23.95 43
M 26.5 32.05
Q 26.4947265625 31.433984375 26.05 31 25.616015625 30.5552734375 25 30.55 24.383984375 30.5552734375 23.95 31 23.5052734375 31.433984375 23.5 32.05
L 23.5 38.05
Q 23.5052734375 38.666015625 23.95 39.1 24.383984375 39.5447265625 25 39.55 25.616015625 39.5447265625 26.05 39.1 26.4947265625 38.666015625 26.5 38.05
L 26.5 32.05
M 25 18.55
Q 24.383984375 18.5552734375 23.95 19 23.5052734375 19.433984375 23.5 20.05
L 23.5 26.05
Q 23.5052734375 26.666015625 23.95 27.1 24.383984375 27.5447265625 25 27.55 25.616015625 27.5447265625 26.05 27.1 26.4947265625 26.666015625 26.5 26.05
L 26.5 20.05
Q 26.4947265625 19.433984375 26.05 19 25.616015625 18.5552734375 25 18.55
M 32.05 9
Q 31.616015625 8.5552734375 31 8.55
L 25 8.55
Q 24.383984375 8.5552734375 23.95 9 23.5052734375 9.433984375 23.5 10.05
L 23.5 14.05
Q 23.5052734375 14.666015625 23.95 15.1 24.383984375 15.5447265625 25 15.55 25.616015625 15.5447265625 26.05 15.1 26.4947265625 14.666015625 26.5 14.05
L 26.5 11.55 31 11.55
Q 31.616015625 11.5447265625 32.05 11.1 32.4947265625 10.666015625 32.5 10.05 32.4947265625 9.433984375 32.05 9
M 44.05 9
Q 43.616015625 8.5552734375 43 8.55
L 37 8.55
Q 36.383984375 8.5552734375 35.95 9 35.5052734375 9.433984375 35.5 10.05 35.5052734375 10.666015625 35.95 11.1 36.383984375 11.5447265625 37 11.55
L 43 11.55
Q 43.616015625 11.5447265625 44.05 11.1 44.4947265625 10.666015625 44.5 10.05 44.4947265625 9.433984375 44.05 9
M 55 11.55
Q 55.616015625 11.5447265625 56.05 11.1 56.4947265625 10.666015625 56.5 10.05 56.4947265625 9.433984375 56.05 9 55.616015625 8.5552734375 55 8.55
L 49 8.55
Q 48.383984375 8.5552734375 47.95 9 47.5052734375 9.433984375 47.5 10.05 47.5052734375 10.666015625 47.95 11.1 48.383984375 11.5447265625 49 11.55
L 55 11.55
M 68.5 10.05
Q 68.4947265625 9.433984375 68.05 9 67.616015625 8.5552734375 67 8.55
L 61 8.55
Q 60.383984375 8.5552734375 59.95 9 59.5052734375 9.433984375 59.5 10.05 59.5052734375 10.666015625 59.95 11.1 60.383984375 11.5447265625 61 11.55
L 67 11.55
Q 67.616015625 11.5447265625 68.05 11.1 68.4947265625 10.666015625 68.5 10.05
M 71.5 10.05
Q 71.5052734375 10.666015625 71.95 11.1 72.383984375 11.5447265625 73 11.55
L 79 11.55
Q 79.616015625 11.5447265625 80.05 11.1 80.4947265625 10.666015625 80.5 10.05 80.4947265625 9.433984375 80.05 9 79.616015625 8.5552734375 79 8.55
L 73 8.55
Q 72.383984375 8.5552734375 71.95 9 71.5052734375 9.433984375 71.5 10.05
M 92.05 11.1
Q 92.4947265625 10.666015625 92.5 10.05 92.4947265625 9.433984375 92.05 9 91.616015625 8.5552734375 91 8.55
L 85 8.55
Q 84.383984375 8.5552734375 83.95 9 83.5052734375 9.433984375 83.5 10.05 83.5052734375 10.666015625 83.95 11.1 84.383984375 11.5447265625 85 11.55
L 91 11.55
Q 91.616015625 11.5447265625 92.05 11.1
M 104.5 10.05
Q 104.4947265625 9.433984375 104.05 9 103.616015625 8.5552734375 103 8.55
L 97 8.55
Q 96.383984375 8.5552734375 95.95 9 95.5052734375 9.433984375 95.5 10.05 95.5052734375 10.666015625 95.95 11.1 96.383984375 11.5447265625 97 11.55
L 103 11.55
Q 103.616015625 11.5447265625 104.05 11.1 104.4947265625 10.666015625 104.5 10.05
M 115 11.55
Q 115.616015625 11.5447265625 116.05 11.1 116.4947265625 10.666015625 116.5 10.05 116.4947265625 9.433984375 116.05 9 115.616015625 8.5552734375 115 8.55
L 109 8.55
Q 108.383984375 8.5552734375 107.95 9 107.5052734375 9.433984375 107.5 10.05 107.5052734375 10.666015625 107.95 11.1 108.383984375 11.5447265625 109 11.55
L 115 11.55
M 128.05 9
Q 127.616015625 8.5552734375 127 8.55
L 121 8.55
Q 120.383984375 8.5552734375 119.95 9 119.5052734375 9.433984375 119.5 10.05 119.5052734375 10.666015625 119.95 11.1 120.383984375 11.5447265625 121 11.55
L 127 11.55
Q 127.616015625 11.5447265625 128.05 11.1 128.4947265625 10.666015625 128.5 10.05 128.4947265625 9.433984375 128.05 9
M 139 8.55
L 133 8.55
Q 132.383984375 8.5552734375 131.95 9 131.5052734375 9.433984375 131.5 10.05 131.5052734375 10.666015625 131.95 11.1 132.383984375 11.5447265625 133 11.55
L 139 11.55
Q 139.616015625 11.5447265625 140.05 11.1 140.4947265625 10.666015625 140.5 10.05 140.4947265625 9.433984375 140.05 9 139.616015625 8.5552734375 139 8.55
M 152.05 11.1
Q 152.4947265625 10.666015625 152.5 10.05 152.4947265625 9.433984375 152.05 9 151.616015625 8.5552734375 151 8.55
L 145 8.55
Q 144.383984375 8.5552734375 143.95 9 143.5052734375 9.433984375 143.5 10.05 143.5052734375 10.666015625 143.95 11.1 144.383984375 11.5447265625 145 11.55
L 151 11.55
Q 151.616015625 11.5447265625 152.05 11.1
M 164.05 9
Q 163.616015625 8.5552734375 163 8.55
L 157 8.55
Q 156.383984375 8.5552734375 155.95 9 155.5052734375 9.433984375 155.5 10.05 155.5052734375 10.666015625 155.95 11.1 156.383984375 11.5447265625 157 11.55
L 163 11.55
Q 163.616015625 11.5447265625 164.05 11.1 164.4947265625 10.666015625 164.5 10.05 164.4947265625 9.433984375 164.05 9
M 175 11.55
Q 175.616015625 11.5447265625 176.05 11.1 176.4947265625 10.666015625 176.5 10.05 176.4947265625 9.433984375 176.05 9 175.616015625 8.5552734375 175 8.55
L 169 8.55
Q 168.383984375 8.5552734375 167.95 9 167.5052734375 9.433984375 167.5 10.05 167.5052734375 10.666015625 167.95 11.1 168.383984375 11.5447265625 169 11.55
L 175 11.55
M 188.5 10.05
Q 188.4947265625 9.433984375 188.05 9 187.616015625 8.5552734375 187 8.55
L 181 8.55
Q 180.383984375 8.5552734375 179.95 9 179.5052734375 9.433984375 179.5 10.05 179.5052734375 10.666015625 179.95 11.1 180.383984375 11.5447265625 181 11.55
L 187 11.55
Q 187.616015625 11.5447265625 188.05 11.1 188.4947265625 10.666015625 188.5 10.05
M 193 11.55
L 199 11.55
Q 199.616015625 11.5447265625 200.05 11.1 200.4947265625 10.666015625 200.5 10.05 200.4947265625 9.433984375 200.05 9 199.616015625 8.5552734375 199 8.55
L 193 8.55
Q 192.383984375 8.5552734375 191.95 9 191.5052734375 9.433984375 191.5 10.05 191.5052734375 10.666015625 191.95 11.1 192.383984375 11.5447265625 193 11.55
M 203.95 11.1
Q 204.383984375 11.5447265625 205 11.55
L 211 11.55
Q 211.616015625 11.5447265625 212.05 11.1 212.4947265625 10.666015625 212.5 10.05 212.4947265625 9.433984375 212.05 9 211.616015625 8.5552734375 211 8.55
L 205 8.55
Q 204.383984375 8.5552734375 203.95 9 203.5052734375 9.433984375 203.5 10.05 203.5052734375 10.666015625 203.95 11.1
M 224.5 10.05
Q 224.4947265625 9.433984375 224.05 9 223.616015625 8.5552734375 223 8.55
L 217 8.55
Q 216.383984375 8.5552734375 215.95 9 215.5052734375 9.433984375 215.5 10.05 215.5052734375 10.666015625 215.95 11.1 216.383984375 11.5447265625 217 11.55
L 223 11.55
Q 223.616015625 11.5447265625 224.05 11.1 224.4947265625 10.666015625 224.5 10.05
M 235 11.55
Q 235.616015625 11.5447265625 236.05 11.1 236.4947265625 10.666015625 236.5 10.05 236.4947265625 9.433984375 236.05 9 235.616015625 8.5552734375 235 8.55
L 229 8.55
Q 228.383984375 8.5552734375 227.95 9 227.5052734375 9.433984375 227.5 10.05 227.5052734375 10.666015625 227.95 11.1 228.383984375 11.5447265625 229 11.55
L 235 11.55
M 248.05 9
Q 247.616015625 8.5552734375 247 8.55
L 241 8.55
Q 240.383984375 8.5552734375 239.95 9 239.5052734375 9.433984375 239.5 10.05 239.5052734375 10.666015625 239.95 11.1 240.383984375 11.5447265625 241 11.55
L 247 11.55
Q 247.616015625 11.5447265625 248.05 11.1 248.4947265625 10.666015625 248.5 10.05 248.4947265625 9.433984375 248.05 9
M 259 11.55
Q 259.616015625 11.5447265625 260.05 11.1 260.4947265625 10.666015625 260.5 10.05 260.4947265625 9.433984375 260.05 9 259.616015625 8.5552734375 259 8.55
L 253 8.55
Q 252.383984375 8.5552734375 251.95 9 251.5052734375 9.433984375 251.5 10.05 251.5052734375 10.666015625 251.95 11.1 252.383984375 11.5447265625 253 11.55
L 259 11.55
M 263.95 11.1
Q 264.383984375 11.5447265625 265 11.55
L 271 11.55
Q 271.616015625 11.5447265625 272.05 11.1 272.4947265625 10.666015625 272.5 10.05 272.4947265625 9.433984375 272.05 9 271.616015625 8.5552734375 271 8.55
L 265 8.55
Q 264.383984375 8.5552734375 263.95 9 263.5052734375 9.433984375 263.5 10.05 263.5052734375 10.666015625 263.95 11.1
M 284.5 10.05
Q 284.4947265625 9.433984375 284.05 9 283.616015625 8.5552734375 283 8.55
L 277 8.55
Q 276.383984375 8.5552734375 275.95 9 275.5052734375 9.433984375 275.5 10.05 275.5052734375 10.666015625 275.95 11.1 276.383984375 11.5447265625 277 11.55
L 283 11.55
Q 283.616015625 11.5447265625 284.05 11.1 284.4947265625 10.666015625 284.5 10.05
M 295 11.55
Q 295.616015625 11.5447265625 296.05 11.1 296.4947265625 10.666015625 296.5 10.05 296.4947265625 9.433984375 296.05 9 295.616015625 8.5552734375 295 8.55
L 289 8.55
Q 288.383984375 8.5552734375 287.95 9 287.5052734375 9.433984375 287.5 10.05 287.5052734375 10.666015625 287.95 11.1 288.383984375 11.5447265625 289 11.55
L 295 11.55
M 308.5 10.05
Q 308.4947265625 9.433984375 308.05 9 307.616015625 8.5552734375 307 8.55
L 301 8.55
Q 300.383984375 8.5552734375 299.95 9 299.5052734375 9.433984375 299.5 10.05 299.5052734375 10.666015625 299.95 11.1 300.383984375 11.5447265625 301 11.55
L 307 11.55
Q 307.616015625 11.5447265625 308.05 11.1 308.4947265625 10.666015625 308.5 10.05
M 319 11.55
Q 319.616015625 11.5447265625 320.05 11.1 320.4947265625 10.666015625 320.5 10.05 320.4947265625 9.433984375 320.05 9 319.616015625 8.5552734375 319 8.55
L 313 8.55
Q 312.383984375 8.5552734375 311.95 9 311.5052734375 9.433984375 311.5 10.05 311.5052734375 10.666015625 311.95 11.1 312.383984375 11.5447265625 313 11.55
L 319 11.55
M 503.95 345
Q 503.5052734375 345.433984375 503.5 346.05
L 503.5 348.55 499 348.55
Q 498.383984375 348.5552734375 497.95 349 497.5052734375 349.433984375 497.5 350.05 497.5052734375 350.666015625 497.95 351.1 498.383984375 351.5447265625 499 351.55
L 505 351.55
Q 505.616015625 351.5447265625 506.05 351.1 506.4947265625 350.666015625 506.5 350.05
L 506.5 346.05
Q 506.4947265625 345.433984375 506.05 345 505.616015625 344.5552734375 505 344.55 504.383984375 344.5552734375 503.95 345
M 506.05 333
Q 505.616015625 332.5552734375 505 332.55 504.383984375 332.5552734375 503.95 333 503.5052734375 333.433984375 503.5 334.05
L 503.5 340.05
Q 503.5052734375 340.666015625 503.95 341.1 504.383984375 341.5447265625 505 341.55 505.616015625 341.5447265625 506.05 341.1 506.4947265625 340.666015625 506.5 340.05
L 506.5 334.05
Q 506.4947265625 333.433984375 506.05 333
M 505 320.55
Q 504.383984375 320.5552734375 503.95 321 503.5052734375 321.433984375 503.5 322.05
L 503.5 328.05
Q 503.5052734375 328.666015625 503.95 329.1 504.383984375 329.5447265625 505 329.55 505.616015625 329.5447265625 506.05 329.1 506.4947265625 328.666015625 506.5 328.05
L 506.5 322.05
Q 506.4947265625 321.433984375 506.05 321 505.616015625 320.5552734375 505 320.55
M 506.5 316.05
L 506.5 310.05
Q 506.4947265625 309.433984375 506.05 309 505.616015625 308.5552734375 505 308.55 504.383984375 308.5552734375 503.95 309 503.5052734375 309.433984375 503.5 310.05
L 503.5 316.05
Q 503.5052734375 316.666015625 503.95 317.1 504.383984375 317.5447265625 505 317.55 505.616015625 317.5447265625 506.05 317.1 506.4947265625 316.666015625 506.5 316.05
M 506.5 304.05
L 506.5 298.05
Q 506.4947265625 297.433984375 506.05 297 505.616015625 296.5552734375 505 296.55 504.383984375 296.5552734375 503.95 297 503.5052734375 297.433984375 503.5 298.05
L 503.5 304.05
Q 503.5052734375 304.666015625 503.95 305.1 504.383984375 305.5447265625 505 305.55 505.616015625 305.5447265625 506.05 305.1 506.4947265625 304.666015625 506.5 304.05
M 503.5 286.05
L 503.5 292.05
Q 503.5052734375 292.666015625 503.95 293.1 504.383984375 293.5447265625 505 293.55 505.616015625 293.5447265625 506.05 293.1 506.4947265625 292.666015625 506.5 292.05
L 506.5 286.05
Q 506.4947265625 285.433984375 506.05 285 505.616015625 284.5552734375 505 284.55 504.383984375 284.5552734375 503.95 285 503.5052734375 285.433984375 503.5 286.05
M 503.5 274.05
L 503.5 280.05
Q 503.5052734375 280.666015625 503.95 281.1 504.383984375 281.5447265625 505 281.55 505.616015625 281.5447265625 506.05 281.1 506.4947265625 280.666015625 506.5 280.05
L 506.5 274.05
Q 506.4947265625 273.433984375 506.05 273 505.616015625 272.5552734375 505 272.55 504.383984375 272.5552734375 503.95 273 503.5052734375 273.433984375 503.5 274.05
M 506.5 256.05
L 506.5 250.05
Q 506.4947265625 249.433984375 506.05 249 505.616015625 248.5552734375 505 248.55 504.383984375 248.5552734375 503.95 249 503.5052734375 249.433984375 503.5 250.05
L 503.5 256.05
Q 503.5052734375 256.666015625 503.95 257.1 504.383984375 257.5447265625 505 257.55 505.616015625 257.5447265625 506.05 257.1 506.4947265625 256.666015625 506.5 256.05
M 506.5 268.05
L 506.5 262.05
Q 506.4947265625 261.433984375 506.05 261 505.616015625 260.5552734375 505 260.55 504.383984375 260.5552734375 503.95 261 503.5052734375 261.433984375 503.5 262.05
L 503.5 268.05
Q 503.5052734375 268.666015625 503.95 269.1 504.383984375 269.5447265625 505 269.55 505.616015625 269.5447265625 506.05 269.1 506.4947265625 268.666015625 506.5 268.05
M 506.05 237
Q 505.616015625 236.5552734375 505 236.55 504.383984375 236.5552734375 503.95 237 503.5052734375 237.433984375 503.5 238.05
L 503.5 244.05
Q 503.5052734375 244.666015625 503.95 245.1 504.383984375 245.5447265625 505 245.55 505.616015625 245.5447265625 506.05 245.1 506.4947265625 244.666015625 506.5 244.05
L 506.5 238.05
Q 506.4947265625 237.433984375 506.05 237
M 503.5 226.05
L 503.5 232.05
Q 503.5052734375 232.666015625 503.95 233.1 504.383984375 233.5447265625 505 233.55 505.616015625 233.5447265625 506.05 233.1 506.4947265625 232.666015625 506.5 232.05
L 506.5 226.05
Q 506.4947265625 225.433984375 506.05 225 505.616015625 224.5552734375 505 224.55 504.383984375 224.5552734375 503.95 225 503.5052734375 225.433984375 503.5 226.05
M 506.5 208.05
L 506.5 202.05
Q 506.4947265625 201.433984375 506.05 201 505.616015625 200.5552734375 505 200.55 504.383984375 200.5552734375 503.95 201 503.5052734375 201.433984375 503.5 202.05
L 503.5 208.05
Q 503.5052734375 208.666015625 503.95 209.1 504.383984375 209.5447265625 505 209.55 505.616015625 209.5447265625 506.05 209.1 506.4947265625 208.666015625 506.5 208.05
M 506.5 220.05
L 506.5 214.05
Q 506.4947265625 213.433984375 506.05 213 505.616015625 212.5552734375 505 212.55 504.383984375 212.5552734375 503.95 213 503.5052734375 213.433984375 503.5 214.05
L 503.5 220.05
Q 503.5052734375 220.666015625 503.95 221.1 504.383984375 221.5447265625 505 221.55 505.616015625 221.5447265625 506.05 221.1 506.4947265625 220.666015625 506.5 220.05
M 458.05 349
Q 457.616015625 348.5552734375 457 348.55
L 451 348.55
Q 450.383984375 348.5552734375 449.95 349 449.5052734375 349.433984375 449.5 350.05 449.5052734375 350.666015625 449.95 351.1 450.383984375 351.5447265625 451 351.55
L 457 351.55
Q 457.616015625 351.5447265625 458.05 351.1 458.4947265625 350.666015625 458.5 350.05 458.4947265625 349.433984375 458.05 349
M 469 351.55
Q 469.616015625 351.5447265625 470.05 351.1 470.4947265625 350.666015625 470.5 350.05 470.4947265625 349.433984375 470.05 349 469.616015625 348.5552734375 469 348.55
L 463 348.55
Q 462.383984375 348.5552734375 461.95 349 461.5052734375 349.433984375 461.5 350.05 461.5052734375 350.666015625 461.95 351.1 462.383984375 351.5447265625 463 351.55
L 469 351.55
M 482.05 349
Q 481.616015625 348.5552734375 481 348.55
L 475 348.55
Q 474.383984375 348.5552734375 473.95 349 473.5052734375 349.433984375 473.5 350.05 473.5052734375 350.666015625 473.95 351.1 474.383984375 351.5447265625 475 351.55
L 481 351.55
Q 481.616015625 351.5447265625 482.05 351.1 482.4947265625 350.666015625 482.5 350.05 482.4947265625 349.433984375 482.05 349
M 485.5 350.05
Q 485.5052734375 350.666015625 485.95 351.1 486.383984375 351.5447265625 487 351.55
L 493 351.55
Q 493.616015625 351.5447265625 494.05 351.1 494.4947265625 350.666015625 494.5 350.05 494.4947265625 349.433984375 494.05 349 493.616015625 348.5552734375 493 348.55
L 487 348.55
Q 486.383984375 348.5552734375 485.95 349 485.5052734375 349.433984375 485.5 350.05
M 422.05 349
Q 421.616015625 348.5552734375 421 348.55
L 415 348.55
Q 414.383984375 348.5552734375 413.95 349 413.5052734375 349.433984375 413.5 350.05 413.5052734375 350.666015625 413.95 351.1 414.383984375 351.5447265625 415 351.55
L 421 351.55
Q 421.616015625 351.5447265625 422.05 351.1 422.4947265625 350.666015625 422.5 350.05 422.4947265625 349.433984375 422.05 349
M 433 351.55
Q 433.616015625 351.5447265625 434.05 351.1 434.4947265625 350.666015625 434.5 350.05 434.4947265625 349.433984375 434.05 349 433.616015625 348.5552734375 433 348.55
L 427 348.55
Q 426.383984375 348.5552734375 425.95 349 425.5052734375 349.433984375 425.5 350.05 425.5052734375 350.666015625 425.95 351.1 426.383984375 351.5447265625 427 351.55
L 433 351.55
M 437.95 351.1
Q 438.383984375 351.5447265625 439 351.55
L 445 351.55
Q 445.616015625 351.5447265625 446.05 351.1 446.4947265625 350.666015625 446.5 350.05 446.4947265625 349.433984375 446.05 349 445.616015625 348.5552734375 445 348.55
L 439 348.55
Q 438.383984375 348.5552734375 437.95 349 437.5052734375 349.433984375 437.5 350.05 437.5052734375 350.666015625 437.95 351.1
M 373 351.55
Q 373.616015625 351.5447265625 374.05 351.1 374.4947265625 350.666015625 374.5 350.05 374.4947265625 349.433984375 374.05 349 373.616015625 348.5552734375 373 348.55
L 367 348.55
Q 366.383984375 348.5552734375 365.95 349 365.5052734375 349.433984375 365.5 350.05 365.5052734375 350.666015625 365.95 351.1 366.383984375 351.5447265625 367 351.55
L 373 351.55
M 385 351.55
Q 385.616015625 351.5447265625 386.05 351.1 386.4947265625 350.666015625 386.5 350.05 386.4947265625 349.433984375 386.05 349 385.616015625 348.5552734375 385 348.55
L 379 348.55
Q 378.383984375 348.5552734375 377.95 349 377.5052734375 349.433984375 377.5 350.05 377.5052734375 350.666015625 377.95 351.1 378.383984375 351.5447265625 379 351.55
L 385 351.55
M 398.05 349
Q 397.616015625 348.5552734375 397 348.55
L 391 348.55
Q 390.383984375 348.5552734375 389.95 349 389.5052734375 349.433984375 389.5 350.05 389.5052734375 350.666015625 389.95 351.1 390.383984375 351.5447265625 391 351.55
L 397 351.55
Q 397.616015625 351.5447265625 398.05 351.1 398.4947265625 350.666015625 398.5 350.05 398.4947265625 349.433984375 398.05 349
M 401.95 351.1
Q 402.383984375 351.5447265625 403 351.55
L 409 351.55
Q 409.616015625 351.5447265625 410.05 351.1 410.4947265625 350.666015625 410.5 350.05 410.4947265625 349.433984375 410.05 349 409.616015625 348.5552734375 409 348.55
L 403 348.55
Q 402.383984375 348.5552734375 401.95 349 401.5052734375 349.433984375 401.5 350.05 401.5052734375 350.666015625 401.95 351.1
M 326.05 349
Q 325.616015625 348.5552734375 325 348.55
L 319 348.55
Q 318.383984375 348.5552734375 317.95 349 317.5052734375 349.433984375 317.5 350.05 317.5052734375 350.666015625 317.95 351.1 318.383984375 351.5447265625 319 351.55
L 325 351.55
Q 325.616015625 351.5447265625 326.05 351.1 326.4947265625 350.666015625 326.5 350.05 326.4947265625 349.433984375 326.05 349
M 338.05 349
Q 337.616015625 348.5552734375 337 348.55
L 331 348.55
Q 330.383984375 348.5552734375 329.95 349 329.5052734375 349.433984375 329.5 350.05 329.5052734375 350.666015625 329.95 351.1 330.383984375 351.5447265625 331 351.55
L 337 351.55
Q 337.616015625 351.5447265625 338.05 351.1 338.4947265625 350.666015625 338.5 350.05 338.4947265625 349.433984375 338.05 349
M 349 351.55
Q 349.616015625 351.5447265625 350.05 351.1 350.4947265625 350.666015625 350.5 350.05 350.4947265625 349.433984375 350.05 349 349.616015625 348.5552734375 349 348.55
L 343 348.55
Q 342.383984375 348.5552734375 341.95 349 341.5052734375 349.433984375 341.5 350.05 341.5052734375 350.666015625 341.95 351.1 342.383984375 351.5447265625 343 351.55
L 349 351.55
M 362.05 349
Q 361.616015625 348.5552734375 361 348.55
L 355 348.55
Q 354.383984375 348.5552734375 353.95 349 353.5052734375 349.433984375 353.5 350.05 353.5052734375 350.666015625 353.95 351.1 354.383984375 351.5447265625 355 351.55
L 361 351.55
Q 361.616015625 351.5447265625 362.05 351.1 362.4947265625 350.666015625 362.5 350.05 362.4947265625 349.433984375 362.05 349
M 332.05 9
Q 331.616015625 8.5552734375 331 8.55
L 325 8.55
Q 324.383984375 8.5552734375 323.95 9 323.5052734375 9.433984375 323.5 10.05 323.5052734375 10.666015625 323.95 11.1 324.383984375 11.5447265625 325 11.55
L 331 11.55
Q 331.616015625 11.5447265625 332.05 11.1 332.4947265625 10.666015625 332.5 10.05 332.4947265625 9.433984375 332.05 9
M 343 11.55
Q 343.616015625 11.5447265625 344.05 11.1 344.4947265625 10.666015625 344.5 10.05 344.4947265625 9.433984375 344.05 9 343.616015625 8.5552734375 343 8.55
L 337 8.55
Q 336.383984375 8.5552734375 335.95 9 335.5052734375 9.433984375 335.5 10.05 335.5052734375 10.666015625 335.95 11.1 336.383984375 11.5447265625 337 11.55
L 343 11.55
M 355 11.55
Q 355.616015625 11.5447265625 356.05 11.1 356.4947265625 10.666015625 356.5 10.05 356.4947265625 9.433984375 356.05 9 355.616015625 8.5552734375 355 8.55
L 349 8.55
Q 348.383984375 8.5552734375 347.95 9 347.5052734375 9.433984375 347.5 10.05 347.5052734375 10.666015625 347.95 11.1 348.383984375 11.5447265625 349 11.55
L 355 11.55
M 368.05 9
Q 367.616015625 8.5552734375 367 8.55
L 361 8.55
Q 360.383984375 8.5552734375 359.95 9 359.5052734375 9.433984375 359.5 10.05 359.5052734375 10.666015625 359.95 11.1 360.383984375 11.5447265625 361 11.55
L 367 11.55
Q 367.616015625 11.5447265625 368.05 11.1 368.4947265625 10.666015625 368.5 10.05 368.4947265625 9.433984375 368.05 9
M 379 11.55
Q 379.616015625 11.5447265625 380.05 11.1 380.4947265625 10.666015625 380.5 10.05 380.4947265625 9.433984375 380.05 9 379.616015625 8.5552734375 379 8.55
L 373 8.55
Q 372.383984375 8.5552734375 371.95 9 371.5052734375 9.433984375 371.5 10.05 371.5052734375 10.666015625 371.95 11.1 372.383984375 11.5447265625 373 11.55
L 379 11.55
M 392.5 10.05
Q 392.4947265625 9.433984375 392.05 9 391.616015625 8.5552734375 391 8.55
L 385 8.55
Q 384.383984375 8.5552734375 383.95 9 383.5052734375 9.433984375 383.5 10.05 383.5052734375 10.666015625 383.95 11.1 384.383984375 11.5447265625 385 11.55
L 391 11.55
Q 391.616015625 11.5447265625 392.05 11.1 392.4947265625 10.666015625 392.5 10.05
M 395.5 10.05
Q 395.5052734375 10.666015625 395.95 11.1 396.383984375 11.5447265625 397 11.55
L 403 11.55
Q 403.616015625 11.5447265625 404.05 11.1 404.4947265625 10.666015625 404.5 10.05 404.4947265625 9.433984375 404.05 9 403.616015625 8.5552734375 403 8.55
L 397 8.55
Q 396.383984375 8.5552734375 395.95 9 395.5052734375 9.433984375 395.5 10.05
M 416.05 11.1
Q 416.4947265625 10.666015625 416.5 10.05 416.4947265625 9.433984375 416.05 9 415.616015625 8.5552734375 415 8.55
L 409 8.55
Q 408.383984375 8.5552734375 407.95 9 407.5052734375 9.433984375 407.5 10.05 407.5052734375 10.666015625 407.95 11.1 408.383984375 11.5447265625 409 11.55
L 415 11.55
Q 415.616015625 11.5447265625 416.05 11.1
M 428.5 10.05
Q 428.4947265625 9.433984375 428.05 9 427.616015625 8.5552734375 427 8.55
L 421 8.55
Q 420.383984375 8.5552734375 419.95 9 419.5052734375 9.433984375 419.5 10.05 419.5052734375 10.666015625 419.95 11.1 420.383984375 11.5447265625 421 11.55
L 427 11.55
Q 427.616015625 11.5447265625 428.05 11.1 428.4947265625 10.666015625 428.5 10.05
M 439 11.55
Q 439.616015625 11.5447265625 440.05 11.1 440.4947265625 10.666015625 440.5 10.05 440.4947265625 9.433984375 440.05 9 439.616015625 8.5552734375 439 8.55
L 433 8.55
Q 432.383984375 8.5552734375 431.95 9 431.5052734375 9.433984375 431.5 10.05 431.5052734375 10.666015625 431.95 11.1 432.383984375 11.5447265625 433 11.55
L 439 11.55
M 452.05 9
Q 451.616015625 8.5552734375 451 8.55
L 445 8.55
Q 444.383984375 8.5552734375 443.95 9 443.5052734375 9.433984375 443.5 10.05 443.5052734375 10.666015625 443.95 11.1 444.383984375 11.5447265625 445 11.55
L 451 11.55
Q 451.616015625 11.5447265625 452.05 11.1 452.4947265625 10.666015625 452.5 10.05 452.4947265625 9.433984375 452.05 9
M 463 8.55
L 457 8.55
Q 456.383984375 8.5552734375 455.95 9 455.5052734375 9.433984375 455.5 10.05 455.5052734375 10.666015625 455.95 11.1 456.383984375 11.5447265625 457 11.55
L 463 11.55
Q 463.616015625 11.5447265625 464.05 11.1 464.4947265625 10.666015625 464.5 10.05 464.4947265625 9.433984375 464.05 9 463.616015625 8.5552734375 463 8.55
M 476.05 11.1
Q 476.4947265625 10.666015625 476.5 10.05 476.4947265625 9.433984375 476.05 9 475.616015625 8.5552734375 475 8.55
L 469 8.55
Q 468.383984375 8.5552734375 467.95 9 467.5052734375 9.433984375 467.5 10.05 467.5052734375 10.666015625 467.95 11.1 468.383984375 11.5447265625 469 11.55
L 475 11.55
Q 475.616015625 11.5447265625 476.05 11.1
M 506.05 189
Q 505.616015625 188.5552734375 505 188.55 504.383984375 188.5552734375 503.95 189 503.5052734375 189.433984375 503.5 190.05
L 503.5 196.05
Q 503.5052734375 196.666015625 503.95 197.1 504.383984375 197.5447265625 505 197.55 505.616015625 197.5447265625 506.05 197.1 506.4947265625 196.666015625 506.5 196.05
L 506.5 190.05
Q 506.4947265625 189.433984375 506.05 189
M 503.5 178.05
L 503.5 184.05
Q 503.5052734375 184.666015625 503.95 185.1 504.383984375 185.5447265625 505 185.55 505.616015625 185.5447265625 506.05 185.1 506.4947265625 184.666015625 506.5 184.05
L 506.5 178.05
Q 506.4947265625 177.433984375 506.05 177 505.616015625 176.5552734375 505 176.55 504.383984375 176.5552734375 503.95 177 503.5052734375 177.433984375 503.5 178.05
M 506.5 160.05
L 506.5 154.05
Q 506.4947265625 153.433984375 506.05 153 505.616015625 152.5552734375 505 152.55 504.383984375 152.5552734375 503.95 153 503.5052734375 153.433984375 503.5 154.05
L 503.5 160.05
Q 503.5052734375 160.666015625 503.95 161.1 504.383984375 161.5447265625 505 161.55 505.616015625 161.5447265625 506.05 161.1 506.4947265625 160.666015625 506.5 160.05
M 506.5 172.05
L 506.5 166.05
Q 506.4947265625 165.433984375 506.05 165 505.616015625 164.5552734375 505 164.55 504.383984375 164.5552734375 503.95 165 503.5052734375 165.433984375 503.5 166.05
L 503.5 172.05
Q 503.5052734375 172.666015625 503.95 173.1 504.383984375 173.5447265625 505 173.55 505.616015625 173.5447265625 506.05 173.1 506.4947265625 172.666015625 506.5 172.05
M 503.95 141
Q 503.5052734375 141.433984375 503.5 142.05
L 503.5 148.05
Q 503.5052734375 148.666015625 503.95 149.1 504.383984375 149.5447265625 505 149.55 505.616015625 149.5447265625 506.05 149.1 506.4947265625 148.666015625 506.5 148.05
L 506.5 142.05
Q 506.4947265625 141.433984375 506.05 141 505.616015625 140.5552734375 505 140.55 504.383984375 140.5552734375 503.95 141
M 503.5 130.05
L 503.5 136.05
Q 503.5052734375 136.666015625 503.95 137.1 504.383984375 137.5447265625 505 137.55 505.616015625 137.5447265625 506.05 137.1 506.4947265625 136.666015625 506.5 136.05
L 506.5 130.05
Q 506.4947265625 129.433984375 506.05 129 505.616015625 128.5552734375 505 128.55 504.383984375 128.5552734375 503.95 129 503.5052734375 129.433984375 503.5 130.05
M 505 116.55
Q 504.383984375 116.5552734375 503.95 117 503.5052734375 117.433984375 503.5 118.05
L 503.5 124.05
Q 503.5052734375 124.666015625 503.95 125.1 504.383984375 125.5447265625 505 125.55 505.616015625 125.5447265625 506.05 125.1 506.4947265625 124.666015625 506.5 124.05
L 506.5 118.05
Q 506.4947265625 117.433984375 506.05 117 505.616015625 116.5552734375 505 116.55
M 506.5 112.05
L 506.5 106.05
Q 506.4947265625 105.433984375 506.05 105 505.616015625 104.5552734375 505 104.55 504.383984375 104.5552734375 503.95 105 503.5052734375 105.433984375 503.5 106.05
L 503.5 112.05
Q 503.5052734375 112.666015625 503.95 113.1 504.383984375 113.5447265625 505 113.55 505.616015625 113.5447265625 506.05 113.1 506.4947265625 112.666015625 506.5 112.05
M 506.05 93
Q 505.616015625 92.5552734375 505 92.55 504.383984375 92.5552734375 503.95 93 503.5052734375 93.433984375 503.5 94.05
L 503.5 100.05
Q 503.5052734375 100.666015625 503.95 101.1 504.383984375 101.5447265625 505 101.55 505.616015625 101.5447265625 506.05 101.1 506.4947265625 100.666015625 506.5 100.05
L 506.5 94.05
Q 506.4947265625 93.433984375 506.05 93
M 506.05 81
Q 505.616015625 80.5552734375 505 80.55 504.383984375 80.5552734375 503.95 81 503.5052734375 81.433984375 503.5 82.05
L 503.5 88.05
Q 503.5052734375 88.666015625 503.95 89.1 504.383984375 89.5447265625 505 89.55 505.616015625 89.5447265625 506.05 89.1 506.4947265625 88.666015625 506.5 88.05
L 506.5 82.05
Q 506.4947265625 81.433984375 506.05 81
M 505 68.55
Q 504.383984375 68.5552734375 503.95 69 503.5052734375 69.433984375 503.5 70.05
L 503.5 76.05
Q 503.5052734375 76.666015625 503.95 77.1 504.383984375 77.5447265625 505 77.55 505.616015625 77.5447265625 506.05 77.1 506.4947265625 76.666015625 506.5 76.05
L 506.5 70.05
Q 506.4947265625 69.433984375 506.05 69 505.616015625 68.5552734375 505 68.55
M 506.5 64.05
L 506.5 58.05
Q 506.4947265625 57.433984375 506.05 57 505.616015625 56.5552734375 505 56.55 504.383984375 56.5552734375 503.95 57 503.5052734375 57.433984375 503.5 58.05
L 503.5 64.05
Q 503.5052734375 64.666015625 503.95 65.1 504.383984375 65.5447265625 505 65.55 505.616015625 65.5447265625 506.05 65.1 506.4947265625 64.666015625 506.5 64.05
M 506.05 45
Q 505.616015625 44.5552734375 505 44.55 504.383984375 44.5552734375 503.95 45 503.5052734375 45.433984375 503.5 46.05
L 503.5 52.05
Q 503.5052734375 52.666015625 503.95 53.1 504.383984375 53.5447265625 505 53.55 505.616015625 53.5447265625 506.05 53.1 506.4947265625 52.666015625 506.5 52.05
L 506.5 46.05
Q 506.4947265625 45.433984375 506.05 45
M 506.05 33
Q 505.616015625 32.5552734375 505 32.55 504.383984375 32.5552734375 503.95 33 503.5052734375 33.433984375 503.5 34.05
L 503.5 40.05
Q 503.5052734375 40.666015625 503.95 41.1 504.383984375 41.5447265625 505 41.55 505.616015625 41.5447265625 506.05 41.1 506.4947265625 40.666015625 506.5 40.05
L 506.5 34.05
Q 506.4947265625 33.433984375 506.05 33
M 505 20.55
Q 504.383984375 20.5552734375 503.95 21 503.5052734375 21.433984375 503.5 22.05
L 503.5 28.05
Q 503.5052734375 28.666015625 503.95 29.1 504.383984375 29.5447265625 505 29.55 505.616015625 29.5447265625 506.05 29.1 506.4947265625 28.666015625 506.5 28.05
L 506.5 22.05
Q 506.4947265625 21.433984375 506.05 21 505.616015625 20.5552734375 505 20.55
M 488.05 9
Q 487.616015625 8.5552734375 487 8.55
L 481 8.55
Q 480.383984375 8.5552734375 479.95 9 479.5052734375 9.433984375 479.5 10.05 479.5052734375 10.666015625 479.95 11.1 480.383984375 11.5447265625 481 11.55
L 487 11.55
Q 487.616015625 11.5447265625 488.05 11.1 488.4947265625 10.666015625 488.5 10.05 488.4947265625 9.433984375 488.05 9
M 500.05 9
Q 499.616015625 8.5552734375 499 8.55
L 493 8.55
Q 492.383984375 8.5552734375 491.95 9 491.5052734375 9.433984375 491.5 10.05 491.5052734375 10.666015625 491.95 11.1 492.383984375 11.5447265625 493 11.55
L 499 11.55
Q 499.616015625 11.5447265625 500.05 11.1 500.4947265625 10.666015625 500.5 10.05 500.4947265625 9.433984375 500.05 9
M 506.5 16.05
L 506.5 10.05
Q 506.4947265625 9.433984375 506.05 9 505.616015625 8.5552734375 505 8.55 504.383984375 8.5552734375 503.95 9 503.5052734375 9.433984375 503.5 10.05
L 503.5 16.05
Q 503.5052734375 16.666015625 503.95 17.1 504.383984375 17.5447265625 505 17.55 505.616015625 17.5447265625 506.05 17.1 506.4947265625 16.666015625 506.5 16.05 Z"/>
</g>

<g id="Layer1_2_STROKES_1_FILL">
<path fill="#B27D7D" stroke="none" d="
M 254.5 350.05
Q 254.4947265625 349.433984375 254.05 349 253.616015625 348.5552734375 253 348.55
L 247 348.55
Q 246.383984375 348.5552734375 245.95 349 245.5052734375 349.433984375 245.5 350.05 245.5052734375 350.666015625 245.95 351.1 246.383984375 351.5447265625 247 351.55
L 253 351.55
Q 253.616015625 351.5447265625 254.05 351.1 254.4947265625 350.666015625 254.5 350.05
M 265 351.55
Q 265.616015625 351.5447265625 266.05 351.1 266.4947265625 350.666015625 266.5 350.05 266.4947265625 349.433984375 266.05 349 265.616015625 348.5552734375 265 348.55
L 259 348.55
Q 258.383984375 348.5552734375 257.95 349 257.5052734375 349.433984375 257.5 350.05 257.5052734375 350.666015625 257.95 351.1 258.383984375 351.5447265625 259 351.55
L 265 351.55
M 278.05 349
Q 277.616015625 348.5552734375 277 348.55
L 271 348.55
Q 270.383984375 348.5552734375 269.95 349 269.5052734375 349.433984375 269.5 350.05 269.5052734375 350.666015625 269.95 351.1 270.383984375 351.5447265625 271 351.55
L 277 351.55
Q 277.616015625 351.5447265625 278.05 351.1 278.4947265625 350.666015625 278.5 350.05 278.4947265625 349.433984375 278.05 349
M 287.95 345
Q 287.5052734375 345.433984375 287.5 346.05
L 287.5 348.55 283 348.55
Q 282.383984375 348.5552734375 281.95 349 281.5052734375 349.433984375 281.5 350.05 281.5052734375 350.666015625 281.95 351.1 282.383984375 351.5447265625 283 351.55
L 289 351.55
Q 289.616015625 351.5447265625 290.05 351.1 290.4947265625 350.666015625 290.5 350.05
L 290.5 346.05
Q 290.4947265625 345.433984375 290.05 345 289.616015625 344.5552734375 289 344.55 288.383984375 344.5552734375 287.95 345
M 287.95 333
Q 287.5052734375 333.433984375 287.5 334.05
L 287.5 340.05
Q 287.5052734375 340.666015625 287.95 341.1 288.383984375 341.5447265625 289 341.55 289.616015625 341.5447265625 290.05 341.1 290.4947265625 340.666015625 290.5 340.05
L 290.5 334.05
Q 290.4947265625 333.433984375 290.05 333 289.616015625 332.5552734375 289 332.55 288.383984375 332.5552734375 287.95 333
M 290.05 321
Q 289.616015625 320.5552734375 289 320.55 288.383984375 320.5552734375 287.95 321 287.5052734375 321.433984375 287.5 322.05
L 287.5 328.05
Q 287.5052734375 328.666015625 287.95 329.1 288.383984375 329.5447265625 289 329.55 289.616015625 329.5447265625 290.05 329.1 290.4947265625 328.666015625 290.5 328.05
L 290.5 322.05
Q 290.4947265625 321.433984375 290.05 321
M 290.05 309
Q 289.616015625 308.5552734375 289 308.55 288.383984375 308.5552734375 287.95 309 287.5052734375 309.433984375 287.5 310.05
L 287.5 316.05
Q 287.5052734375 316.666015625 287.95 317.1 288.383984375 317.5447265625 289 317.55 289.616015625 317.5447265625 290.05 317.1 290.4947265625 316.666015625 290.5 316.05
L 290.5 310.05
Q 290.4947265625 309.433984375 290.05 309
M 290.5 298.05
Q 290.4947265625 297.433984375 290.05 297 289.616015625 296.5552734375 289 296.55 288.383984375 296.5552734375 287.95 297 287.5052734375 297.433984375 287.5 298.05
L 287.5 304.05
Q 287.5052734375 304.666015625 287.95 305.1 288.383984375 305.5447265625 289 305.55 289.616015625 305.5447265625 290.05 305.1 290.4947265625 304.666015625 290.5 304.05
L 290.5 298.05
M 218.05 349
Q 217.616015625 348.5552734375 217 348.55
L 211 348.55
Q 210.383984375 348.5552734375 209.95 349 209.5052734375 349.433984375 209.5 350.05 209.5052734375 350.666015625 209.95 351.1 210.383984375 351.5447265625 211 351.55
L 217 351.55
Q 217.616015625 351.5447265625 218.05 351.1 218.4947265625 350.666015625 218.5 350.05 218.4947265625 349.433984375 218.05 349
M 223 351.55
L 229 351.55
Q 229.616015625 351.5447265625 230.05 351.1 230.4947265625 350.666015625 230.5 350.05 230.4947265625 349.433984375 230.05 349 229.616015625 348.5552734375 229 348.55
L 223 348.55
Q 222.383984375 348.5552734375 221.95 349 221.5052734375 349.433984375 221.5 350.05 221.5052734375 350.666015625 221.95 351.1 222.383984375 351.5447265625 223 351.55
M 241 351.55
Q 241.616015625 351.5447265625 242.05 351.1 242.4947265625 350.666015625 242.5 350.05 242.4947265625 349.433984375 242.05 349 241.616015625 348.5552734375 241 348.55
L 235 348.55
Q 234.383984375 348.5552734375 233.95 349 233.5052734375 349.433984375 233.5 350.05 233.5052734375 350.666015625 233.95 351.1 234.383984375 351.5447265625 235 351.55
L 241 351.55
M 173.95 351.1
Q 174.383984375 351.5447265625 175 351.55
L 181 351.55
Q 181.616015625 351.5447265625 182.05 351.1 182.4947265625 350.666015625 182.5 350.05 182.4947265625 349.433984375 182.05 349 181.616015625 348.5552734375 181 348.55
L 175 348.55
Q 174.383984375 348.5552734375 173.95 349 173.5052734375 349.433984375 173.5 350.05 173.5052734375 350.666015625 173.95 351.1
M 194.05 349
Q 193.616015625 348.5552734375 193 348.55
L 187 348.55
Q 186.383984375 348.5552734375 185.95 349 185.5052734375 349.433984375 185.5 350.05 185.5052734375 350.666015625 185.95 351.1 186.383984375 351.5447265625 187 351.55
L 193 351.55
Q 193.616015625 351.5447265625 194.05 351.1 194.4947265625 350.666015625 194.5 350.05 194.4947265625 349.433984375 194.05 349
M 197.95 351.1
Q 198.383984375 351.5447265625 199 351.55
L 205 351.55
Q 205.616015625 351.5447265625 206.05 351.1 206.4947265625 350.666015625 206.5 350.05 206.4947265625 349.433984375 206.05 349 205.616015625 348.5552734375 205 348.55
L 199 348.55
Q 198.383984375 348.5552734375 197.95 349 197.5052734375 349.433984375 197.5 350.05 197.5052734375 350.666015625 197.95 351.1
M 290.05 293.1
Q 290.4947265625 292.666015625 290.5 292.05
L 290.5 286.05
Q 290.4947265625 285.433984375 290.05 285 289.616015625 284.5552734375 289 284.55 288.383984375 284.5552734375 287.95 285 287.5052734375 285.433984375 287.5 286.05
L 287.5 292.05
Q 287.5052734375 292.666015625 287.95 293.1 288.383984375 293.5447265625 289 293.55 289.616015625 293.5447265625 290.05 293.1
M 290.5 274.05
Q 290.4947265625 273.433984375 290.05 273 289.616015625 272.5552734375 289 272.55 288.383984375 272.5552734375 287.95 273 287.5052734375 273.433984375 287.5 274.05
L 287.5 280.05
Q 287.5052734375 280.666015625 287.95 281.1 288.383984375 281.5447265625 289 281.55 289.616015625 281.5447265625 290.05 281.1 290.4947265625 280.666015625 290.5 280.05
L 290.5 274.05
M 290.5 262.05
Q 290.4947265625 261.433984375 290.05 261 289.616015625 260.5552734375 289 260.55 288.383984375 260.5552734375 287.95 261 287.5052734375 261.433984375 287.5 262.05
L 287.5 268.05
Q 287.5052734375 268.666015625 287.95 269.1 288.383984375 269.5447265625 289 269.55 289.616015625 269.5447265625 290.05 269.1 290.4947265625 268.666015625 290.5 268.05
L 290.5 262.05
M 290.5 250.05
Q 290.4947265625 249.433984375 290.05 249 289.616015625 248.5552734375 289 248.55 288.383984375 248.5552734375 287.95 249 287.5052734375 249.433984375 287.5 250.05
L 287.5 256.05
Q 287.5052734375 256.666015625 287.95 257.1 288.383984375 257.5447265625 289 257.55 289.616015625 257.5447265625 290.05 257.1 290.4947265625 256.666015625 290.5 256.05
L 290.5 250.05
M 290.5 238.05
Q 290.4947265625 237.433984375 290.05 237 289.616015625 236.5552734375 289 236.55 288.383984375 236.5552734375 287.95 237 287.5052734375 237.433984375 287.5 238.05
L 287.5 244.05
Q 287.5052734375 244.666015625 287.95 245.1 288.383984375 245.5447265625 289 245.55 289.616015625 245.5447265625 290.05 245.1 290.4947265625 244.666015625 290.5 244.05
L 290.5 238.05
M 290.5 226.05
Q 290.4947265625 225.433984375 290.05 225 289.616015625 224.5552734375 289 224.55 288.383984375 224.5552734375 287.95 225 287.5052734375 225.433984375 287.5 226.05
L 287.5 232.05
Q 287.5052734375 232.666015625 287.95 233.1 288.383984375 233.5447265625 289 233.55 289.616015625 233.5447265625 290.05 233.1 290.4947265625 232.666015625 290.5 232.05
L 290.5 226.05
M 290.5 214.05
Q 290.4947265625 213.433984375 290.05 213 289.616015625 212.5552734375 289 212.55 288.383984375 212.5552734375 287.95 213 287.5052734375 213.433984375 287.5 214.05
L 287.5 220.05
Q 287.5052734375 220.666015625 287.95 221.1 288.383984375 221.5447265625 289 221.55 289.616015625 221.5447265625 290.05 221.1 290.4947265625 220.666015625 290.5 220.05
L 290.5 214.05
M 290.5 202.05
Q 290.4947265625 201.433984375 290.05 201 289.616015625 200.5552734375 289 200.55 288.383984375 200.5552734375 287.95 201 287.5052734375 201.433984375 287.5 202.05
L 287.5 208.05
Q 287.5052734375 208.666015625 287.95 209.1 288.383984375 209.5447265625 289 209.55 289.616015625 209.5447265625 290.05 209.1 290.4947265625 208.666015625 290.5 208.05
L 290.5 202.05
M 134.05 349
Q 133.616015625 348.5552734375 133 348.55
L 127 348.55
Q 126.383984375 348.5552734375 125.95 349 125.5052734375 349.433984375 125.5 350.05 125.5052734375 350.666015625 125.95 351.1 126.383984375 351.5447265625 127 351.55
L 133 351.55
Q 133.616015625 351.5447265625 134.05 351.1 134.4947265625 350.666015625 134.5 350.05 134.4947265625 349.433984375 134.05 349
M 145 351.55
Q 145.616015625 351.5447265625 146.05 351.1 146.4947265625 350.666015625 146.5 350.05 146.4947265625 349.433984375 146.05 349 145.616015625 348.5552734375 145 348.55
L 139 348.55
Q 138.383984375 348.5552734375 137.95 349 137.5052734375 349.433984375 137.5 350.05 137.5052734375 350.666015625 137.95 351.1 138.383984375 351.5447265625 139 351.55
L 145 351.55
M 158.05 349
Q 157.616015625 348.5552734375 157 348.55
L 151 348.55
Q 150.383984375 348.5552734375 149.95 349 149.5052734375 349.433984375 149.5 350.05 149.5052734375 350.666015625 149.95 351.1 150.383984375 351.5447265625 151 351.55
L 157 351.55
Q 157.616015625 351.5447265625 158.05 351.1 158.4947265625 350.666015625 158.5 350.05 158.4947265625 349.433984375 158.05 349
M 161.5 350.05
Q 161.5052734375 350.666015625 161.95 351.1 162.383984375 351.5447265625 163 351.55
L 169 351.55
Q 169.616015625 351.5447265625 170.05 351.1 170.4947265625 350.666015625 170.5 350.05 170.4947265625 349.433984375 170.05 349 169.616015625 348.5552734375 169 348.55
L 163 348.55
Q 162.383984375 348.5552734375 161.95 349 161.5052734375 349.433984375 161.5 350.05
M 98.05 349
Q 97.616015625 348.5552734375 97 348.55
L 91 348.55
Q 90.383984375 348.5552734375 89.95 349 89.5052734375 349.433984375 89.5 350.05 89.5052734375 350.666015625 89.95 351.1 90.383984375 351.5447265625 91 351.55
L 97 351.55
Q 97.616015625 351.5447265625 98.05 351.1 98.4947265625 350.666015625 98.5 350.05 98.4947265625 349.433984375 98.05 349
M 109 351.55
Q 109.616015625 351.5447265625 110.05 351.1 110.4947265625 350.666015625 110.5 350.05 110.4947265625 349.433984375 110.05 349 109.616015625 348.5552734375 109 348.55
L 103 348.55
Q 102.383984375 348.5552734375 101.95 349 101.5052734375 349.433984375 101.5 350.05 101.5052734375 350.666015625 101.95 351.1 102.383984375 351.5447265625 103 351.55
L 109 351.55
M 113.95 351.1
Q 114.383984375 351.5447265625 115 351.55
L 121 351.55
Q 121.616015625 351.5447265625 122.05 351.1 122.4947265625 350.666015625 122.5 350.05 122.4947265625 349.433984375 122.05 349 121.616015625 348.5552734375 121 348.55
L 115 348.55
Q 114.383984375 348.5552734375 113.95 349 113.5052734375 349.433984375 113.5 350.05 113.5052734375 350.666015625 113.95 351.1
M 49 351.55
Q 49.616015625 351.5447265625 50.05 351.1 50.4947265625 350.666015625 50.5 350.05 50.4947265625 349.433984375 50.05 349 49.616015625 348.5552734375 49 348.55
L 43 348.55
Q 42.383984375 348.5552734375 41.95 349 41.5052734375 349.433984375 41.5 350.05 41.5052734375 350.666015625 41.95 351.1 42.383984375 351.5447265625 43 351.55
L 49 351.55
M 61 351.55
Q 61.616015625 351.5447265625 62.05 351.1 62.4947265625 350.666015625 62.5 350.05 62.4947265625 349.433984375 62.05 349 61.616015625 348.5552734375 61 348.55
L 55 348.55
Q 54.383984375 348.5552734375 53.95 349 53.5052734375 349.433984375 53.5 350.05 53.5052734375 350.666015625 53.95 351.1 54.383984375 351.5447265625 55 351.55
L 61 351.55
M 74.05 349
Q 73.616015625 348.5552734375 73 348.55
L 67 348.55
Q 66.383984375 348.5552734375 65.95 349 65.5052734375 349.433984375 65.5 350.05 65.5052734375 350.666015625 65.95 351.1 66.383984375 351.5447265625 67 351.55
L 73 351.55
Q 73.616015625 351.5447265625 74.05 351.1 74.4947265625 350.666015625 74.5 350.05 74.4947265625 349.433984375 74.05 349
M 77.95 351.1
Q 78.383984375 351.5447265625 79 351.55
L 85 351.55
Q 85.616015625 351.5447265625 86.05 351.1 86.4947265625 350.666015625 86.5 350.05 86.4947265625 349.433984375 86.05 349 85.616015625 348.5552734375 85 348.55
L 79 348.55
Q 78.383984375 348.5552734375 77.95 349 77.5052734375 349.433984375 77.5 350.05 77.5052734375 350.666015625 77.95 351.1
M 38.05 349
Q 37.616015625 348.5552734375 37 348.55
L 31 348.55
Q 30.383984375 348.5552734375 29.95 349 29.5052734375 349.433984375 29.5 350.05 29.5052734375 350.666015625 29.95 351.1 30.383984375 351.5447265625 31 351.55
L 37 351.55
Q 37.616015625 351.5447265625 38.05 351.1 38.4947265625 350.666015625 38.5 350.05 38.4947265625 349.433984375 38.05 349
M 23.95 343
Q 23.5052734375 343.433984375 23.5 344.05
L 23.5 350.05
Q 23.5052734375 350.666015625 23.95 351.1 24.383984375 351.5447265625 25 351.55 25.616015625 351.5447265625 26.05 351.1 26.4947265625 350.666015625 26.5 350.05
L 26.5 344.05
Q 26.4947265625 343.433984375 26.05 343 25.616015625 342.5552734375 25 342.55 24.383984375 342.5552734375 23.95 343
M 26.5 332.05
Q 26.4947265625 331.433984375 26.05 331 25.616015625 330.5552734375 25 330.55 24.383984375 330.5552734375 23.95 331 23.5052734375 331.433984375 23.5 332.05
L 23.5 338.05
Q 23.5052734375 338.666015625 23.95 339.1 24.383984375 339.5447265625 25 339.55 25.616015625 339.5447265625 26.05 339.1 26.4947265625 338.666015625 26.5 338.05
L 26.5 332.05
M 25 318.55
Q 24.383984375 318.5552734375 23.95 319 23.5052734375 319.433984375 23.5 320.05
L 23.5 326.05
Q 23.5052734375 326.666015625 23.95 327.1 24.383984375 327.5447265625 25 327.55 25.616015625 327.5447265625 26.05 327.1 26.4947265625 326.666015625 26.5 326.05
L 26.5 320.05
Q 26.4947265625 319.433984375 26.05 319 25.616015625 318.5552734375 25 318.55
M 26.5 308.05
Q 26.4947265625 307.433984375 26.05 307 25.616015625 306.5552734375 25 306.55 24.383984375 306.5552734375 23.95 307 23.5052734375 307.433984375 23.5 308.05
L 23.5 314.05
Q 23.5052734375 314.666015625 23.95 315.1 24.383984375 315.5447265625 25 315.55 25.616015625 315.5447265625 26.05 315.1 26.4947265625 314.666015625 26.5 314.05
L 26.5 308.05
M 23.95 295
Q 23.5052734375 295.433984375 23.5 296.05
L 23.5 302.05
Q 23.5052734375 302.666015625 23.95 303.1 24.383984375 303.5447265625 25 303.55 25.616015625 303.5447265625 26.05 303.1 26.4947265625 302.666015625 26.5 302.05
L 26.5 296.05
Q 26.4947265625 295.433984375 26.05 295 25.616015625 294.5552734375 25 294.55 24.383984375 294.5552734375 23.95 295
M 26.5 284.05
Q 26.4947265625 283.433984375 26.05 283 25.616015625 282.5552734375 25 282.55 24.383984375 282.5552734375 23.95 283 23.5052734375 283.433984375 23.5 284.05
L 23.5 290.05
Q 23.5052734375 290.666015625 23.95 291.1 24.383984375 291.5447265625 25 291.55 25.616015625 291.5447265625 26.05 291.1 26.4947265625 290.666015625 26.5 290.05
L 26.5 284.05
M 25 270.55
Q 24.383984375 270.5552734375 23.95 271 23.5052734375 271.433984375 23.5 272.05
L 23.5 278.05
Q 23.5052734375 278.666015625 23.95 279.1 24.383984375 279.5447265625 25 279.55 25.616015625 279.5447265625 26.05 279.1 26.4947265625 278.666015625 26.5 278.05
L 26.5 272.05
Q 26.4947265625 271.433984375 26.05 271 25.616015625 270.5552734375 25 270.55
M 26.05 259
Q 25.616015625 258.5552734375 25 258.55 24.383984375 258.5552734375 23.95 259 23.5052734375 259.433984375 23.5 260.05
L 23.5 266.05
Q 23.5052734375 266.666015625 23.95 267.1 24.383984375 267.5447265625 25 267.55 25.616015625 267.5447265625 26.05 267.1 26.4947265625 266.666015625 26.5 266.05
L 26.5 260.05
Q 26.4947265625 259.433984375 26.05 259
M 25 246.55
Q 24.383984375 246.5552734375 23.95 247 23.5052734375 247.433984375 23.5 248.05
L 23.5 254.05
Q 23.5052734375 254.666015625 23.95 255.1 24.383984375 255.5447265625 25 255.55 25.616015625 255.5447265625 26.05 255.1 26.4947265625 254.666015625 26.5 254.05
L 26.5 248.05
Q 26.4947265625 247.433984375 26.05 247 25.616015625 246.5552734375 25 246.55
M 25 234.55
Q 24.383984375 234.5552734375 23.95 235 23.5052734375 235.433984375 23.5 236.05
L 23.5 242.05
Q 23.5052734375 242.666015625 23.95 243.1 24.383984375 243.5447265625 25 243.55 25.616015625 243.5447265625 26.05 243.1 26.4947265625 242.666015625 26.5 242.05
L 26.5 236.05
Q 26.4947265625 235.433984375 26.05 235 25.616015625 234.5552734375 25 234.55
M 26.5 224.05
Q 26.4947265625 223.433984375 26.05 223 25.616015625 222.5552734375 25 222.55 24.383984375 222.5552734375 23.95 223 23.5052734375 223.433984375 23.5 224.05
L 23.5 230.05
Q 23.5052734375 230.666015625 23.95 231.1 24.383984375 231.5447265625 25 231.55 25.616015625 231.5447265625 26.05 231.1 26.4947265625 230.666015625 26.5 230.05
L 26.5 224.05
M 26.5 212.05
Q 26.4947265625 211.433984375 26.05 211 25.616015625 210.5552734375 25 210.55 24.383984375 210.5552734375 23.95 211 23.5052734375 211.433984375 23.5 212.05
L 23.5 218.05
Q 23.5052734375 218.666015625 23.95 219.1 24.383984375 219.5447265625 25 219.55 25.616015625 219.5447265625 26.05 219.1 26.4947265625 218.666015625 26.5 218.05
L 26.5 212.05
M 26.5 200.05
Q 26.4947265625 199.433984375 26.05 199 25.616015625 198.5552734375 25 198.55 24.383984375 198.5552734375 23.95 199 23.5052734375 199.433984375 23.5 200.05
L 23.5 206.05
Q 23.5052734375 206.666015625 23.95 207.1 24.383984375 207.5447265625 25 207.55 25.616015625 207.5447265625 26.05 207.1 26.4947265625 206.666015625 26.5 206.05
L 26.5 200.05
M 26.5 188.05
Q 26.4947265625 187.433984375 26.05 187 25.616015625 186.5552734375 25 186.55 24.383984375 186.5552734375 23.95 187 23.5052734375 187.433984375 23.5 188.05
L 23.5 194.05
Q 23.5052734375 194.666015625 23.95 195.1 24.383984375 195.5447265625 25 195.55 25.616015625 195.5447265625 26.05 195.1 26.4947265625 194.666015625 26.5 194.05
L 26.5 188.05
M 26.5 176.05
Q 26.4947265625 175.433984375 26.05 175 25.616015625 174.5552734375 25 174.55 24.383984375 174.5552734375 23.95 175 23.5052734375 175.433984375 23.5 176.05
L 23.5 182.05
Q 23.5052734375 182.666015625 23.95 183.1 24.383984375 183.5447265625 25 183.55 25.616015625 183.5447265625 26.05 183.1 26.4947265625 182.666015625 26.5 182.05
L 26.5 176.05
M 26.5 164.05
Q 26.4947265625 163.433984375 26.05 163 25.616015625 162.5552734375 25 162.55 24.383984375 162.5552734375 23.95 163 23.5052734375 163.433984375 23.5 164.05
L 23.5 170.05
Q 23.5052734375 170.666015625 23.95 171.1 24.383984375 171.5447265625 25 171.55 25.616015625 171.5447265625 26.05 171.1 26.4947265625 170.666015625 26.5 170.05
L 26.5 164.05
M 26.5 152.05
Q 26.4947265625 151.433984375 26.05 151 25.616015625 150.5552734375 25 150.55 24.383984375 150.5552734375 23.95 151 23.5052734375 151.433984375 23.5 152.05
L 23.5 158.05
Q 23.5052734375 158.666015625 23.95 159.1 24.383984375 159.5447265625 25 159.55 25.616015625 159.5447265625 26.05 159.1 26.4947265625 158.666015625 26.5 158.05
L 26.5 152.05
M 26.5 140.05
Q 26.4947265625 139.433984375 26.05 139 25.616015625 138.5552734375 25 138.55 24.383984375 138.5552734375 23.95 139 23.5052734375 139.433984375 23.5 140.05
L 23.5 146.05
Q 23.5052734375 146.666015625 23.95 147.1 24.383984375 147.5447265625 25 147.55 25.616015625 147.5447265625 26.05 147.1 26.4947265625 146.666015625 26.5 146.05
L 26.5 140.05
M 26.5 128.05
Q 26.4947265625 127.433984375 26.05 127 25.616015625 126.5552734375 25 126.55 24.383984375 126.5552734375 23.95 127 23.5052734375 127.433984375 23.5 128.05
L 23.5 134.05
Q 23.5052734375 134.666015625 23.95 135.1 24.383984375 135.5447265625 25 135.55 25.616015625 135.5447265625 26.05 135.1 26.4947265625 134.666015625 26.5 134.05
L 26.5 128.05
M 26.5 116.05
Q 26.4947265625 115.433984375 26.05 115 25.616015625 114.5552734375 25 114.55 24.383984375 114.5552734375 23.95 115 23.5052734375 115.433984375 23.5 116.05
L 23.5 122.05
Q 23.5052734375 122.666015625 23.95 123.1 24.383984375 123.5447265625 25 123.55 25.616015625 123.5447265625 26.05 123.1 26.4947265625 122.666015625 26.5 122.05
L 26.5 116.05
M 26.5 104.05
Q 26.4947265625 103.433984375 26.05 103 25.616015625 102.5552734375 25 102.55 24.383984375 102.5552734375 23.95 103 23.5052734375 103.433984375 23.5 104.05
L 23.5 110.05
Q 23.5052734375 110.666015625 23.95 111.1 24.383984375 111.5447265625 25 111.55 25.616015625 111.5447265625 26.05 111.1 26.4947265625 110.666015625 26.5 110.05
L 26.5 104.05
M 23.95 91
Q 23.5052734375 91.433984375 23.5 92.05
L 23.5 98.05
Q 23.5052734375 98.666015625 23.95 99.1 24.383984375 99.5447265625 25 99.55 25.616015625 99.5447265625 26.05 99.1 26.4947265625 98.666015625 26.5 98.05
L 26.5 92.05
Q 26.4947265625 91.433984375 26.05 91 25.616015625 90.5552734375 25 90.55 24.383984375 90.5552734375 23.95 91
M 23.5 80.05
L 23.5 86.05
Q 23.5052734375 86.666015625 23.95 87.1 24.383984375 87.5447265625 25 87.55 25.616015625 87.5447265625 26.05 87.1 26.4947265625 86.666015625 26.5 86.05
L 26.5 80.05
Q 26.4947265625 79.433984375 26.05 79 25.616015625 78.5552734375 25 78.55 24.383984375 78.5552734375 23.95 79 23.5052734375 79.433984375 23.5 80.05
M 26.5 68.05
Q 26.4947265625 67.433984375 26.05 67 25.616015625 66.5552734375 25 66.55 24.383984375 66.5552734375 23.95 67 23.5052734375 67.433984375 23.5 68.05
L 23.5 74.05
Q 23.5052734375 74.666015625 23.95 75.1 24.383984375 75.5447265625 25 75.55 25.616015625 75.5447265625 26.05 75.1 26.4947265625 74.666015625 26.5 74.05
L 26.5 68.05
M 26.05 55
Q 25.616015625 54.5552734375 25 54.55 24.383984375 54.5552734375 23.95 55 23.5052734375 55.433984375 23.5 56.05
L 23.5 62.05
Q 23.5052734375 62.666015625 23.95 63.1 24.383984375 63.5447265625 25 63.55 25.616015625 63.5447265625 26.05 63.1 26.4947265625 62.666015625 26.5 62.05
L 26.5 56.05
Q 26.4947265625 55.433984375 26.05 55
M 26.5 44.05
Q 26.4947265625 43.433984375 26.05 43 25.616015625 42.5552734375 25 42.55 24.383984375 42.5552734375 23.95 43 23.5052734375 43.433984375 23.5 44.05
L 23.5 50.05
Q 23.5052734375 50.666015625 23.95 51.1 24.383984375 51.5447265625 25 51.55 25.616015625 51.5447265625 26.05 51.1 26.4947265625 50.666015625 26.5 50.05
L 26.5 44.05
M 23.95 31
Q 23.5052734375 31.433984375 23.5 32.05
L 23.5 38.05
Q 23.5052734375 38.666015625 23.95 39.1 24.383984375 39.5447265625 25 39.55 25.616015625 39.5447265625 26.05 39.1 26.4947265625 38.666015625 26.5 38.05
L 26.5 32.05
Q 26.4947265625 31.433984375 26.05 31 25.616015625 30.5552734375 25 30.55 24.383984375 30.5552734375 23.95 31
M 23.95 19
Q 23.5052734375 19.433984375 23.5 20.05
L 23.5 26.05
Q 23.5052734375 26.666015625 23.95 27.1 24.383984375 27.5447265625 25 27.55 25.616015625 27.5447265625 26.05 27.1 26.4947265625 26.666015625 26.5 26.05
L 26.5 20.05
Q 26.4947265625 19.433984375 26.05 19 25.616015625 18.5552734375 25 18.55 24.383984375 18.5552734375 23.95 19
M 32.05 9
Q 31.616015625 8.5552734375 31 8.55
L 25 8.55
Q 24.383984375 8.5552734375 23.95 9 23.5052734375 9.433984375 23.5 10.05
L 23.5 14.05
Q 23.5052734375 14.666015625 23.95 15.1 24.383984375 15.5447265625 25 15.55 25.616015625 15.5447265625 26.05 15.1 26.4947265625 14.666015625 26.5 14.05
L 26.5 11.55 31 11.55
Q 31.616015625 11.5447265625 32.05 11.1 32.4947265625 10.666015625 32.5 10.05 32.4947265625 9.433984375 32.05 9
M 44.05 9
Q 43.616015625 8.5552734375 43 8.55
L 37 8.55
Q 36.383984375 8.5552734375 35.95 9 35.5052734375 9.433984375 35.5 10.05 35.5052734375 10.666015625 35.95 11.1 36.383984375 11.5447265625 37 11.55
L 43 11.55
Q 43.616015625 11.5447265625 44.05 11.1 44.4947265625 10.666015625 44.5 10.05 44.4947265625 9.433984375 44.05 9
M 55 11.55
Q 55.616015625 11.5447265625 56.05 11.1 56.4947265625 10.666015625 56.5 10.05 56.4947265625 9.433984375 56.05 9 55.616015625 8.5552734375 55 8.55
L 49 8.55
Q 48.383984375 8.5552734375 47.95 9 47.5052734375 9.433984375 47.5 10.05 47.5052734375 10.666015625 47.95 11.1 48.383984375 11.5447265625 49 11.55
L 55 11.55
M 68.5 10.05
Q 68.4947265625 9.433984375 68.05 9 67.616015625 8.5552734375 67 8.55
L 61 8.55
Q 60.383984375 8.5552734375 59.95 9 59.5052734375 9.433984375 59.5 10.05 59.5052734375 10.666015625 59.95 11.1 60.383984375 11.5447265625 61 11.55
L 67 11.55
Q 67.616015625 11.5447265625 68.05 11.1 68.4947265625 10.666015625 68.5 10.05
M 71.5 10.05
Q 71.5052734375 10.666015625 71.95 11.1 72.383984375 11.5447265625 73 11.55
L 79 11.55
Q 79.616015625 11.5447265625 80.05 11.1 80.4947265625 10.666015625 80.5 10.05 80.4947265625 9.433984375 80.05 9 79.616015625 8.5552734375 79 8.55
L 73 8.55
Q 72.383984375 8.5552734375 71.95 9 71.5052734375 9.433984375 71.5 10.05
M 92.05 11.1
Q 92.4947265625 10.666015625 92.5 10.05 92.4947265625 9.433984375 92.05 9 91.616015625 8.5552734375 91 8.55
L 85 8.55
Q 84.383984375 8.5552734375 83.95 9 83.5052734375 9.433984375 83.5 10.05 83.5052734375 10.666015625 83.95 11.1 84.383984375 11.5447265625 85 11.55
L 91 11.55
Q 91.616015625 11.5447265625 92.05 11.1
M 104.5 10.05
Q 104.4947265625 9.433984375 104.05 9 103.616015625 8.5552734375 103 8.55
L 97 8.55
Q 96.383984375 8.5552734375 95.95 9 95.5052734375 9.433984375 95.5 10.05 95.5052734375 10.666015625 95.95 11.1 96.383984375 11.5447265625 97 11.55
L 103 11.55
Q 103.616015625 11.5447265625 104.05 11.1 104.4947265625 10.666015625 104.5 10.05
M 115 11.55
Q 115.616015625 11.5447265625 116.05 11.1 116.4947265625 10.666015625 116.5 10.05 116.4947265625 9.433984375 116.05 9 115.616015625 8.5552734375 115 8.55
L 109 8.55
Q 108.383984375 8.5552734375 107.95 9 107.5052734375 9.433984375 107.5 10.05 107.5052734375 10.666015625 107.95 11.1 108.383984375 11.5447265625 109 11.55
L 115 11.55
M 128.05 9
Q 127.616015625 8.5552734375 127 8.55
L 121 8.55
Q 120.383984375 8.5552734375 119.95 9 119.5052734375 9.433984375 119.5 10.05 119.5052734375 10.666015625 119.95 11.1 120.383984375 11.5447265625 121 11.55
L 127 11.55
Q 127.616015625 11.5447265625 128.05 11.1 128.4947265625 10.666015625 128.5 10.05 128.4947265625 9.433984375 128.05 9
M 139 8.55
L 133 8.55
Q 132.383984375 8.5552734375 131.95 9 131.5052734375 9.433984375 131.5 10.05 131.5052734375 10.666015625 131.95 11.1 132.383984375 11.5447265625 133 11.55
L 139 11.55
Q 139.616015625 11.5447265625 140.05 11.1 140.4947265625 10.666015625 140.5 10.05 140.4947265625 9.433984375 140.05 9 139.616015625 8.5552734375 139 8.55
M 152.05 11.1
Q 152.4947265625 10.666015625 152.5 10.05 152.4947265625 9.433984375 152.05 9 151.616015625 8.5552734375 151 8.55
L 145 8.55
Q 144.383984375 8.5552734375 143.95 9 143.5052734375 9.433984375 143.5 10.05 143.5052734375 10.666015625 143.95 11.1 144.383984375 11.5447265625 145 11.55
L 151 11.55
Q 151.616015625 11.5447265625 152.05 11.1
M 290.5 190.05
Q 290.4947265625 189.433984375 290.05 189 289.616015625 188.5552734375 289 188.55 288.383984375 188.5552734375 287.95 189 287.5052734375 189.433984375 287.5 190.05
L 287.5 196.05
Q 287.5052734375 196.666015625 287.95 197.1 288.383984375 197.5447265625 289 197.55 289.616015625 197.5447265625 290.05 197.1 290.4947265625 196.666015625 290.5 196.05
L 290.5 190.05
M 290.5 178.05
Q 290.4947265625 177.433984375 290.05 177 289.616015625 176.5552734375 289 176.55 288.383984375 176.5552734375 287.95 177 287.5052734375 177.433984375 287.5 178.05
L 287.5 184.05
Q 287.5052734375 184.666015625 287.95 185.1 288.383984375 185.5447265625 289 185.55 289.616015625 185.5447265625 290.05 185.1 290.4947265625 184.666015625 290.5 184.05
L 290.5 178.05
M 290.5 166.05
Q 290.4947265625 165.433984375 290.05 165 289.616015625 164.5552734375 289 164.55 288.383984375 164.5552734375 287.95 165 287.5052734375 165.433984375 287.5 166.05
L 287.5 172.05
Q 287.5052734375 172.666015625 287.95 173.1 288.383984375 173.5447265625 289 173.55 289.616015625 173.5447265625 290.05 173.1 290.4947265625 172.666015625 290.5 172.05
L 290.5 166.05
M 287.95 153
Q 287.5052734375 153.433984375 287.5 154.05
L 287.5 160.05
Q 287.5052734375 160.666015625 287.95 161.1 288.383984375 161.5447265625 289 161.55 289.616015625 161.5447265625 290.05 161.1 290.4947265625 160.666015625 290.5 160.05
L 290.5 154.05
Q 290.4947265625 153.433984375 290.05 153 289.616015625 152.5552734375 289 152.55 288.383984375 152.5552734375 287.95 153
M 287.95 141
Q 287.5052734375 141.433984375 287.5 142.05
L 287.5 148.05
Q 287.5052734375 148.666015625 287.95 149.1 288.383984375 149.5447265625 289 149.55 289.616015625 149.5447265625 290.05 149.1 290.4947265625 148.666015625 290.5 148.05
L 290.5 142.05
Q 290.4947265625 141.433984375 290.05 141 289.616015625 140.5552734375 289 140.55 288.383984375 140.5552734375 287.95 141
M 290.05 129
Q 289.616015625 128.5552734375 289 128.55 288.383984375 128.5552734375 287.95 129 287.5052734375 129.433984375 287.5 130.05
L 287.5 136.05
Q 287.5052734375 136.666015625 287.95 137.1 288.383984375 137.5447265625 289 137.55 289.616015625 137.5447265625 290.05 137.1 290.4947265625 136.666015625 290.5 136.05
L 290.5 130.05
Q 290.4947265625 129.433984375 290.05 129
M 290.5 118.05
Q 290.4947265625 117.433984375 290.05 117 289.616015625 116.5552734375 289 116.55 288.383984375 116.5552734375 287.95 117 287.5052734375 117.433984375 287.5 118.05
L 287.5 124.05
Q 287.5052734375 124.666015625 287.95 125.1 288.383984375 125.5447265625 289 125.55 289.616015625 125.5447265625 290.05 125.1 290.4947265625 124.666015625 290.5 124.05
L 290.5 118.05
M 287.95 105
Q 287.5052734375 105.433984375 287.5 106.05
L 287.5 112.05
Q 287.5052734375 112.666015625 287.95 113.1 288.383984375 113.5447265625 289 113.55 289.616015625 113.5447265625 290.05 113.1 290.4947265625 112.666015625 290.5 112.05
L 290.5 106.05
Q 290.4947265625 105.433984375 290.05 105 289.616015625 104.5552734375 289 104.55 288.383984375 104.5552734375 287.95 105
M 164.05 9
Q 163.616015625 8.5552734375 163 8.55
L 157 8.55
Q 156.383984375 8.5552734375 155.95 9 155.5052734375 9.433984375 155.5 10.05 155.5052734375 10.666015625 155.95 11.1 156.383984375 11.5447265625 157 11.55
L 163 11.55
Q 163.616015625 11.5447265625 164.05 11.1 164.4947265625 10.666015625 164.5 10.05 164.4947265625 9.433984375 164.05 9
M 175 11.55
Q 175.616015625 11.5447265625 176.05 11.1 176.4947265625 10.666015625 176.5 10.05 176.4947265625 9.433984375 176.05 9 175.616015625 8.5552734375 175 8.55
L 169 8.55
Q 168.383984375 8.5552734375 167.95 9 167.5052734375 9.433984375 167.5 10.05 167.5052734375 10.666015625 167.95 11.1 168.383984375 11.5447265625 169 11.55
L 175 11.55
M 188.5 10.05
Q 188.4947265625 9.433984375 188.05 9 187.616015625 8.5552734375 187 8.55
L 181 8.55
Q 180.383984375 8.5552734375 179.95 9 179.5052734375 9.433984375 179.5 10.05 179.5052734375 10.666015625 179.95 11.1 180.383984375 11.5447265625 181 11.55
L 187 11.55
Q 187.616015625 11.5447265625 188.05 11.1 188.4947265625 10.666015625 188.5 10.05
M 193 11.55
L 199 11.55
Q 199.616015625 11.5447265625 200.05 11.1 200.4947265625 10.666015625 200.5 10.05 200.4947265625 9.433984375 200.05 9 199.616015625 8.5552734375 199 8.55
L 193 8.55
Q 192.383984375 8.5552734375 191.95 9 191.5052734375 9.433984375 191.5 10.05 191.5052734375 10.666015625 191.95 11.1 192.383984375 11.5447265625 193 11.55
M 203.95 11.1
Q 204.383984375 11.5447265625 205 11.55
L 211 11.55
Q 211.616015625 11.5447265625 212.05 11.1 212.4947265625 10.666015625 212.5 10.05 212.4947265625 9.433984375 212.05 9 211.616015625 8.5552734375 211 8.55
L 205 8.55
Q 204.383984375 8.5552734375 203.95 9 203.5052734375 9.433984375 203.5 10.05 203.5052734375 10.666015625 203.95 11.1
M 224.5 10.05
Q 224.4947265625 9.433984375 224.05 9 223.616015625 8.5552734375 223 8.55
L 217 8.55
Q 216.383984375 8.5552734375 215.95 9 215.5052734375 9.433984375 215.5 10.05 215.5052734375 10.666015625 215.95 11.1 216.383984375 11.5447265625 217 11.55
L 223 11.55
Q 223.616015625 11.5447265625 224.05 11.1 224.4947265625 10.666015625 224.5 10.05
M 235 11.55
Q 235.616015625 11.5447265625 236.05 11.1 236.4947265625 10.666015625 236.5 10.05 236.4947265625 9.433984375 236.05 9 235.616015625 8.5552734375 235 8.55
L 229 8.55
Q 228.383984375 8.5552734375 227.95 9 227.5052734375 9.433984375 227.5 10.05 227.5052734375 10.666015625 227.95 11.1 228.383984375 11.5447265625 229 11.55
L 235 11.55
M 287.95 93
Q 287.5052734375 93.433984375 287.5 94.05
L 287.5 100.05
Q 287.5052734375 100.666015625 287.95 101.1 288.383984375 101.5447265625 289 101.55 289.616015625 101.5447265625 290.05 101.1 290.4947265625 100.666015625 290.5 100.05
L 290.5 94.05
Q 290.4947265625 93.433984375 290.05 93 289.616015625 92.5552734375 289 92.55 288.383984375 92.5552734375 287.95 93
M 287.95 81
Q 287.5052734375 81.433984375 287.5 82.05
L 287.5 88.05
Q 287.5052734375 88.666015625 287.95 89.1 288.383984375 89.5447265625 289 89.55 289.616015625 89.5447265625 290.05 89.1 290.4947265625 88.666015625 290.5 88.05
L 290.5 82.05
Q 290.4947265625 81.433984375 290.05 81 289.616015625 80.5552734375 289 80.55 288.383984375 80.5552734375 287.95 81
M 290.5 70.05
Q 290.4947265625 69.433984375 290.05 69 289.616015625 68.5552734375 289 68.55 288.383984375 68.5552734375 287.95 69 287.5052734375 69.433984375 287.5 70.05
L 287.5 76.05
Q 287.5052734375 76.666015625 287.95 77.1 288.383984375 77.5447265625 289 77.55 289.616015625 77.5447265625 290.05 77.1 290.4947265625 76.666015625 290.5 76.05
L 290.5 70.05
M 287.95 57
Q 287.5052734375 57.433984375 287.5 58.05
L 287.5 64.05
Q 287.5052734375 64.666015625 287.95 65.1 288.383984375 65.5447265625 289 65.55 289.616015625 65.5447265625 290.05 65.1 290.4947265625 64.666015625 290.5 64.05
L 290.5 58.05
Q 290.4947265625 57.433984375 290.05 57 289.616015625 56.5552734375 289 56.55 288.383984375 56.5552734375 287.95 57
M 248.05 9
Q 247.616015625 8.5552734375 247 8.55
L 241 8.55
Q 240.383984375 8.5552734375 239.95 9 239.5052734375 9.433984375 239.5 10.05 239.5052734375 10.666015625 239.95 11.1 240.383984375 11.5447265625 241 11.55
L 247 11.55
Q 247.616015625 11.5447265625 248.05 11.1 248.4947265625 10.666015625 248.5 10.05 248.4947265625 9.433984375 248.05 9
M 259 11.55
Q 259.616015625 11.5447265625 260.05 11.1 260.4947265625 10.666015625 260.5 10.05 260.4947265625 9.433984375 260.05 9 259.616015625 8.5552734375 259 8.55
L 253 8.55
Q 252.383984375 8.5552734375 251.95 9 251.5052734375 9.433984375 251.5 10.05 251.5052734375 10.666015625 251.95 11.1 252.383984375 11.5447265625 253 11.55
L 259 11.55
M 263.95 11.1
Q 264.383984375 11.5447265625 265 11.55
L 271 11.55
Q 271.616015625 11.5447265625 272.05 11.1 272.4947265625 10.666015625 272.5 10.05 272.4947265625 9.433984375 272.05 9 271.616015625 8.5552734375 271 8.55
L 265 8.55
Q 264.383984375 8.5552734375 263.95 9 263.5052734375 9.433984375 263.5 10.05 263.5052734375 10.666015625 263.95 11.1
M 287.95 45
Q 287.5052734375 45.433984375 287.5 46.05
L 287.5 52.05
Q 287.5052734375 52.666015625 287.95 53.1 288.383984375 53.5447265625 289 53.55 289.616015625 53.5447265625 290.05 53.1 290.4947265625 52.666015625 290.5 52.05
L 290.5 46.05
Q 290.4947265625 45.433984375 290.05 45 289.616015625 44.5552734375 289 44.55 288.383984375 44.5552734375 287.95 45
M 287.95 33
Q 287.5052734375 33.433984375 287.5 34.05
L 287.5 40.05
Q 287.5052734375 40.666015625 287.95 41.1 288.383984375 41.5447265625 289 41.55 289.616015625 41.5447265625 290.05 41.1 290.4947265625 40.666015625 290.5 40.05
L 290.5 34.05
Q 290.4947265625 33.433984375 290.05 33 289.616015625 32.5552734375 289 32.55 288.383984375 32.5552734375 287.95 33
M 290.5 22.05
Q 290.4947265625 21.433984375 290.05 21 289.616015625 20.5552734375 289 20.55 288.383984375 20.5552734375 287.95 21 287.5052734375 21.433984375 287.5 22.05
L 287.5 28.05
Q 287.5052734375 28.666015625 287.95 29.1 288.383984375 29.5447265625 289 29.55 289.616015625 29.5447265625 290.05 29.1 290.4947265625 28.666015625 290.5 28.05
L 290.5 22.05
M 287.95 9
Q 287.5052734375 9.433984375 287.5 10.05
L 287.5 16.05
Q 287.5052734375 16.666015625 287.95 17.1 288.383984375 17.5447265625 289 17.55 289.616015625 17.5447265625 290.05 17.1 290.4947265625 16.666015625 290.5 16.05
L 290.5 10.05
Q 290.4947265625 9.433984375 290.05 9 289.616015625 8.5552734375 289 8.55 288.383984375 8.5552734375 287.95 9
M 284.5 10.05
Q 284.4947265625 9.433984375 284.05 9 283.616015625 8.5552734375 283 8.55
L 277 8.55
Q 276.383984375 8.5552734375 275.95 9 275.5052734375 9.433984375 275.5 10.05 275.5052734375 10.666015625 275.95 11.1 276.383984375 11.5447265625 277 11.55
L 283 11.55
Q 283.616015625 11.5447265625 284.05 11.1 284.4947265625 10.666015625 284.5 10.05 Z"/>
</g>

<g id="Layer1_4_FILL">
<path fill="#FFFFFF" stroke="none" d="
M 521 53.05
L 521 23.05 463 23.05 463 53.05 521 53.05 Z"/>
</g>

<g id="socket_0_Layer0_0_FILL">
<path fill="#999999" stroke="none" d="
M 63.35 85
L 0 85 0 101.95 63.35 101.95 63.35 85
M 63.35 34.15
L 63.35 17.2 0 17.2 0 34.15 63.35 34.15 Z"/>

<path fill="#666666" stroke="none" d="
M 189.4 65.1
Q 190 62.45 190.4 59.65 190.15 56.85 189.4 54.2 189.35 54 189.3 53.85 181.75 28.45 157.2 17.15 115.95 -1.95 70.35 0.25
L 63.35 0.25 63.35 17.2 63.35 34.15 63.35 85 63.35 101.95 63.35 119.1 70.35 119.1
Q 96.9 120.05 122.7 114.3 140.75 110.25 157.4 102.6 183.5 90.7 189.4 65.1 Z"/>
</g>

<path id="Layer0_0_1_STROKES" stroke="#4C6C7F" stroke-width="3" stroke-linejoin="miter" stroke-linecap="square" stroke-miterlimit="3" fill="none" d="
M 154.15 54.25
L 195.15 54.2 195.15 204.2 277.15 204.15"/>
</defs>

<g transform="matrix( 1, 0, 0, 1, -10,0) ">
<use xlink:href="#Layer1_0_STROKES_1_FILL"/>
</g>

<g transform="matrix( 1, 0, 0, 1, 17,358) ">
<clipPath id="Mask_Mask_1">
<rect x="-2" y="-2" width="480" height="25.2" fill="#FFFFFF" stroke="none"/>
</clipPath>

<text clip-path="url(#Mask_Mask_1)" writing-mode="lr"><tspan x="135" y="17.4" baseline-shift="0%" font-family="Lucida Grande" font-size="18" fill="#4C6C7F" xml:space="preserve">Included in .app bundle</tspan></text>
</g>

<g transform="matrix( 1, 0, 0, 1, 496,0) ">
<use xlink:href="#Layer1_2_STROKES_1_FILL"/>
</g>

<g transform="matrix( 1, 0, 0, 1, 523,358) ">
<clipPath id="Mask_Mask_2">
<rect x="-2" y="-2" width="263.95" height="25.2" fill="#FFFFFF" stroke="none"/>
</clipPath>

<text clip-path="url(#Mask_Mask_2)" writing-mode="lr"><tspan x="37.05" y="17.4" baseline-shift="0%" font-family="Lucida Grande" font-size="18" fill="#B27D7D" xml:space="preserve">Environment-specific</tspan></text>
</g>

<g transform="matrix( 1.4310302734375, 0, 0, 1, -199.55,-1) ">
<use xlink:href="#Layer1_4_FILL"/>
</g>

<g transform="matrix( 1, 0, 0, 1, 0,0) ">
<use xlink:href="#Layer0_0_1_STROKES"/>
</g>

<g transform="matrix( 1, 0, 0, 1, 298,174) ">
<use xlink:href="#Bitmap_2"/>
</g>

<g transform="matrix( 1, 0, 0, 1, 20,26) ">
<use xlink:href="#Bitmap_3"/>
</g>

<g transform="matrix( 1, 0, 0, 1, 26,155) ">
<clipPath id="Mask_Mask_3">
<rect x="-2" y="-2" width="144.6" height="26.5" fill="#FFFFFF" stroke="none"/>
</clipPath>

<text clip-path="url(#Mask_Mask_3)" writing-mode="lr"><tspan x="0" y="18" baseline-shift="0%" font-family="Monaco" font-size="18" fill="#000000" xml:space="preserve">juicysfplugin</tspan></text>
</g>

<g transform="matrix( 1, 0, 0, 1, 152.6,24.75) ">
<clipPath id="Mask_Mask_4">
<rect x="-2" y="-2" width="490.2" height="26.5" fill="#FFFFFF" stroke="none"/>
</clipPath>

<text clip-path="url(#Mask_Mask_4)" writing-mode="lr"><tspan x="0" y="18" baseline-shift="0%" font-family="Monaco" font-size="18" fill="#000000" xml:space="preserve">@loader_path/../lib/libfluidsynth.1.7.2.dylib</tspan></text>
</g>

<g transform="matrix( -0.0625, 0, 0, -0.0625, 289.05,207.9) ">
<g transform="matrix( 1, 0, 0, 1, 0,0) ">
<use xlink:href="#socket_0_Layer0_0_FILL"/>
</g>
</g>

<g transform="matrix( 1, 0, 0, 1, 301.15,303.55) ">
<clipPath id="Mask_Mask_5">
<rect x="-2" y="-2" width="144.6" height="26.5" fill="#FFFFFF" stroke="none"/>
</clipPath>

<text clip-path="url(#Mask_Mask_5)" writing-mode="lr"><tspan x="0" y="18" baseline-shift="0%" font-family="Monaco" font-size="18" fill="#000000" xml:space="preserve">libfluidsynth</tspan></text>
</g>
</svg>
