
<svg xmlns="http://www.w3.org/2000/svg" version="1.1" xmlns:xlink="http://www.w3.org/1999/xlink" preserveAspectRatio="none" x="0px" y="0px" width="800px" height="400px" viewBox="0 0 800 400">
<defs>
<image id="Bitmap_2" x="0" y="0" width="128" height="128" xlink:href="./images/Bitmap_2.png"/>

<image id="Bitmap_3" x="0" y="0" width="128" height="128" xlink:href="./images/Bitmap_3.png"/>

<g id="Layer1_0_FILL">
<path fill="#FFFFFF" stroke="none" d="
M 521 53.05
L 521 23.05 463 23.05 463 53.05 521 53.05 Z"/>
</g>

<g id="Layer1_1_FILL">
<path fill="#FFFFFF" stroke="none" d="
M 521 53.05
L 521 23.05 463 23.05 463 53.05 521 53.05 Z"/>
</g>

<g id="Layer1_2_FILL">
<path fill="#FFFFFF" stroke="none" d="
M 521 53.05
L 521 23.05 463 23.05 463 53.05 521 53.05 Z"/>
</g>

<g id="Layer1_3_STROKES_1_FILL">
<path fill="#4C6C7F" stroke="none" d="
M 291 351.55
Q 291.616015625 351.5447265625 292.05 351.1 292.4947265625 350.666015625 292.5 350.05 292.4947265625 349.433984375 292.05 349 291.616015625 348.5552734375 291 348.55
L 285 348.55
Q 284.383984375 348.5552734375 283.95 349 283.5052734375 349.433984375 283.5 350.05 283.5052734375 350.666015625 283.95 351.1 284.383984375 351.5447265625 285 351.55
L 291 351.55
M 304.05 351.1
Q 304.4947265625 350.666015625 304.5 350.05 304.4947265625 349.433984375 304.05 349 303.616015625 348.5552734375 303 348.55
L 297 348.55
Q 296.383984375 348.5552734375 295.95 349 295.5052734375 349.433984375 295.5 350.05 295.5052734375 350.666015625 295.95 351.1 296.383984375 351.5447265625 297 351.55
L 303 351.55
Q 303.616015625 351.5447265625 304.05 351.1
M 316.05 349
Q 315.616015625 348.5552734375 315 348.55
L 309 348.55
Q 308.383984375 348.5552734375 307.95 349 307.5052734375 349.433984375 307.5 350.05 307.5052734375 350.666015625 307.95 351.1 308.383984375 351.5447265625 309 351.55
L 315 351.55
Q 315.616015625 351.5447265625 316.05 351.1 316.4947265625 350.666015625 316.5 350.05 316.4947265625 349.433984375 316.05 349
M 256.05 349
Q 255.616015625 348.5552734375 255 348.55
L 249 348.55
Q 248.383984375 348.5552734375 247.95 349 247.5052734375 349.433984375 247.5 350.05 247.5052734375 350.666015625 247.95 351.1 248.383984375 351.5447265625 249 351.55
L 255 351.55
Q 255.616015625 351.5447265625 256.05 351.1 256.4947265625 350.666015625 256.5 350.05 256.4947265625 349.433984375 256.05 349
M 267 351.55
Q 267.616015625 351.5447265625 268.05 351.1 268.4947265625 350.666015625 268.5 350.05 268.4947265625 349.433984375 268.05 349 267.616015625 348.5552734375 267 348.55
L 261 348.55
Q 260.383984375 348.5552734375 259.95 349 259.5052734375 349.433984375 259.5 350.05 259.5052734375 350.666015625 259.95 351.1 260.383984375 351.5447265625 261 351.55
L 267 351.55
M 280.05 349
Q 279.616015625 348.5552734375 279 348.55
L 273 348.55
Q 272.383984375 348.5552734375 271.95 349 271.5052734375 349.433984375 271.5 350.05 271.5052734375 350.666015625 271.95 351.1 272.383984375 351.5447265625 273 351.55
L 279 351.55
Q 279.616015625 351.5447265625 280.05 351.1 280.4947265625 350.666015625 280.5 350.05 280.4947265625 349.433984375 280.05 349
M 220.05 349
Q 219.616015625 348.5552734375 219 348.55
L 213 348.55
Q 212.383984375 348.5552734375 211.95 349 211.5052734375 349.433984375 211.5 350.05 211.5052734375 350.666015625 211.95 351.1 212.383984375 351.5447265625 213 351.55
L 219 351.55
Q 219.616015625 351.5447265625 220.05 351.1 220.4947265625 350.666015625 220.5 350.05 220.4947265625 349.433984375 220.05 349
M 231 351.55
Q 231.616015625 351.5447265625 232.05 351.1 232.4947265625 350.666015625 232.5 350.05 232.4947265625 349.433984375 232.05 349 231.616015625 348.5552734375 231 348.55
L 225 348.55
Q 224.383984375 348.5552734375 223.95 349 223.5052734375 349.433984375 223.5 350.05 223.5052734375 350.666015625 223.95 351.1 224.383984375 351.5447265625 225 351.55
L 231 351.55
M 235.95 351.1
Q 236.383984375 351.5447265625 237 351.55
L 243 351.55
Q 243.616015625 351.5447265625 244.05 351.1 244.4947265625 350.666015625 244.5 350.05 244.4947265625 349.433984375 244.05 349 243.616015625 348.5552734375 243 348.55
L 237 348.55
Q 236.383984375 348.5552734375 235.95 349 235.5052734375 349.433984375 235.5 350.05 235.5052734375 350.666015625 235.95 351.1
M 172.05 349
Q 171.616015625 348.5552734375 171 348.55
L 165 348.55
Q 164.383984375 348.5552734375 163.95 349 163.5052734375 349.433984375 163.5 350.05 163.5052734375 350.666015625 163.95 351.1 164.383984375 351.5447265625 165 351.55
L 171 351.55
Q 171.616015625 351.5447265625 172.05 351.1 172.4947265625 350.666015625 172.5 350.05 172.4947265625 349.433984375 172.05 349
M 183 351.55
Q 183.616015625 351.5447265625 184.05 351.1 184.4947265625 350.666015625 184.5 350.05 184.4947265625 349.433984375 184.05 349 183.616015625 348.5552734375 183 348.55
L 177 348.55
Q 176.383984375 348.5552734375 175.95 349 175.5052734375 349.433984375 175.5 350.05 175.5052734375 350.666015625 175.95 351.1 176.383984375 351.5447265625 177 351.55
L 183 351.55
M 196.05 349
Q 195.616015625 348.5552734375 195 348.55
L 189 348.55
Q 188.383984375 348.5552734375 187.95 349 187.5052734375 349.433984375 187.5 350.05 187.5052734375 350.666015625 187.95 351.1 188.383984375 351.5447265625 189 351.55
L 195 351.55
Q 195.616015625 351.5447265625 196.05 351.1 196.4947265625 350.666015625 196.5 350.05 196.4947265625 349.433984375 196.05 349
M 199.95 351.1
Q 200.383984375 351.5447265625 201 351.55
L 207 351.55
Q 207.616015625 351.5447265625 208.05 351.1 208.4947265625 350.666015625 208.5 350.05 208.4947265625 349.433984375 208.05 349 207.616015625 348.5552734375 207 348.55
L 201 348.55
Q 200.383984375 348.5552734375 199.95 349 199.5052734375 349.433984375 199.5 350.05 199.5052734375 350.666015625 199.95 351.1
M 136.05 349
Q 135.616015625 348.5552734375 135 348.55
L 129 348.55
Q 128.383984375 348.5552734375 127.95 349 127.5052734375 349.433984375 127.5 350.05 127.5052734375 350.666015625 127.95 351.1 128.383984375 351.5447265625 129 351.55
L 135 351.55
Q 135.616015625 351.5447265625 136.05 351.1 136.4947265625 350.666015625 136.5 350.05 136.4947265625 349.433984375 136.05 349
M 147 351.55
Q 147.616015625 351.5447265625 148.05 351.1 148.4947265625 350.666015625 148.5 350.05 148.4947265625 349.433984375 148.05 349 147.616015625 348.5552734375 147 348.55
L 141 348.55
Q 140.383984375 348.5552734375 139.95 349 139.5052734375 349.433984375 139.5 350.05 139.5052734375 350.666015625 139.95 351.1 140.383984375 351.5447265625 141 351.55
L 147 351.55
M 151.95 351.1
Q 152.383984375 351.5447265625 153 351.55
L 159 351.55
Q 159.616015625 351.5447265625 160.05 351.1 160.4947265625 350.666015625 160.5 350.05 160.4947265625 349.433984375 160.05 349 159.616015625 348.5552734375 159 348.55
L 153 348.55
Q 152.383984375 348.5552734375 151.95 349 151.5052734375 349.433984375 151.5 350.05 151.5052734375 350.666015625 151.95 351.1
M 99 351.55
Q 99.616015625 351.5447265625 100.05 351.1 100.4947265625 350.666015625 100.5 350.05 100.4947265625 349.433984375 100.05 349 99.616015625 348.5552734375 99 348.55
L 93 348.55
Q 92.383984375 348.5552734375 91.95 349 91.5052734375 349.433984375 91.5 350.05 91.5052734375 350.666015625 91.95 351.1 92.383984375 351.5447265625 93 351.55
L 99 351.55
M 112.5 350.05
Q 112.4947265625 349.433984375 112.05 349 111.616015625 348.5552734375 111 348.55
L 105 348.55
Q 104.383984375 348.5552734375 103.95 349 103.5052734375 349.433984375 103.5 350.05 103.5052734375 350.666015625 103.95 351.1 104.383984375 351.5447265625 105 351.55
L 111 351.55
Q 111.616015625 351.5447265625 112.05 351.1 112.4947265625 350.666015625 112.5 350.05
M 115.95 351.1
Q 116.383984375 351.5447265625 117 351.55
L 123 351.55
Q 123.616015625 351.5447265625 124.05 351.1 124.4947265625 350.666015625 124.5 350.05 124.4947265625 349.433984375 124.05 349 123.616015625 348.5552734375 123 348.55
L 117 348.55
Q 116.383984375 348.5552734375 115.95 349 115.5052734375 349.433984375 115.5 350.05 115.5052734375 350.666015625 115.95 351.1
M 52.05 349
Q 51.616015625 348.5552734375 51 348.55
L 45 348.55
Q 44.383984375 348.5552734375 43.95 349 43.5052734375 349.433984375 43.5 350.05 43.5052734375 350.666015625 43.95 351.1 44.383984375 351.5447265625 45 351.55
L 51 351.55
Q 51.616015625 351.5447265625 52.05 351.1 52.4947265625 350.666015625 52.5 350.05 52.4947265625 349.433984375 52.05 349
M 63 351.55
Q 63.616015625 351.5447265625 64.05 351.1 64.4947265625 350.666015625 64.5 350.05 64.4947265625 349.433984375 64.05 349 63.616015625 348.5552734375 63 348.55
L 57 348.55
Q 56.383984375 348.5552734375 55.95 349 55.5052734375 349.433984375 55.5 350.05 55.5052734375 350.666015625 55.95 351.1 56.383984375 351.5447265625 57 351.55
L 63 351.55
M 76.05 349
Q 75.616015625 348.5552734375 75 348.55
L 69 348.55
Q 68.383984375 348.5552734375 67.95 349 67.5052734375 349.433984375 67.5 350.05 67.5052734375 350.666015625 67.95 351.1 68.383984375 351.5447265625 69 351.55
L 75 351.55
Q 75.616015625 351.5447265625 76.05 351.1 76.4947265625 350.666015625 76.5 350.05 76.4947265625 349.433984375 76.05 349
M 79.5 350.05
Q 79.5052734375 350.666015625 79.95 351.1 80.383984375 351.5447265625 81 351.55
L 87 351.55
Q 87.616015625 351.5447265625 88.05 351.1 88.4947265625 350.666015625 88.5 350.05 88.4947265625 349.433984375 88.05 349 87.616015625 348.5552734375 87 348.55
L 81 348.55
Q 80.383984375 348.5552734375 79.95 349 79.5052734375 349.433984375 79.5 350.05
M 31.95 351.1
Q 32.383984375 351.5447265625 33 351.55
L 39 351.55
Q 39.616015625 351.5447265625 40.05 351.1 40.4947265625 350.666015625 40.5 350.05 40.4947265625 349.433984375 40.05 349 39.616015625 348.5552734375 39 348.55
L 33 348.55
Q 32.383984375 348.5552734375 31.95 349 31.5052734375 349.433984375 31.5 350.05 31.5052734375 350.666015625 31.95 351.1
M 23.95 343
Q 23.5052734375 343.433984375 23.5 344.05
L 23.5 350.05
Q 23.5052734375 350.666015625 23.95 351.1 24.383984375 351.5447265625 25 351.55
L 27 351.55
Q 27.616015625 351.5447265625 28.05 351.1 28.4947265625 350.666015625 28.5 350.05 28.4947265625 349.433984375 28.05 349 27.616015625 348.5552734375 27 348.55
L 26.5 348.55 26.5 344.05
Q 26.4947265625 343.433984375 26.05 343 25.616015625 342.5552734375 25 342.55 24.383984375 342.5552734375 23.95 343
M 26.5 332.05
Q 26.4947265625 331.433984375 26.05 331 25.616015625 330.5552734375 25 330.55 24.383984375 330.5552734375 23.95 331 23.5052734375 331.433984375 23.5 332.05
L 23.5 338.05
Q 23.5052734375 338.666015625 23.95 339.1 24.383984375 339.5447265625 25 339.55 25.616015625 339.5447265625 26.05 339.1 26.4947265625 338.666015625 26.5 338.05
L 26.5 332.05
M 25 318.55
Q 24.383984375 318.5552734375 23.95 319 23.5052734375 319.433984375 23.5 320.05
L 23.5 326.05
Q 23.5052734375 326.666015625 23.95 327.1 24.383984375 327.5447265625 25 327.55 25.616015625 327.5447265625 26.05 327.1 26.4947265625 326.666015625 26.5 326.05
L 26.5 320.05
Q 26.4947265625 319.433984375 26.05 319 25.616015625 318.5552734375 25 318.55
M 26.5 308.05
Q 26.4947265625 307.433984375 26.05 307 25.616015625 306.5552734375 25 306.55 24.383984375 306.5552734375 23.95 307 23.5052734375 307.433984375 23.5 308.05
L 23.5 314.05
Q 23.5052734375 314.666015625 23.95 315.1 24.383984375 315.5447265625 25 315.55 25.616015625 315.5447265625 26.05 315.1 26.4947265625 314.666015625 26.5 314.05
L 26.5 308.05
M 23.95 295
Q 23.5052734375 295.433984375 23.5 296.05
L 23.5 302.05
Q 23.5052734375 302.666015625 23.95 303.1 24.383984375 303.5447265625 25 303.55 25.616015625 303.5447265625 26.05 303.1 26.4947265625 302.666015625 26.5 302.05
L 26.5 296.05
Q 26.4947265625 295.433984375 26.05 295 25.616015625 294.5552734375 25 294.55 24.383984375 294.5552734375 23.95 295
M 26.5 284.05
Q 26.4947265625 283.433984375 26.05 283 25.616015625 282.5552734375 25 282.55 24.383984375 282.5552734375 23.95 283 23.5052734375 283.433984375 23.5 284.05
L 23.5 290.05
Q 23.5052734375 290.666015625 23.95 291.1 24.383984375 291.5447265625 25 291.55 25.616015625 291.5447265625 26.05 291.1 26.4947265625 290.666015625 26.5 290.05
L 26.5 284.05
M 25 270.55
Q 24.383984375 270.5552734375 23.95 271 23.5052734375 271.433984375 23.5 272.05
L 23.5 278.05
Q 23.5052734375 278.666015625 23.95 279.1 24.383984375 279.5447265625 25 279.55 25.616015625 279.5447265625 26.05 279.1 26.4947265625 278.666015625 26.5 278.05
L 26.5 272.05
Q 26.4947265625 271.433984375 26.05 271 25.616015625 270.5552734375 25 270.55
M 26.05 259
Q 25.616015625 258.5552734375 25 258.55 24.383984375 258.5552734375 23.95 259 23.5052734375 259.433984375 23.5 260.05
L 23.5 266.05
Q 23.5052734375 266.666015625 23.95 267.1 24.383984375 267.5447265625 25 267.55 25.616015625 267.5447265625 26.05 267.1 26.4947265625 266.666015625 26.5 266.05
L 26.5 260.05
Q 26.4947265625 259.433984375 26.05 259
M 25 246.55
Q 24.383984375 246.5552734375 23.95 247 23.5052734375 247.433984375 23.5 248.05
L 23.5 254.05
Q 23.5052734375 254.666015625 23.95 255.1 24.383984375 255.5447265625 25 255.55 25.616015625 255.5447265625 26.05 255.1 26.4947265625 254.666015625 26.5 254.05
L 26.5 248.05
Q 26.4947265625 247.433984375 26.05 247 25.616015625 246.5552734375 25 246.55
M 25 234.55
Q 24.383984375 234.5552734375 23.95 235 23.5052734375 235.433984375 23.5 236.05
L 23.5 242.05
Q 23.5052734375 242.666015625 23.95 243.1 24.383984375 243.5447265625 25 243.55 25.616015625 243.5447265625 26.05 243.1 26.4947265625 242.666015625 26.5 242.05
L 26.5 236.05
Q 26.4947265625 235.433984375 26.05 235 25.616015625 234.5552734375 25 234.55
M 26.5 224.05
Q 26.4947265625 223.433984375 26.05 223 25.616015625 222.5552734375 25 222.55 24.383984375 222.5552734375 23.95 223 23.5052734375 223.433984375 23.5 224.05
L 23.5 230.05
Q 23.5052734375 230.666015625 23.95 231.1 24.383984375 231.5447265625 25 231.55 25.616015625 231.5447265625 26.05 231.1 26.4947265625 230.666015625 26.5 230.05
L 26.5 224.05
M 26.5 212.05
Q 26.4947265625 211.433984375 26.05 211 25.616015625 210.5552734375 25 210.55 24.383984375 210.5552734375 23.95 211 23.5052734375 211.433984375 23.5 212.05
L 23.5 218.05
Q 23.5052734375 218.666015625 23.95 219.1 24.383984375 219.5447265625 25 219.55 25.616015625 219.5447265625 26.05 219.1 26.4947265625 218.666015625 26.5 218.05
L 26.5 212.05
M 26.5 200.05
Q 26.4947265625 199.433984375 26.05 199 25.616015625 198.5552734375 25 198.55 24.383984375 198.5552734375 23.95 199 23.5052734375 199.433984375 23.5 200.05
L 23.5 206.05
Q 23.5052734375 206.666015625 23.95 207.1 24.383984375 207.5447265625 25 207.55 25.616015625 207.5447265625 26.05 207.1 26.4947265625 206.666015625 26.5 206.05
L 26.5 200.05
M 26.5 188.05
Q 26.4947265625 187.433984375 26.05 187 25.616015625 186.5552734375 25 186.55 24.383984375 186.5552734375 23.95 187 23.5052734375 187.433984375 23.5 188.05
L 23.5 194.05
Q 23.5052734375 194.666015625 23.95 195.1 24.383984375 195.5447265625 25 195.55 25.616015625 195.5447265625 26.05 195.1 26.4947265625 194.666015625 26.5 194.05
L 26.5 188.05
M 26.5 176.05
Q 26.4947265625 175.433984375 26.05 175 25.616015625 174.5552734375 25 174.55 24.383984375 174.5552734375 23.95 175 23.5052734375 175.433984375 23.5 176.05
L 23.5 182.05
Q 23.5052734375 182.666015625 23.95 183.1 24.383984375 183.5447265625 25 183.55 25.616015625 183.5447265625 26.05 183.1 26.4947265625 182.666015625 26.5 182.05
L 26.5 176.05
M 26.5 164.05
Q 26.4947265625 163.433984375 26.05 163 25.616015625 162.5552734375 25 162.55 24.383984375 162.5552734375 23.95 163 23.5052734375 163.433984375 23.5 164.05
L 23.5 170.05
Q 23.5052734375 170.666015625 23.95 171.1 24.383984375 171.5447265625 25 171.55 25.616015625 171.5447265625 26.05 171.1 26.4947265625 170.666015625 26.5 170.05
L 26.5 164.05
M 26.5 152.05
Q 26.4947265625 151.433984375 26.05 151 25.616015625 150.5552734375 25 150.55 24.383984375 150.5552734375 23.95 151 23.5052734375 151.433984375 23.5 152.05
L 23.5 158.05
Q 23.5052734375 158.666015625 23.95 159.1 24.383984375 159.5447265625 25 159.55 25.616015625 159.5447265625 26.05 159.1 26.4947265625 158.666015625 26.5 158.05
L 26.5 152.05
M 26.5 140.05
Q 26.4947265625 139.433984375 26.05 139 25.616015625 138.5552734375 25 138.55 24.383984375 138.5552734375 23.95 139 23.5052734375 139.433984375 23.5 140.05
L 23.5 146.05
Q 23.5052734375 146.666015625 23.95 147.1 24.383984375 147.5447265625 25 147.55 25.616015625 147.5447265625 26.05 147.1 26.4947265625 146.666015625 26.5 146.05
L 26.5 140.05
M 26.5 128.05
Q 26.4947265625 127.433984375 26.05 127 25.616015625 126.5552734375 25 126.55 24.383984375 126.5552734375 23.95 127 23.5052734375 127.433984375 23.5 128.05
L 23.5 134.05
Q 23.5052734375 134.666015625 23.95 135.1 24.383984375 135.5447265625 25 135.55 25.616015625 135.5447265625 26.05 135.1 26.4947265625 134.666015625 26.5 134.05
L 26.5 128.05
M 26.5 116.05
Q 26.4947265625 115.433984375 26.05 115 25.616015625 114.5552734375 25 114.55 24.383984375 114.5552734375 23.95 115 23.5052734375 115.433984375 23.5 116.05
L 23.5 122.05
Q 23.5052734375 122.666015625 23.95 123.1 24.383984375 123.5447265625 25 123.55 25.616015625 123.5447265625 26.05 123.1 26.4947265625 122.666015625 26.5 122.05
L 26.5 116.05
M 26.5 104.05
Q 26.4947265625 103.433984375 26.05 103 25.616015625 102.5552734375 25 102.55 24.383984375 102.5552734375 23.95 103 23.5052734375 103.433984375 23.5 104.05
L 23.5 110.05
Q 23.5052734375 110.666015625 23.95 111.1 24.383984375 111.5447265625 25 111.55 25.616015625 111.5447265625 26.05 111.1 26.4947265625 110.666015625 26.5 110.05
L 26.5 104.05
M 23.95 91
Q 23.5052734375 91.433984375 23.5 92.05
L 23.5 98.05
Q 23.5052734375 98.666015625 23.95 99.1 24.383984375 99.5447265625 25 99.55 25.616015625 99.5447265625 26.05 99.1 26.4947265625 98.666015625 26.5 98.05
L 26.5 92.05
Q 26.4947265625 91.433984375 26.05 91 25.616015625 90.5552734375 25 90.55 24.383984375 90.5552734375 23.95 91
M 23.5 80.05
L 23.5 86.05
Q 23.5052734375 86.666015625 23.95 87.1 24.383984375 87.5447265625 25 87.55 25.616015625 87.5447265625 26.05 87.1 26.4947265625 86.666015625 26.5 86.05
L 26.5 80.05
Q 26.4947265625 79.433984375 26.05 79 25.616015625 78.5552734375 25 78.55 24.383984375 78.5552734375 23.95 79 23.5052734375 79.433984375 23.5 80.05
M 26.5 68.05
Q 26.4947265625 67.433984375 26.05 67 25.616015625 66.5552734375 25 66.55 24.383984375 66.5552734375 23.95 67 23.5052734375 67.433984375 23.5 68.05
L 23.5 74.05
Q 23.5052734375 74.666015625 23.95 75.1 24.383984375 75.5447265625 25 75.55 25.616015625 75.5447265625 26.05 75.1 26.4947265625 74.666015625 26.5 74.05
L 26.5 68.05
M 26.05 55
Q 25.616015625 54.5552734375 25 54.55 24.383984375 54.5552734375 23.95 55 23.5052734375 55.433984375 23.5 56.05
L 23.5 62.05
Q 23.5052734375 62.666015625 23.95 63.1 24.383984375 63.5447265625 25 63.55 25.616015625 63.5447265625 26.05 63.1 26.4947265625 62.666015625 26.5 62.05
L 26.5 56.05
Q 26.4947265625 55.433984375 26.05 55
M 23.95 43
Q 23.5052734375 43.433984375 23.5 44.05
L 23.5 50.05
Q 23.5052734375 50.666015625 23.95 51.1 24.383984375 51.5447265625 25 51.55 25.616015625 51.5447265625 26.05 51.1 26.4947265625 50.666015625 26.5 50.05
L 26.5 44.05
Q 26.4947265625 43.433984375 26.05 43 25.616015625 42.5552734375 25 42.55 24.383984375 42.5552734375 23.95 43
M 26.5 32.05
Q 26.4947265625 31.433984375 26.05 31 25.616015625 30.5552734375 25 30.55 24.383984375 30.5552734375 23.95 31 23.5052734375 31.433984375 23.5 32.05
L 23.5 38.05
Q 23.5052734375 38.666015625 23.95 39.1 24.383984375 39.5447265625 25 39.55 25.616015625 39.5447265625 26.05 39.1 26.4947265625 38.666015625 26.5 38.05
L 26.5 32.05
M 25 18.55
Q 24.383984375 18.5552734375 23.95 19 23.5052734375 19.433984375 23.5 20.05
L 23.5 26.05
Q 23.5052734375 26.666015625 23.95 27.1 24.383984375 27.5447265625 25 27.55 25.616015625 27.5447265625 26.05 27.1 26.4947265625 26.666015625 26.5 26.05
L 26.5 20.05
Q 26.4947265625 19.433984375 26.05 19 25.616015625 18.5552734375 25 18.55
M 32.05 9
Q 31.616015625 8.5552734375 31 8.55
L 25 8.55
Q 24.383984375 8.5552734375 23.95 9 23.5052734375 9.433984375 23.5 10.05
L 23.5 14.05
Q 23.5052734375 14.666015625 23.95 15.1 24.383984375 15.5447265625 25 15.55 25.616015625 15.5447265625 26.05 15.1 26.4947265625 14.666015625 26.5 14.05
L 26.5 11.55 31 11.55
Q 31.616015625 11.5447265625 32.05 11.1 32.4947265625 10.666015625 32.5 10.05 32.4947265625 9.433984375 32.05 9
M 44.05 9
Q 43.616015625 8.5552734375 43 8.55
L 37 8.55
Q 36.383984375 8.5552734375 35.95 9 35.5052734375 9.433984375 35.5 10.05 35.5052734375 10.666015625 35.95 11.1 36.383984375 11.5447265625 37 11.55
L 43 11.55
Q 43.616015625 11.5447265625 44.05 11.1 44.4947265625 10.666015625 44.5 10.05 44.4947265625 9.433984375 44.05 9
M 55 11.55
Q 55.616015625 11.5447265625 56.05 11.1 56.4947265625 10.666015625 56.5 10.05 56.4947265625 9.433984375 56.05 9 55.616015625 8.5552734375 55 8.55
L 49 8.55
Q 48.383984375 8.5552734375 47.95 9 47.5052734375 9.433984375 47.5 10.05 47.5052734375 10.666015625 47.95 11.1 48.383984375 11.5447265625 49 11.55
L 55 11.55
M 68.5 10.05
Q 68.4947265625 9.433984375 68.05 9 67.616015625 8.5552734375 67 8.55
L 61 8.55
Q 60.383984375 8.5552734375 59.95 9 59.5052734375 9.433984375 59.5 10.05 59.5052734375 10.666015625 59.95 11.1 60.383984375 11.5447265625 61 11.55
L 67 11.55
Q 67.616015625 11.5447265625 68.05 11.1 68.4947265625 10.666015625 68.5 10.05
M 71.5 10.05
Q 71.5052734375 10.666015625 71.95 11.1 72.383984375 11.5447265625 73 11.55
L 79 11.55
Q 79.616015625 11.5447265625 80.05 11.1 80.4947265625 10.666015625 80.5 10.05 80.4947265625 9.433984375 80.05 9 79.616015625 8.5552734375 79 8.55
L 73 8.55
Q 72.383984375 8.5552734375 71.95 9 71.5052734375 9.433984375 71.5 10.05
M 92.05 11.1
Q 92.4947265625 10.666015625 92.5 10.05 92.4947265625 9.433984375 92.05 9 91.616015625 8.5552734375 91 8.55
L 85 8.55
Q 84.383984375 8.5552734375 83.95 9 83.5052734375 9.433984375 83.5 10.05 83.5052734375 10.666015625 83.95 11.1 84.383984375 11.5447265625 85 11.55
L 91 11.55
Q 91.616015625 11.5447265625 92.05 11.1
M 104.5 10.05
Q 104.4947265625 9.433984375 104.05 9 103.616015625 8.5552734375 103 8.55
L 97 8.55
Q 96.383984375 8.5552734375 95.95 9 95.5052734375 9.433984375 95.5 10.05 95.5052734375 10.666015625 95.95 11.1 96.383984375 11.5447265625 97 11.55
L 103 11.55
Q 103.616015625 11.5447265625 104.05 11.1 104.4947265625 10.666015625 104.5 10.05
M 115 11.55
Q 115.616015625 11.5447265625 116.05 11.1 116.4947265625 10.666015625 116.5 10.05 116.4947265625 9.433984375 116.05 9 115.616015625 8.5552734375 115 8.55
L 109 8.55
Q 108.383984375 8.5552734375 107.95 9 107.5052734375 9.433984375 107.5 10.05 107.5052734375 10.666015625 107.95 11.1 108.383984375 11.5447265625 109 11.55
L 115 11.55
M 128.05 9
Q 127.616015625 8.5552734375 127 8.55
L 121 8.55
Q 120.383984375 8.5552734375 119.95 9 119.5052734375 9.433984375 119.5 10.05 119.5052734375 10.666015625 119.95 11.1 120.383984375 11.5447265625 121 11.55
L 127 11.55
Q 127.616015625 11.5447265625 128.05 11.1 128.4947265625 10.666015625 128.5 10.05 128.4947265625 9.433984375 128.05 9
M 139 8.55
L 133 8.55
Q 132.383984375 8.5552734375 131.95 9 131.5052734375 9.433984375 131.5 10.05 131.5052734375 10.666015625 131.95 11.1 132.383984375 11.5447265625 133 11.55
L 139 11.55
Q 139.616015625 11.5447265625 140.05 11.1 140.4947265625 10.666015625 140.5 10.05 140.4947265625 9.433984375 140.05 9 139.616015625 8.5552734375 139 8.55
M 152.05 11.1
Q 152.4947265625 10.666015625 152.5 10.05 152.4947265625 9.433984375 152.05 9 151.616015625 8.5552734375 151 8.55
L 145 8.55
Q 144.383984375 8.5552734375 143.95 9 143.5052734375 9.433984375 143.5 10.05 143.5052734375 10.666015625 143.95 11.1 144.383984375 11.5447265625 145 11.55
L 151 11.55
Q 151.616015625 11.5447265625 152.05 11.1
M 164.05 9
Q 163.616015625 8.5552734375 163 8.55
L 157 8.55
Q 156.383984375 8.5552734375 155.95 9 155.5052734375 9.433984375 155.5 10.05 155.5052734375 10.666015625 155.95 11.1 156.383984375 11.5447265625 157 11.55
L 163 11.55
Q 163.616015625 11.5447265625 164.05 11.1 164.4947265625 10.666015625 164.5 10.05 164.4947265625 9.433984375 164.05 9
M 175 11.55
Q 175.616015625 11.5447265625 176.05 11.1 176.4947265625 10.666015625 176.5 10.05 176.4947265625 9.433984375 176.05 9 175.616015625 8.5552734375 175 8.55
L 169 8.55
Q 168.383984375 8.5552734375 167.95 9 167.5052734375 9.433984375 167.5 10.05 167.5052734375 10.666015625 167.95 11.1 168.383984375 11.5447265625 169 11.55
L 175 11.55
M 188.5 10.05
Q 188.4947265625 9.433984375 188.05 9 187.616015625 8.5552734375 187 8.55
L 181 8.55
Q 180.383984375 8.5552734375 179.95 9 179.5052734375 9.433984375 179.5 10.05 179.5052734375 10.666015625 179.95 11.1 180.383984375 11.5447265625 181 11.55
L 187 11.55
Q 187.616015625 11.5447265625 188.05 11.1 188.4947265625 10.666015625 188.5 10.05
M 193 11.55
L 199 11.55
Q 199.616015625 11.5447265625 200.05 11.1 200.4947265625 10.666015625 200.5 10.05 200.4947265625 9.433984375 200.05 9 199.616015625 8.5552734375 199 8.55
L 193 8.55
Q 192.383984375 8.5552734375 191.95 9 191.5052734375 9.433984375 191.5 10.05 191.5052734375 10.666015625 191.95 11.1 192.383984375 11.5447265625 193 11.55
M 203.95 11.1
Q 204.383984375 11.5447265625 205 11.55
L 211 11.55
Q 211.616015625 11.5447265625 212.05 11.1 212.4947265625 10.666015625 212.5 10.05 212.4947265625 9.433984375 212.05 9 211.616015625 8.5552734375 211 8.55
L 205 8.55
Q 204.383984375 8.5552734375 203.95 9 203.5052734375 9.433984375 203.5 10.05 203.5052734375 10.666015625 203.95 11.1
M 224.5 10.05
Q 224.4947265625 9.433984375 224.05 9 223.616015625 8.5552734375 223 8.55
L 217 8.55
Q 216.383984375 8.5552734375 215.95 9 215.5052734375 9.433984375 215.5 10.05 215.5052734375 10.666015625 215.95 11.1 216.383984375 11.5447265625 217 11.55
L 223 11.55
Q 223.616015625 11.5447265625 224.05 11.1 224.4947265625 10.666015625 224.5 10.05
M 235 11.55
Q 235.616015625 11.5447265625 236.05 11.1 236.4947265625 10.666015625 236.5 10.05 236.4947265625 9.433984375 236.05 9 235.616015625 8.5552734375 235 8.55
L 229 8.55
Q 228.383984375 8.5552734375 227.95 9 227.5052734375 9.433984375 227.5 10.05 227.5052734375 10.666015625 227.95 11.1 228.383984375 11.5447265625 229 11.55
L 235 11.55
M 248.05 9
Q 247.616015625 8.5552734375 247 8.55
L 241 8.55
Q 240.383984375 8.5552734375 239.95 9 239.5052734375 9.433984375 239.5 10.05 239.5052734375 10.666015625 239.95 11.1 240.383984375 11.5447265625 241 11.55
L 247 11.55
Q 247.616015625 11.5447265625 248.05 11.1 248.4947265625 10.666015625 248.5 10.05 248.4947265625 9.433984375 248.05 9
M 259 11.55
Q 259.616015625 11.5447265625 260.05 11.1 260.4947265625 10.666015625 260.5 10.05 260.4947265625 9.433984375 260.05 9 259.616015625 8.5552734375 259 8.55
L 253 8.55
Q 252.383984375 8.5552734375 251.95 9 251.5052734375 9.433984375 251.5 10.05 251.5052734375 10.666015625 251.95 11.1 252.383984375 11.5447265625 253 11.55
L 259 11.55
M 263.95 11.1
Q 264.383984375 11.5447265625 265 11.55
L 271 11.55
Q 271.616015625 11.5447265625 272.05 11.1 272.4947265625 10.666015625 272.5 10.05 272.4947265625 9.433984375 272.05 9 271.616015625 8.5552734375 271 8.55
L 265 8.55
Q 264.383984375 8.5552734375 263.95 9 263.5052734375 9.433984375 263.5 10.05 263.5052734375 10.666015625 263.95 11.1
M 284.5 10.05
Q 284.4947265625 9.433984375 284.05 9 283.616015625 8.5552734375 283 8.55
L 277 8.55
Q 276.383984375 8.5552734375 275.95 9 275.5052734375 9.433984375 275.5 10.05 275.5052734375 10.666015625 275.95 11.1 276.383984375 11.5447265625 277 11.55
L 283 11.55
Q 283.616015625 11.5447265625 284.05 11.1 284.4947265625 10.666015625 284.5 10.05
M 295 11.55
Q 295.616015625 11.5447265625 296.05 11.1 296.4947265625 10.666015625 296.5 10.05 296.4947265625 9.433984375 296.05 9 295.616015625 8.5552734375 295 8.55
L 289 8.55
Q 288.383984375 8.5552734375 287.95 9 287.5052734375 9.433984375 287.5 10.05 287.5052734375 10.666015625 287.95 11.1 288.383984375 11.5447265625 289 11.55
L 295 11.55
M 308.5 10.05
Q 308.4947265625 9.433984375 308.05 9 307.616015625 8.5552734375 307 8.55
L 301 8.55
Q 300.383984375 8.5552734375 299.95 9 299.5052734375 9.433984375 299.5 10.05 299.5052734375 10.666015625 299.95 11.1 300.383984375 11.5447265625 301 11.55
L 307 11.55
Q 307.616015625 11.5447265625 308.05 11.1 308.4947265625 10.666015625 308.5 10.05
M 319 11.55
Q 319.616015625 11.5447265625 320.05 11.1 320.4947265625 10.666015625 320.5 10.05 320.4947265625 9.433984375 320.05 9 319.616015625 8.5552734375 319 8.55
L 313 8.55
Q 312.383984375 8.5552734375 311.95 9 311.5052734375 9.433984375 311.5 10.05 311.5052734375 10.666015625 311.95 11.1 312.383984375 11.5447265625 313 11.55
L 319 11.55
M 615 351.55
Q 615.616015625 351.5447265625 616.05 351.1 616.4947265625 350.666015625 616.5 350.05 616.4947265625 349.433984375 616.05 349 615.616015625 348.5552734375 615 348.55
L 609 348.55
Q 608.383984375 348.5552734375 607.95 349 607.5052734375 349.433984375 607.5 350.05 607.5052734375 350.666015625 607.95 351.1 608.383984375 351.5447265625 609 351.55
L 615 351.55
M 628.05 351.1
Q 628.4947265625 350.666015625 628.5 350.05 628.4947265625 349.433984375 628.05 349 627.616015625 348.5552734375 627 348.55
L 621 348.55
Q 620.383984375 348.5552734375 619.95 349 619.5052734375 349.433984375 619.5 350.05 619.5052734375 350.666015625 619.95 351.1 620.383984375 351.5447265625 621 351.55
L 627 351.55
Q 627.616015625 351.5447265625 628.05 351.1
M 640.05 349
Q 639.616015625 348.5552734375 639 348.55
L 633 348.55
Q 632.383984375 348.5552734375 631.95 349 631.5052734375 349.433984375 631.5 350.05 631.5052734375 350.666015625 631.95 351.1 632.383984375 351.5447265625 633 351.55
L 639 351.55
Q 639.616015625 351.5447265625 640.05 351.1 640.4947265625 350.666015625 640.5 350.05 640.4947265625 349.433984375 640.05 349
M 580.05 349
Q 579.616015625 348.5552734375 579 348.55
L 573 348.55
Q 572.383984375 348.5552734375 571.95 349 571.5052734375 349.433984375 571.5 350.05 571.5052734375 350.666015625 571.95 351.1 572.383984375 351.5447265625 573 351.55
L 579 351.55
Q 579.616015625 351.5447265625 580.05 351.1 580.4947265625 350.666015625 580.5 350.05 580.4947265625 349.433984375 580.05 349
M 591 351.55
Q 591.616015625 351.5447265625 592.05 351.1 592.4947265625 350.666015625 592.5 350.05 592.4947265625 349.433984375 592.05 349 591.616015625 348.5552734375 591 348.55
L 585 348.55
Q 584.383984375 348.5552734375 583.95 349 583.5052734375 349.433984375 583.5 350.05 583.5052734375 350.666015625 583.95 351.1 584.383984375 351.5447265625 585 351.55
L 591 351.55
M 604.05 349
Q 603.616015625 348.5552734375 603 348.55
L 597 348.55
Q 596.383984375 348.5552734375 595.95 349 595.5052734375 349.433984375 595.5 350.05 595.5052734375 350.666015625 595.95 351.1 596.383984375 351.5447265625 597 351.55
L 603 351.55
Q 603.616015625 351.5447265625 604.05 351.1 604.4947265625 350.666015625 604.5 350.05 604.4947265625 349.433984375 604.05 349
M 544.05 349
Q 543.616015625 348.5552734375 543 348.55
L 537 348.55
Q 536.383984375 348.5552734375 535.95 349 535.5052734375 349.433984375 535.5 350.05 535.5052734375 350.666015625 535.95 351.1 536.383984375 351.5447265625 537 351.55
L 543 351.55
Q 543.616015625 351.5447265625 544.05 351.1 544.4947265625 350.666015625 544.5 350.05 544.4947265625 349.433984375 544.05 349
M 555 351.55
Q 555.616015625 351.5447265625 556.05 351.1 556.4947265625 350.666015625 556.5 350.05 556.4947265625 349.433984375 556.05 349 555.616015625 348.5552734375 555 348.55
L 549 348.55
Q 548.383984375 348.5552734375 547.95 349 547.5052734375 349.433984375 547.5 350.05 547.5052734375 350.666015625 547.95 351.1 548.383984375 351.5447265625 549 351.55
L 555 351.55
M 559.95 351.1
Q 560.383984375 351.5447265625 561 351.55
L 567 351.55
Q 567.616015625 351.5447265625 568.05 351.1 568.4947265625 350.666015625 568.5 350.05 568.4947265625 349.433984375 568.05 349 567.616015625 348.5552734375 567 348.55
L 561 348.55
Q 560.383984375 348.5552734375 559.95 349 559.5052734375 349.433984375 559.5 350.05 559.5052734375 350.666015625 559.95 351.1
M 496.05 349
Q 495.616015625 348.5552734375 495 348.55
L 489 348.55
Q 488.383984375 348.5552734375 487.95 349 487.5052734375 349.433984375 487.5 350.05 487.5052734375 350.666015625 487.95 351.1 488.383984375 351.5447265625 489 351.55
L 495 351.55
Q 495.616015625 351.5447265625 496.05 351.1 496.4947265625 350.666015625 496.5 350.05 496.4947265625 349.433984375 496.05 349
M 507 351.55
Q 507.616015625 351.5447265625 508.05 351.1 508.4947265625 350.666015625 508.5 350.05 508.4947265625 349.433984375 508.05 349 507.616015625 348.5552734375 507 348.55
L 501 348.55
Q 500.383984375 348.5552734375 499.95 349 499.5052734375 349.433984375 499.5 350.05 499.5052734375 350.666015625 499.95 351.1 500.383984375 351.5447265625 501 351.55
L 507 351.55
M 520.05 349
Q 519.616015625 348.5552734375 519 348.55
L 513 348.55
Q 512.383984375 348.5552734375 511.95 349 511.5052734375 349.433984375 511.5 350.05 511.5052734375 350.666015625 511.95 351.1 512.383984375 351.5447265625 513 351.55
L 519 351.55
Q 519.616015625 351.5447265625 520.05 351.1 520.4947265625 350.666015625 520.5 350.05 520.4947265625 349.433984375 520.05 349
M 523.95 351.1
Q 524.383984375 351.5447265625 525 351.55
L 531 351.55
Q 531.616015625 351.5447265625 532.05 351.1 532.4947265625 350.666015625 532.5 350.05 532.4947265625 349.433984375 532.05 349 531.616015625 348.5552734375 531 348.55
L 525 348.55
Q 524.383984375 348.5552734375 523.95 349 523.5052734375 349.433984375 523.5 350.05 523.5052734375 350.666015625 523.95 351.1
M 460.05 349
Q 459.616015625 348.5552734375 459 348.55
L 453 348.55
Q 452.383984375 348.5552734375 451.95 349 451.5052734375 349.433984375 451.5 350.05 451.5052734375 350.666015625 451.95 351.1 452.383984375 351.5447265625 453 351.55
L 459 351.55
Q 459.616015625 351.5447265625 460.05 351.1 460.4947265625 350.666015625 460.5 350.05 460.4947265625 349.433984375 460.05 349
M 471 351.55
Q 471.616015625 351.5447265625 472.05 351.1 472.4947265625 350.666015625 472.5 350.05 472.4947265625 349.433984375 472.05 349 471.616015625 348.5552734375 471 348.55
L 465 348.55
Q 464.383984375 348.5552734375 463.95 349 463.5052734375 349.433984375 463.5 350.05 463.5052734375 350.666015625 463.95 351.1 464.383984375 351.5447265625 465 351.55
L 471 351.55
M 475.95 351.1
Q 476.383984375 351.5447265625 477 351.55
L 483 351.55
Q 483.616015625 351.5447265625 484.05 351.1 484.4947265625 350.666015625 484.5 350.05 484.4947265625 349.433984375 484.05 349 483.616015625 348.5552734375 483 348.55
L 477 348.55
Q 476.383984375 348.5552734375 475.95 349 475.5052734375 349.433984375 475.5 350.05 475.5052734375 350.666015625 475.95 351.1
M 423 351.55
Q 423.616015625 351.5447265625 424.05 351.1 424.4947265625 350.666015625 424.5 350.05 424.4947265625 349.433984375 424.05 349 423.616015625 348.5552734375 423 348.55
L 417 348.55
Q 416.383984375 348.5552734375 415.95 349 415.5052734375 349.433984375 415.5 350.05 415.5052734375 350.666015625 415.95 351.1 416.383984375 351.5447265625 417 351.55
L 423 351.55
M 436.5 350.05
Q 436.4947265625 349.433984375 436.05 349 435.616015625 348.5552734375 435 348.55
L 429 348.55
Q 428.383984375 348.5552734375 427.95 349 427.5052734375 349.433984375 427.5 350.05 427.5052734375 350.666015625 427.95 351.1 428.383984375 351.5447265625 429 351.55
L 435 351.55
Q 435.616015625 351.5447265625 436.05 351.1 436.4947265625 350.666015625 436.5 350.05
M 439.95 351.1
Q 440.383984375 351.5447265625 441 351.55
L 447 351.55
Q 447.616015625 351.5447265625 448.05 351.1 448.4947265625 350.666015625 448.5 350.05 448.4947265625 349.433984375 448.05 349 447.616015625 348.5552734375 447 348.55
L 441 348.55
Q 440.383984375 348.5552734375 439.95 349 439.5052734375 349.433984375 439.5 350.05 439.5052734375 350.666015625 439.95 351.1
M 376.05 349
Q 375.616015625 348.5552734375 375 348.55
L 369 348.55
Q 368.383984375 348.5552734375 367.95 349 367.5052734375 349.433984375 367.5 350.05 367.5052734375 350.666015625 367.95 351.1 368.383984375 351.5447265625 369 351.55
L 375 351.55
Q 375.616015625 351.5447265625 376.05 351.1 376.4947265625 350.666015625 376.5 350.05 376.4947265625 349.433984375 376.05 349
M 387 351.55
Q 387.616015625 351.5447265625 388.05 351.1 388.4947265625 350.666015625 388.5 350.05 388.4947265625 349.433984375 388.05 349 387.616015625 348.5552734375 387 348.55
L 381 348.55
Q 380.383984375 348.5552734375 379.95 349 379.5052734375 349.433984375 379.5 350.05 379.5052734375 350.666015625 379.95 351.1 380.383984375 351.5447265625 381 351.55
L 387 351.55
M 400.05 349
Q 399.616015625 348.5552734375 399 348.55
L 393 348.55
Q 392.383984375 348.5552734375 391.95 349 391.5052734375 349.433984375 391.5 350.05 391.5052734375 350.666015625 391.95 351.1 392.383984375 351.5447265625 393 351.55
L 399 351.55
Q 399.616015625 351.5447265625 400.05 351.1 400.4947265625 350.666015625 400.5 350.05 400.4947265625 349.433984375 400.05 349
M 403.5 350.05
Q 403.5052734375 350.666015625 403.95 351.1 404.383984375 351.5447265625 405 351.55
L 411 351.55
Q 411.616015625 351.5447265625 412.05 351.1 412.4947265625 350.666015625 412.5 350.05 412.4947265625 349.433984375 412.05 349 411.616015625 348.5552734375 411 348.55
L 405 348.55
Q 404.383984375 348.5552734375 403.95 349 403.5052734375 349.433984375 403.5 350.05
M 328.05 349
Q 327.616015625 348.5552734375 327 348.55
L 321 348.55
Q 320.383984375 348.5552734375 319.95 349 319.5052734375 349.433984375 319.5 350.05 319.5052734375 350.666015625 319.95 351.1 320.383984375 351.5447265625 321 351.55
L 327 351.55
Q 327.616015625 351.5447265625 328.05 351.1 328.4947265625 350.666015625 328.5 350.05 328.4947265625 349.433984375 328.05 349
M 340.05 349
Q 339.616015625 348.5552734375 339 348.55
L 333 348.55
Q 332.383984375 348.5552734375 331.95 349 331.5052734375 349.433984375 331.5 350.05 331.5052734375 350.666015625 331.95 351.1 332.383984375 351.5447265625 333 351.55
L 339 351.55
Q 339.616015625 351.5447265625 340.05 351.1 340.4947265625 350.666015625 340.5 350.05 340.4947265625 349.433984375 340.05 349
M 345 351.55
L 351 351.55
Q 351.616015625 351.5447265625 352.05 351.1 352.4947265625 350.666015625 352.5 350.05 352.4947265625 349.433984375 352.05 349 351.616015625 348.5552734375 351 348.55
L 345 348.55
Q 344.383984375 348.5552734375 343.95 349 343.5052734375 349.433984375 343.5 350.05 343.5052734375 350.666015625 343.95 351.1 344.383984375 351.5447265625 345 351.55
M 355.95 351.1
Q 356.383984375 351.5447265625 357 351.55
L 363 351.55
Q 363.616015625 351.5447265625 364.05 351.1 364.4947265625 350.666015625 364.5 350.05 364.4947265625 349.433984375 364.05 349 363.616015625 348.5552734375 363 348.55
L 357 348.55
Q 356.383984375 348.5552734375 355.95 349 355.5052734375 349.433984375 355.5 350.05 355.5052734375 350.666015625 355.95 351.1
M 332.05 9
Q 331.616015625 8.5552734375 331 8.55
L 325 8.55
Q 324.383984375 8.5552734375 323.95 9 323.5052734375 9.433984375 323.5 10.05 323.5052734375 10.666015625 323.95 11.1 324.383984375 11.5447265625 325 11.55
L 331 11.55
Q 331.616015625 11.5447265625 332.05 11.1 332.4947265625 10.666015625 332.5 10.05 332.4947265625 9.433984375 332.05 9
M 343 11.55
Q 343.616015625 11.5447265625 344.05 11.1 344.4947265625 10.666015625 344.5 10.05 344.4947265625 9.433984375 344.05 9 343.616015625 8.5552734375 343 8.55
L 337 8.55
Q 336.383984375 8.5552734375 335.95 9 335.5052734375 9.433984375 335.5 10.05 335.5052734375 10.666015625 335.95 11.1 336.383984375 11.5447265625 337 11.55
L 343 11.55
M 355 11.55
Q 355.616015625 11.5447265625 356.05 11.1 356.4947265625 10.666015625 356.5 10.05 356.4947265625 9.433984375 356.05 9 355.616015625 8.5552734375 355 8.55
L 349 8.55
Q 348.383984375 8.5552734375 347.95 9 347.5052734375 9.433984375 347.5 10.05 347.5052734375 10.666015625 347.95 11.1 348.383984375 11.5447265625 349 11.55
L 355 11.55
M 368.05 9
Q 367.616015625 8.5552734375 367 8.55
L 361 8.55
Q 360.383984375 8.5552734375 359.95 9 359.5052734375 9.433984375 359.5 10.05 359.5052734375 10.666015625 359.95 11.1 360.383984375 11.5447265625 361 11.55
L 367 11.55
Q 367.616015625 11.5447265625 368.05 11.1 368.4947265625 10.666015625 368.5 10.05 368.4947265625 9.433984375 368.05 9
M 379 11.55
Q 379.616015625 11.5447265625 380.05 11.1 380.4947265625 10.666015625 380.5 10.05 380.4947265625 9.433984375 380.05 9 379.616015625 8.5552734375 379 8.55
L 373 8.55
Q 372.383984375 8.5552734375 371.95 9 371.5052734375 9.433984375 371.5 10.05 371.5052734375 10.666015625 371.95 11.1 372.383984375 11.5447265625 373 11.55
L 379 11.55
M 392.5 10.05
Q 392.4947265625 9.433984375 392.05 9 391.616015625 8.5552734375 391 8.55
L 385 8.55
Q 384.383984375 8.5552734375 383.95 9 383.5052734375 9.433984375 383.5 10.05 383.5052734375 10.666015625 383.95 11.1 384.383984375 11.5447265625 385 11.55
L 391 11.55
Q 391.616015625 11.5447265625 392.05 11.1 392.4947265625 10.666015625 392.5 10.05
M 395.5 10.05
Q 395.5052734375 10.666015625 395.95 11.1 396.383984375 11.5447265625 397 11.55
L 403 11.55
Q 403.616015625 11.5447265625 404.05 11.1 404.4947265625 10.666015625 404.5 10.05 404.4947265625 9.433984375 404.05 9 403.616015625 8.5552734375 403 8.55
L 397 8.55
Q 396.383984375 8.5552734375 395.95 9 395.5052734375 9.433984375 395.5 10.05
M 416.05 11.1
Q 416.4947265625 10.666015625 416.5 10.05 416.4947265625 9.433984375 416.05 9 415.616015625 8.5552734375 415 8.55
L 409 8.55
Q 408.383984375 8.5552734375 407.95 9 407.5052734375 9.433984375 407.5 10.05 407.5052734375 10.666015625 407.95 11.1 408.383984375 11.5447265625 409 11.55
L 415 11.55
Q 415.616015625 11.5447265625 416.05 11.1
M 428.5 10.05
Q 428.4947265625 9.433984375 428.05 9 427.616015625 8.5552734375 427 8.55
L 421 8.55
Q 420.383984375 8.5552734375 419.95 9 419.5052734375 9.433984375 419.5 10.05 419.5052734375 10.666015625 419.95 11.1 420.383984375 11.5447265625 421 11.55
L 427 11.55
Q 427.616015625 11.5447265625 428.05 11.1 428.4947265625 10.666015625 428.5 10.05
M 439 11.55
Q 439.616015625 11.5447265625 440.05 11.1 440.4947265625 10.666015625 440.5 10.05 440.4947265625 9.433984375 440.05 9 439.616015625 8.5552734375 439 8.55
L 433 8.55
Q 432.383984375 8.5552734375 431.95 9 431.5052734375 9.433984375 431.5 10.05 431.5052734375 10.666015625 431.95 11.1 432.383984375 11.5447265625 433 11.55
L 439 11.55
M 452.05 9
Q 451.616015625 8.5552734375 451 8.55
L 445 8.55
Q 444.383984375 8.5552734375 443.95 9 443.5052734375 9.433984375 443.5 10.05 443.5052734375 10.666015625 443.95 11.1 444.383984375 11.5447265625 445 11.55
L 451 11.55
Q 451.616015625 11.5447265625 452.05 11.1 452.4947265625 10.666015625 452.5 10.05 452.4947265625 9.433984375 452.05 9
M 463 8.55
L 457 8.55
Q 456.383984375 8.5552734375 455.95 9 455.5052734375 9.433984375 455.5 10.05 455.5052734375 10.666015625 455.95 11.1 456.383984375 11.5447265625 457 11.55
L 463 11.55
Q 463.616015625 11.5447265625 464.05 11.1 464.4947265625 10.666015625 464.5 10.05 464.4947265625 9.433984375 464.05 9 463.616015625 8.5552734375 463 8.55
M 476.05 11.1
Q 476.4947265625 10.666015625 476.5 10.05 476.4947265625 9.433984375 476.05 9 475.616015625 8.5552734375 475 8.55
L 469 8.55
Q 468.383984375 8.5552734375 467.95 9 467.5052734375 9.433984375 467.5 10.05 467.5052734375 10.666015625 467.95 11.1 468.383984375 11.5447265625 469 11.55
L 475 11.55
Q 475.616015625 11.5447265625 476.05 11.1
M 488.05 9
Q 487.616015625 8.5552734375 487 8.55
L 481 8.55
Q 480.383984375 8.5552734375 479.95 9 479.5052734375 9.433984375 479.5 10.05 479.5052734375 10.666015625 479.95 11.1 480.383984375 11.5447265625 481 11.55
L 487 11.55
Q 487.616015625 11.5447265625 488.05 11.1 488.4947265625 10.666015625 488.5 10.05 488.4947265625 9.433984375 488.05 9
M 499 11.55
Q 499.616015625 11.5447265625 500.05 11.1 500.4947265625 10.666015625 500.5 10.05 500.4947265625 9.433984375 500.05 9 499.616015625 8.5552734375 499 8.55
L 493 8.55
Q 492.383984375 8.5552734375 491.95 9 491.5052734375 9.433984375 491.5 10.05 491.5052734375 10.666015625 491.95 11.1 492.383984375 11.5447265625 493 11.55
L 499 11.55
M 512.5 10.05
Q 512.4947265625 9.433984375 512.05 9 511.616015625 8.5552734375 511 8.55
L 505 8.55
Q 504.383984375 8.5552734375 503.95 9 503.5052734375 9.433984375 503.5 10.05 503.5052734375 10.666015625 503.95 11.1 504.383984375 11.5447265625 505 11.55
L 511 11.55
Q 511.616015625 11.5447265625 512.05 11.1 512.4947265625 10.666015625 512.5 10.05
M 517 11.55
L 523 11.55
Q 523.616015625 11.5447265625 524.05 11.1 524.4947265625 10.666015625 524.5 10.05 524.4947265625 9.433984375 524.05 9 523.616015625 8.5552734375 523 8.55
L 517 8.55
Q 516.383984375 8.5552734375 515.95 9 515.5052734375 9.433984375 515.5 10.05 515.5052734375 10.666015625 515.95 11.1 516.383984375 11.5447265625 517 11.55
M 527.95 11.1
Q 528.383984375 11.5447265625 529 11.55
L 535 11.55
Q 535.616015625 11.5447265625 536.05 11.1 536.4947265625 10.666015625 536.5 10.05 536.4947265625 9.433984375 536.05 9 535.616015625 8.5552734375 535 8.55
L 529 8.55
Q 528.383984375 8.5552734375 527.95 9 527.5052734375 9.433984375 527.5 10.05 527.5052734375 10.666015625 527.95 11.1
M 548.5 10.05
Q 548.4947265625 9.433984375 548.05 9 547.616015625 8.5552734375 547 8.55
L 541 8.55
Q 540.383984375 8.5552734375 539.95 9 539.5052734375 9.433984375 539.5 10.05 539.5052734375 10.666015625 539.95 11.1 540.383984375 11.5447265625 541 11.55
L 547 11.55
Q 547.616015625 11.5447265625 548.05 11.1 548.4947265625 10.666015625 548.5 10.05
M 559 11.55
Q 559.616015625 11.5447265625 560.05 11.1 560.4947265625 10.666015625 560.5 10.05 560.4947265625 9.433984375 560.05 9 559.616015625 8.5552734375 559 8.55
L 553 8.55
Q 552.383984375 8.5552734375 551.95 9 551.5052734375 9.433984375 551.5 10.05 551.5052734375 10.666015625 551.95 11.1 552.383984375 11.5447265625 553 11.55
L 559 11.55
M 572.05 9
Q 571.616015625 8.5552734375 571 8.55
L 565 8.55
Q 564.383984375 8.5552734375 563.95 9 563.5052734375 9.433984375 563.5 10.05 563.5052734375 10.666015625 563.95 11.1 564.383984375 11.5447265625 565 11.55
L 571 11.55
Q 571.616015625 11.5447265625 572.05 11.1 572.4947265625 10.666015625 572.5 10.05 572.4947265625 9.433984375 572.05 9
M 583 11.55
Q 583.616015625 11.5447265625 584.05 11.1 584.4947265625 10.666015625 584.5 10.05 584.4947265625 9.433984375 584.05 9 583.616015625 8.5552734375 583 8.55
L 577 8.55
Q 576.383984375 8.5552734375 575.95 9 575.5052734375 9.433984375 575.5 10.05 575.5052734375 10.666015625 575.95 11.1 576.383984375 11.5447265625 577 11.55
L 583 11.55
M 587.95 11.1
Q 588.383984375 11.5447265625 589 11.55
L 595 11.55
Q 595.616015625 11.5447265625 596.05 11.1 596.4947265625 10.666015625 596.5 10.05 596.4947265625 9.433984375 596.05 9 595.616015625 8.5552734375 595 8.55
L 589 8.55
Q 588.383984375 8.5552734375 587.95 9 587.5052734375 9.433984375 587.5 10.05 587.5052734375 10.666015625 587.95 11.1
M 608.5 10.05
Q 608.4947265625 9.433984375 608.05 9 607.616015625 8.5552734375 607 8.55
L 601 8.55
Q 600.383984375 8.5552734375 599.95 9 599.5052734375 9.433984375 599.5 10.05 599.5052734375 10.666015625 599.95 11.1 600.383984375 11.5447265625 601 11.55
L 607 11.55
Q 607.616015625 11.5447265625 608.05 11.1 608.4947265625 10.666015625 608.5 10.05
M 619 11.55
Q 619.616015625 11.5447265625 620.05 11.1 620.4947265625 10.666015625 620.5 10.05 620.4947265625 9.433984375 620.05 9 619.616015625 8.5552734375 619 8.55
L 613 8.55
Q 612.383984375 8.5552734375 611.95 9 611.5052734375 9.433984375 611.5 10.05 611.5052734375 10.666015625 611.95 11.1 612.383984375 11.5447265625 613 11.55
L 619 11.55
M 632.5 10.05
Q 632.4947265625 9.433984375 632.05 9 631.616015625 8.5552734375 631 8.55
L 625 8.55
Q 624.383984375 8.5552734375 623.95 9 623.5052734375 9.433984375 623.5 10.05 623.5052734375 10.666015625 623.95 11.1 624.383984375 11.5447265625 625 11.55
L 631 11.55
Q 631.616015625 11.5447265625 632.05 11.1 632.4947265625 10.666015625 632.5 10.05
M 643 11.55
Q 643.616015625 11.5447265625 644.05 11.1 644.4947265625 10.666015625 644.5 10.05 644.4947265625 9.433984375 644.05 9 643.616015625 8.5552734375 643 8.55
L 637 8.55
Q 636.383984375 8.5552734375 635.95 9 635.5052734375 9.433984375 635.5 10.05 635.5052734375 10.666015625 635.95 11.1 636.383984375 11.5447265625 637 11.55
L 643 11.55
M 784.05 351.1
Q 784.4947265625 350.666015625 784.5 350.05 784.4947265625 349.433984375 784.05 349 783.616015625 348.5552734375 783 348.55
L 777 348.55
Q 776.383984375 348.5552734375 775.95 349 775.5052734375 349.433984375 775.5 350.05 775.5052734375 350.666015625 775.95 351.1 776.383984375 351.5447265625 777 351.55
L 783 351.55
Q 783.616015625 351.5447265625 784.05 351.1
M 747 351.55
Q 747.616015625 351.5447265625 748.05 351.1 748.4947265625 350.666015625 748.5 350.05 748.4947265625 349.433984375 748.05 349 747.616015625 348.5552734375 747 348.55
L 741 348.55
Q 740.383984375 348.5552734375 739.95 349 739.5052734375 349.433984375 739.5 350.05 739.5052734375 350.666015625 739.95 351.1 740.383984375 351.5447265625 741 351.55
L 747 351.55
M 760.5 350.05
Q 760.4947265625 349.433984375 760.05 349 759.616015625 348.5552734375 759 348.55
L 753 348.55
Q 752.383984375 348.5552734375 751.95 349 751.5052734375 349.433984375 751.5 350.05 751.5052734375 350.666015625 751.95 351.1 752.383984375 351.5447265625 753 351.55
L 759 351.55
Q 759.616015625 351.5447265625 760.05 351.1 760.4947265625 350.666015625 760.5 350.05
M 763.95 351.1
Q 764.383984375 351.5447265625 765 351.55
L 771 351.55
Q 771.616015625 351.5447265625 772.05 351.1 772.4947265625 350.666015625 772.5 350.05 772.4947265625 349.433984375 772.05 349 771.616015625 348.5552734375 771 348.55
L 765 348.55
Q 764.383984375 348.5552734375 763.95 349 763.5052734375 349.433984375 763.5 350.05 763.5052734375 350.666015625 763.95 351.1
M 793.95 345
Q 793.5052734375 345.433984375 793.5 346.05
L 793.5 348.55 789 348.55
Q 788.383984375 348.5552734375 787.95 349 787.5052734375 349.433984375 787.5 350.05 787.5052734375 350.666015625 787.95 351.1 788.383984375 351.5447265625 789 351.55
L 795 351.55
Q 795.616015625 351.5447265625 796.05 351.1 796.4947265625 350.666015625 796.5 350.05
L 796.5 346.05
Q 796.4947265625 345.433984375 796.05 345 795.616015625 344.5552734375 795 344.55 794.383984375 344.5552734375 793.95 345
M 793.95 333
Q 793.5052734375 333.433984375 793.5 334.05
L 793.5 340.05
Q 793.5052734375 340.666015625 793.95 341.1 794.383984375 341.5447265625 795 341.55 795.616015625 341.5447265625 796.05 341.1 796.4947265625 340.666015625 796.5 340.05
L 796.5 334.05
Q 796.4947265625 333.433984375 796.05 333 795.616015625 332.5552734375 795 332.55 794.383984375 332.5552734375 793.95 333
M 796.05 321
Q 795.616015625 320.5552734375 795 320.55 794.383984375 320.5552734375 793.95 321 793.5052734375 321.433984375 793.5 322.05
L 793.5 328.05
Q 793.5052734375 328.666015625 793.95 329.1 794.383984375 329.5447265625 795 329.55 795.616015625 329.5447265625 796.05 329.1 796.4947265625 328.666015625 796.5 328.05
L 796.5 322.05
Q 796.4947265625 321.433984375 796.05 321
M 796.05 309
Q 795.616015625 308.5552734375 795 308.55 794.383984375 308.5552734375 793.95 309 793.5052734375 309.433984375 793.5 310.05
L 793.5 316.05
Q 793.5052734375 316.666015625 793.95 317.1 794.383984375 317.5447265625 795 317.55 795.616015625 317.5447265625 796.05 317.1 796.4947265625 316.666015625 796.5 316.05
L 796.5 310.05
Q 796.4947265625 309.433984375 796.05 309
M 796.5 298.05
Q 796.4947265625 297.433984375 796.05 297 795.616015625 296.5552734375 795 296.55 794.383984375 296.5552734375 793.95 297 793.5052734375 297.433984375 793.5 298.05
L 793.5 304.05
Q 793.5052734375 304.666015625 793.95 305.1 794.383984375 305.5447265625 795 305.55 795.616015625 305.5447265625 796.05 305.1 796.4947265625 304.666015625 796.5 304.05
L 796.5 298.05
M 700.05 349
Q 699.616015625 348.5552734375 699 348.55
L 693 348.55
Q 692.383984375 348.5552734375 691.95 349 691.5052734375 349.433984375 691.5 350.05 691.5052734375 350.666015625 691.95 351.1 692.383984375 351.5447265625 693 351.55
L 699 351.55
Q 699.616015625 351.5447265625 700.05 351.1 700.4947265625 350.666015625 700.5 350.05 700.4947265625 349.433984375 700.05 349
M 711 351.55
Q 711.616015625 351.5447265625 712.05 351.1 712.4947265625 350.666015625 712.5 350.05 712.4947265625 349.433984375 712.05 349 711.616015625 348.5552734375 711 348.55
L 705 348.55
Q 704.383984375 348.5552734375 703.95 349 703.5052734375 349.433984375 703.5 350.05 703.5052734375 350.666015625 703.95 351.1 704.383984375 351.5447265625 705 351.55
L 711 351.55
M 724.05 349
Q 723.616015625 348.5552734375 723 348.55
L 717 348.55
Q 716.383984375 348.5552734375 715.95 349 715.5052734375 349.433984375 715.5 350.05 715.5052734375 350.666015625 715.95 351.1 716.383984375 351.5447265625 717 351.55
L 723 351.55
Q 723.616015625 351.5447265625 724.05 351.1 724.4947265625 350.666015625 724.5 350.05 724.4947265625 349.433984375 724.05 349
M 727.5 350.05
Q 727.5052734375 350.666015625 727.95 351.1 728.383984375 351.5447265625 729 351.55
L 735 351.55
Q 735.616015625 351.5447265625 736.05 351.1 736.4947265625 350.666015625 736.5 350.05 736.4947265625 349.433984375 736.05 349 735.616015625 348.5552734375 735 348.55
L 729 348.55
Q 728.383984375 348.5552734375 727.95 349 727.5052734375 349.433984375 727.5 350.05
M 652.05 349
Q 651.616015625 348.5552734375 651 348.55
L 645 348.55
Q 644.383984375 348.5552734375 643.95 349 643.5052734375 349.433984375 643.5 350.05 643.5052734375 350.666015625 643.95 351.1 644.383984375 351.5447265625 645 351.55
L 651 351.55
Q 651.616015625 351.5447265625 652.05 351.1 652.4947265625 350.666015625 652.5 350.05 652.4947265625 349.433984375 652.05 349
M 664.05 349
Q 663.616015625 348.5552734375 663 348.55
L 657 348.55
Q 656.383984375 348.5552734375 655.95 349 655.5052734375 349.433984375 655.5 350.05 655.5052734375 350.666015625 655.95 351.1 656.383984375 351.5447265625 657 351.55
L 663 351.55
Q 663.616015625 351.5447265625 664.05 351.1 664.4947265625 350.666015625 664.5 350.05 664.4947265625 349.433984375 664.05 349
M 669 351.55
L 675 351.55
Q 675.616015625 351.5447265625 676.05 351.1 676.4947265625 350.666015625 676.5 350.05 676.4947265625 349.433984375 676.05 349 675.616015625 348.5552734375 675 348.55
L 669 348.55
Q 668.383984375 348.5552734375 667.95 349 667.5052734375 349.433984375 667.5 350.05 667.5052734375 350.666015625 667.95 351.1 668.383984375 351.5447265625 669 351.55
M 679.95 351.1
Q 680.383984375 351.5447265625 681 351.55
L 687 351.55
Q 687.616015625 351.5447265625 688.05 351.1 688.4947265625 350.666015625 688.5 350.05 688.4947265625 349.433984375 688.05 349 687.616015625 348.5552734375 687 348.55
L 681 348.55
Q 680.383984375 348.5552734375 679.95 349 679.5052734375 349.433984375 679.5 350.05 679.5052734375 350.666015625 679.95 351.1
M 796.05 293.1
Q 796.4947265625 292.666015625 796.5 292.05
L 796.5 286.05
Q 796.4947265625 285.433984375 796.05 285 795.616015625 284.5552734375 795 284.55 794.383984375 284.5552734375 793.95 285 793.5052734375 285.433984375 793.5 286.05
L 793.5 292.05
Q 793.5052734375 292.666015625 793.95 293.1 794.383984375 293.5447265625 795 293.55 795.616015625 293.5447265625 796.05 293.1
M 796.5 274.05
Q 796.4947265625 273.433984375 796.05 273 795.616015625 272.5552734375 795 272.55 794.383984375 272.5552734375 793.95 273 793.5052734375 273.433984375 793.5 274.05
L 793.5 280.05
Q 793.5052734375 280.666015625 793.95 281.1 794.383984375 281.5447265625 795 281.55 795.616015625 281.5447265625 796.05 281.1 796.4947265625 280.666015625 796.5 280.05
L 796.5 274.05
M 796.5 262.05
Q 796.4947265625 261.433984375 796.05 261 795.616015625 260.5552734375 795 260.55 794.383984375 260.5552734375 793.95 261 793.5052734375 261.433984375 793.5 262.05
L 793.5 268.05
Q 793.5052734375 268.666015625 793.95 269.1 794.383984375 269.5447265625 795 269.55 795.616015625 269.5447265625 796.05 269.1 796.4947265625 268.666015625 796.5 268.05
L 796.5 262.05
M 796.5 250.05
Q 796.4947265625 249.433984375 796.05 249 795.616015625 248.5552734375 795 248.55 794.383984375 248.5552734375 793.95 249 793.5052734375 249.433984375 793.5 250.05
L 793.5 256.05
Q 793.5052734375 256.666015625 793.95 257.1 794.383984375 257.5447265625 795 257.55 795.616015625 257.5447265625 796.05 257.1 796.4947265625 256.666015625 796.5 256.05
L 796.5 250.05
M 796.5 238.05
Q 796.4947265625 237.433984375 796.05 237 795.616015625 236.5552734375 795 236.55 794.383984375 236.5552734375 793.95 237 793.5052734375 237.433984375 793.5 238.05
L 793.5 244.05
Q 793.5052734375 244.666015625 793.95 245.1 794.383984375 245.5447265625 795 245.55 795.616015625 245.5447265625 796.05 245.1 796.4947265625 244.666015625 796.5 244.05
L 796.5 238.05
M 796.5 226.05
Q 796.4947265625 225.433984375 796.05 225 795.616015625 224.5552734375 795 224.55 794.383984375 224.5552734375 793.95 225 793.5052734375 225.433984375 793.5 226.05
L 793.5 232.05
Q 793.5052734375 232.666015625 793.95 233.1 794.383984375 233.5447265625 795 233.55 795.616015625 233.5447265625 796.05 233.1 796.4947265625 232.666015625 796.5 232.05
L 796.5 226.05
M 796.5 214.05
Q 796.4947265625 213.433984375 796.05 213 795.616015625 212.5552734375 795 212.55 794.383984375 212.5552734375 793.95 213 793.5052734375 213.433984375 793.5 214.05
L 793.5 220.05
Q 793.5052734375 220.666015625 793.95 221.1 794.383984375 221.5447265625 795 221.55 795.616015625 221.5447265625 796.05 221.1 796.4947265625 220.666015625 796.5 220.05
L 796.5 214.05
M 796.5 202.05
Q 796.4947265625 201.433984375 796.05 201 795.616015625 200.5552734375 795 200.55 794.383984375 200.5552734375 793.95 201 793.5052734375 201.433984375 793.5 202.05
L 793.5 208.05
Q 793.5052734375 208.666015625 793.95 209.1 794.383984375 209.5447265625 795 209.55 795.616015625 209.5447265625 796.05 209.1 796.4947265625 208.666015625 796.5 208.05
L 796.5 202.05
M 796.5 190.05
Q 796.4947265625 189.433984375 796.05 189 795.616015625 188.5552734375 795 188.55 794.383984375 188.5552734375 793.95 189 793.5052734375 189.433984375 793.5 190.05
L 793.5 196.05
Q 793.5052734375 196.666015625 793.95 197.1 794.383984375 197.5447265625 795 197.55 795.616015625 197.5447265625 796.05 197.1 796.4947265625 196.666015625 796.5 196.05
L 796.5 190.05
M 796.5 178.05
Q 796.4947265625 177.433984375 796.05 177 795.616015625 176.5552734375 795 176.55 794.383984375 176.5552734375 793.95 177 793.5052734375 177.433984375 793.5 178.05
L 793.5 184.05
Q 793.5052734375 184.666015625 793.95 185.1 794.383984375 185.5447265625 795 185.55 795.616015625 185.5447265625 796.05 185.1 796.4947265625 184.666015625 796.5 184.05
L 796.5 178.05
M 796.5 166.05
Q 796.4947265625 165.433984375 796.05 165 795.616015625 164.5552734375 795 164.55 794.383984375 164.5552734375 793.95 165 793.5052734375 165.433984375 793.5 166.05
L 793.5 172.05
Q 793.5052734375 172.666015625 793.95 173.1 794.383984375 173.5447265625 795 173.55 795.616015625 173.5447265625 796.05 173.1 796.4947265625 172.666015625 796.5 172.05
L 796.5 166.05
M 793.95 153
Q 793.5052734375 153.433984375 793.5 154.05
L 793.5 160.05
Q 793.5052734375 160.666015625 793.95 161.1 794.383984375 161.5447265625 795 161.55 795.616015625 161.5447265625 796.05 161.1 796.4947265625 160.666015625 796.5 160.05
L 796.5 154.05
Q 796.4947265625 153.433984375 796.05 153 795.616015625 152.5552734375 795 152.55 794.383984375 152.5552734375 793.95 153
M 793.95 141
Q 793.5052734375 141.433984375 793.5 142.05
L 793.5 148.05
Q 793.5052734375 148.666015625 793.95 149.1 794.383984375 149.5447265625 795 149.55 795.616015625 149.5447265625 796.05 149.1 796.4947265625 148.666015625 796.5 148.05
L 796.5 142.05
Q 796.4947265625 141.433984375 796.05 141 795.616015625 140.5552734375 795 140.55 794.383984375 140.5552734375 793.95 141
M 796.05 129
Q 795.616015625 128.5552734375 795 128.55 794.383984375 128.5552734375 793.95 129 793.5052734375 129.433984375 793.5 130.05
L 793.5 136.05
Q 793.5052734375 136.666015625 793.95 137.1 794.383984375 137.5447265625 795 137.55 795.616015625 137.5447265625 796.05 137.1 796.4947265625 136.666015625 796.5 136.05
L 796.5 130.05
Q 796.4947265625 129.433984375 796.05 129
M 796.5 118.05
Q 796.4947265625 117.433984375 796.05 117 795.616015625 116.5552734375 795 116.55 794.383984375 116.5552734375 793.95 117 793.5052734375 117.433984375 793.5 118.05
L 793.5 124.05
Q 793.5052734375 124.666015625 793.95 125.1 794.383984375 125.5447265625 795 125.55 795.616015625 125.5447265625 796.05 125.1 796.4947265625 124.666015625 796.5 124.05
L 796.5 118.05
M 793.95 105
Q 793.5052734375 105.433984375 793.5 106.05
L 793.5 112.05
Q 793.5052734375 112.666015625 793.95 113.1 794.383984375 113.5447265625 795 113.55 795.616015625 113.5447265625 796.05 113.1 796.4947265625 112.666015625 796.5 112.05
L 796.5 106.05
Q 796.4947265625 105.433984375 796.05 105 795.616015625 104.5552734375 795 104.55 794.383984375 104.5552734375 793.95 105
M 656.05 9
Q 655.616015625 8.5552734375 655 8.55
L 649 8.55
Q 648.383984375 8.5552734375 647.95 9 647.5052734375 9.433984375 647.5 10.05 647.5052734375 10.666015625 647.95 11.1 648.383984375 11.5447265625 649 11.55
L 655 11.55
Q 655.616015625 11.5447265625 656.05 11.1 656.4947265625 10.666015625 656.5 10.05 656.4947265625 9.433984375 656.05 9
M 667 11.55
Q 667.616015625 11.5447265625 668.05 11.1 668.4947265625 10.666015625 668.5 10.05 668.4947265625 9.433984375 668.05 9 667.616015625 8.5552734375 667 8.55
L 661 8.55
Q 660.383984375 8.5552734375 659.95 9 659.5052734375 9.433984375 659.5 10.05 659.5052734375 10.666015625 659.95 11.1 660.383984375 11.5447265625 661 11.55
L 667 11.55
M 679 11.55
Q 679.616015625 11.5447265625 680.05 11.1 680.4947265625 10.666015625 680.5 10.05 680.4947265625 9.433984375 680.05 9 679.616015625 8.5552734375 679 8.55
L 673 8.55
Q 672.383984375 8.5552734375 671.95 9 671.5052734375 9.433984375 671.5 10.05 671.5052734375 10.666015625 671.95 11.1 672.383984375 11.5447265625 673 11.55
L 679 11.55
M 692.05 9
Q 691.616015625 8.5552734375 691 8.55
L 685 8.55
Q 684.383984375 8.5552734375 683.95 9 683.5052734375 9.433984375 683.5 10.05 683.5052734375 10.666015625 683.95 11.1 684.383984375 11.5447265625 685 11.55
L 691 11.55
Q 691.616015625 11.5447265625 692.05 11.1 692.4947265625 10.666015625 692.5 10.05 692.4947265625 9.433984375 692.05 9
M 703 11.55
Q 703.616015625 11.5447265625 704.05 11.1 704.4947265625 10.666015625 704.5 10.05 704.4947265625 9.433984375 704.05 9 703.616015625 8.5552734375 703 8.55
L 697 8.55
Q 696.383984375 8.5552734375 695.95 9 695.5052734375 9.433984375 695.5 10.05 695.5052734375 10.666015625 695.95 11.1 696.383984375 11.5447265625 697 11.55
L 703 11.55
M 716.5 10.05
Q 716.4947265625 9.433984375 716.05 9 715.616015625 8.5552734375 715 8.55
L 709 8.55
Q 708.383984375 8.5552734375 707.95 9 707.5052734375 9.433984375 707.5 10.05 707.5052734375 10.666015625 707.95 11.1 708.383984375 11.5447265625 709 11.55
L 715 11.55
Q 715.616015625 11.5447265625 716.05 11.1 716.4947265625 10.666015625 716.5 10.05
M 719.5 10.05
Q 719.5052734375 10.666015625 719.95 11.1 720.383984375 11.5447265625 721 11.55
L 727 11.55
Q 727.616015625 11.5447265625 728.05 11.1 728.4947265625 10.666015625 728.5 10.05 728.4947265625 9.433984375 728.05 9 727.616015625 8.5552734375 727 8.55
L 721 8.55
Q 720.383984375 8.5552734375 719.95 9 719.5052734375 9.433984375 719.5 10.05
M 793.95 93
Q 793.5052734375 93.433984375 793.5 94.05
L 793.5 100.05
Q 793.5052734375 100.666015625 793.95 101.1 794.383984375 101.5447265625 795 101.55 795.616015625 101.5447265625 796.05 101.1 796.4947265625 100.666015625 796.5 100.05
L 796.5 94.05
Q 796.4947265625 93.433984375 796.05 93 795.616015625 92.5552734375 795 92.55 794.383984375 92.5552734375 793.95 93
M 793.95 81
Q 793.5052734375 81.433984375 793.5 82.05
L 793.5 88.05
Q 793.5052734375 88.666015625 793.95 89.1 794.383984375 89.5447265625 795 89.55 795.616015625 89.5447265625 796.05 89.1 796.4947265625 88.666015625 796.5 88.05
L 796.5 82.05
Q 796.4947265625 81.433984375 796.05 81 795.616015625 80.5552734375 795 80.55 794.383984375 80.5552734375 793.95 81
M 796.5 70.05
Q 796.4947265625 69.433984375 796.05 69 795.616015625 68.5552734375 795 68.55 794.383984375 68.5552734375 793.95 69 793.5052734375 69.433984375 793.5 70.05
L 793.5 76.05
Q 793.5052734375 76.666015625 793.95 77.1 794.383984375 77.5447265625 795 77.55 795.616015625 77.5447265625 796.05 77.1 796.4947265625 76.666015625 796.5 76.05
L 796.5 70.05
M 793.95 57
Q 793.5052734375 57.433984375 793.5 58.05
L 793.5 64.05
Q 793.5052734375 64.666015625 793.95 65.1 794.383984375 65.5447265625 795 65.55 795.616015625 65.5447265625 796.05 65.1 796.4947265625 64.666015625 796.5 64.05
L 796.5 58.05
Q 796.4947265625 57.433984375 796.05 57 795.616015625 56.5552734375 795 56.55 794.383984375 56.5552734375 793.95 57
M 740.05 11.1
Q 740.4947265625 10.666015625 740.5 10.05 740.4947265625 9.433984375 740.05 9 739.616015625 8.5552734375 739 8.55
L 733 8.55
Q 732.383984375 8.5552734375 731.95 9 731.5052734375 9.433984375 731.5 10.05 731.5052734375 10.666015625 731.95 11.1 732.383984375 11.5447265625 733 11.55
L 739 11.55
Q 739.616015625 11.5447265625 740.05 11.1
M 752.5 10.05
Q 752.4947265625 9.433984375 752.05 9 751.616015625 8.5552734375 751 8.55
L 745 8.55
Q 744.383984375 8.5552734375 743.95 9 743.5052734375 9.433984375 743.5 10.05 743.5052734375 10.666015625 743.95 11.1 744.383984375 11.5447265625 745 11.55
L 751 11.55
Q 751.616015625 11.5447265625 752.05 11.1 752.4947265625 10.666015625 752.5 10.05
M 763 11.55
Q 763.616015625 11.5447265625 764.05 11.1 764.4947265625 10.666015625 764.5 10.05 764.4947265625 9.433984375 764.05 9 763.616015625 8.5552734375 763 8.55
L 757 8.55
Q 756.383984375 8.5552734375 755.95 9 755.5052734375 9.433984375 755.5 10.05 755.5052734375 10.666015625 755.95 11.1 756.383984375 11.5447265625 757 11.55
L 763 11.55
M 793.95 45
Q 793.5052734375 45.433984375 793.5 46.05
L 793.5 52.05
Q 793.5052734375 52.666015625 793.95 53.1 794.383984375 53.5447265625 795 53.55 795.616015625 53.5447265625 796.05 53.1 796.4947265625 52.666015625 796.5 52.05
L 796.5 46.05
Q 796.4947265625 45.433984375 796.05 45 795.616015625 44.5552734375 795 44.55 794.383984375 44.5552734375 793.95 45
M 793.95 33
Q 793.5052734375 33.433984375 793.5 34.05
L 793.5 40.05
Q 793.5052734375 40.666015625 793.95 41.1 794.383984375 41.5447265625 795 41.55 795.616015625 41.5447265625 796.05 41.1 796.4947265625 40.666015625 796.5 40.05
L 796.5 34.05
Q 796.4947265625 33.433984375 796.05 33 795.616015625 32.5552734375 795 32.55 794.383984375 32.5552734375 793.95 33
M 775 11.55
Q 775.616015625 11.5447265625 776.05 11.1 776.4947265625 10.666015625 776.5 10.05 776.4947265625 9.433984375 776.05 9 775.616015625 8.5552734375 775 8.55
L 769 8.55
Q 768.383984375 8.5552734375 767.95 9 767.5052734375 9.433984375 767.5 10.05 767.5052734375 10.666015625 767.95 11.1 768.383984375 11.5447265625 769 11.55
L 775 11.55
M 787 8.55
L 781 8.55
Q 780.383984375 8.5552734375 779.95 9 779.5052734375 9.433984375 779.5 10.05 779.5052734375 10.666015625 779.95 11.1 780.383984375 11.5447265625 781 11.55
L 787 11.55
Q 787.616015625 11.5447265625 788.05 11.1 788.4947265625 10.666015625 788.5 10.05 788.4947265625 9.433984375 788.05 9 787.616015625 8.5552734375 787 8.55
M 796.5 22.05
Q 796.4947265625 21.433984375 796.05 21 795.616015625 20.5552734375 795 20.55 794.383984375 20.5552734375 793.95 21 793.5052734375 21.433984375 793.5 22.05
L 793.5 28.05
Q 793.5052734375 28.666015625 793.95 29.1 794.383984375 29.5447265625 795 29.55 795.616015625 29.5447265625 796.05 29.1 796.4947265625 28.666015625 796.5 28.05
L 796.5 22.05
M 795 8.55
L 793 8.55
Q 792.383984375 8.5552734375 791.95 9 791.5052734375 9.433984375 791.5 10.05 791.5052734375 10.666015625 791.95 11.1 792.383984375 11.5447265625 793 11.55
L 793.5 11.55 793.5 16.05
Q 793.5052734375 16.666015625 793.95 17.1 794.383984375 17.5447265625 795 17.55 795.616015625 17.5447265625 796.05 17.1 796.4947265625 16.666015625 796.5 16.05
L 796.5 10.05
Q 796.4947265625 9.433984375 796.05 9 795.616015625 8.5552734375 795 8.55 Z"/>
</g>

<g id="socket_0_Layer0_0_FILL">
<path fill="#999999" stroke="none" d="
M 63.35 85
L 0 85 0 101.95 63.35 101.95 63.35 85
M 63.35 34.15
L 63.35 17.2 0 17.2 0 34.15 63.35 34.15 Z"/>

<path fill="#666666" stroke="none" d="
M 189.4 65.1
Q 190 62.45 190.4 59.65 190.15 56.85 189.4 54.2 189.35 54 189.3 53.85 181.75 28.45 157.2 17.15 115.95 -1.95 70.35 0.25
L 63.35 0.25 63.35 17.2 63.35 34.15 63.35 85 63.35 101.95 63.35 119.1 70.35 119.1
Q 96.9 120.05 122.7 114.3 140.75 110.25 157.4 102.6 183.5 90.7 189.4 65.1 Z"/>
</g>

<g id="Layer0_14_FILL">
<path fill="#FFFFFF" fill-opacity="0.8" stroke="none" d="
M 532.85 53.05
L 532.85 23.05 463 23.05 463 53.05 532.85 53.05 Z"/>
</g>

<path id="Layer0_0_1_STROKES" stroke="#4C6C7F" stroke-width="3" stroke-linejoin="miter" stroke-linecap="square" stroke-miterlimit="3" fill="none" d="
M 441 204.2
L 564 204.175 564 103 605 102.95
M 441 219.2
L 605 219.15
M 154.15 54.25
L 195.15 54.2 195.15 204.2 277.15 204.15"/>
</defs>

<g transform="matrix( 1.4310302734375, 0, 0, 1, -199.55,49) ">
<use xlink:href="#Layer1_0_FILL"/>
</g>

<g transform="matrix( 1.4310302734375, 0, 0, 1, -199.55,175) ">
<use xlink:href="#Layer1_1_FILL"/>
</g>

<g transform="matrix( 1.4310302734375, 0, 0, 1, -199.55,205) ">
<use xlink:href="#Layer1_2_FILL"/>
</g>

<g transform="matrix( 1, 0, 0, 1, -10,0) ">
<use xlink:href="#Layer1_3_STROKES_1_FILL"/>
</g>

<g transform="matrix( 1, 0, 0, 1, 162,358) ">
<clipPath id="Mask_Mask_1">
<rect x="-2" y="-2" width="480" height="25.2" fill="#FFFFFF" stroke="none"/>
</clipPath>

<text clip-path="url(#Mask_Mask_1)" writing-mode="lr"><tspan x="135" y="17.4" baseline-shift="0%" font-family="Lucida Grande" font-size="18" fill="#4C6C7F" xml:space="preserve">Included in .app bundle</tspan></text>
</g>

<g transform="matrix( 1, 0, 0, 1, 0,0) ">
<use xlink:href="#Layer0_0_1_STROKES"/>
</g>

<g transform="matrix( 1, 0, 0, 1, 298,174) ">
<use xlink:href="#Bitmap_2"/>
</g>

<g transform="matrix( 1, 0, 0, 1, 20,26) ">
<use xlink:href="#Bitmap_3"/>
</g>

<g transform="matrix( 1, 0, 0, 1, 26,155) ">
<clipPath id="Mask_Mask_2">
<rect x="-2" y="-2" width="144.6" height="26.5" fill="#FFFFFF" stroke="none"/>
</clipPath>

<text clip-path="url(#Mask_Mask_2)" writing-mode="lr"><tspan x="0" y="18" baseline-shift="0%" font-family="Monaco" font-size="18" fill="#000000" xml:space="preserve">juicysfplugin</tspan></text>
</g>

<g transform="matrix( 1, 0, 0, 1, 621,25) ">
<use xlink:href="#Bitmap_2"/>
</g>

<g transform="matrix( 1, 0, 0, 1, 152.6,24.75) ">
<clipPath id="Mask_Mask_3">
<rect x="-2" y="-2" width="295.8" height="26.5" fill="#FFFFFF" stroke="none"/>
</clipPath>

<text clip-path="url(#Mask_Mask_3)" writing-mode="lr"><tspan x="0" y="18" baseline-shift="0%" font-family="Monaco" font-size="18" fill="#000000" xml:space="preserve">@loader_path/libfluidsynth</tspan></text>
</g>

<g transform="matrix( -0.0625, 0, 0, -0.0625, 289.05,207.9) ">
<g transform="matrix( 1, 0, 0, 1, 0,0) ">
<use xlink:href="#socket_0_Layer0_0_FILL"/>
</g>
</g>

<g transform="matrix( 1, 0, 0, 1, 301.15,303.55) ">
<clipPath id="Mask_Mask_4">
<rect x="-2" y="-2" width="144.6" height="26.5" fill="#FFFFFF" stroke="none"/>
</clipPath>

<text clip-path="url(#Mask_Mask_4)" writing-mode="lr"><tspan x="0" y="18" baseline-shift="0%" font-family="Monaco" font-size="18" fill="#000000" xml:space="preserve">libfluidsynth</tspan></text>
</g>

<g transform="matrix( 1, 0, 0, 1, 623,155) ">
<clipPath id="Mask_Mask_5">
<rect x="30.4" y="-2" width="79.8" height="26.5" fill="#FFFFFF" stroke="none"/>
</clipPath>

<text clip-path="url(#Mask_Mask_5)" writing-mode="lr"><tspan x="32.5" y="18" baseline-shift="0%" font-family="Monaco" font-size="18" fill="#000000" xml:space="preserve">libglib</tspan></text>
</g>

<g transform="matrix( 1, 0, 0, 1, 621,185) ">
<use xlink:href="#Bitmap_2"/>
</g>

<g transform="matrix( 1, 0, 0, 1, 623,315) ">
<clipPath id="Mask_Mask_6">
<rect x="14.2" y="-2" width="112.2" height="26.5" fill="#FFFFFF" stroke="none"/>
</clipPath>

<text clip-path="url(#Mask_Mask_6)" writing-mode="lr"><tspan x="16.3" y="18" baseline-shift="0%" font-family="Monaco" font-size="18" fill="#000000" xml:space="preserve">libgthread</tspan></text>
</g>

<g transform="matrix( -0.0625, 0, 0, -0.0625, 616.9,222.9) ">
<g transform="matrix( 1, 0, 0, 1, 0,0) ">
<use xlink:href="#socket_0_Layer0_0_FILL"/>
</g>
</g>

<g transform="matrix( -0.0625, 0, 0, -0.0625, 616.9,106.7) ">
<g transform="matrix( 1, 0, 0, 1, 0,0) ">
<use xlink:href="#socket_0_Layer0_0_FILL"/>
</g>
</g>

<g transform="matrix( 1, 0, 0, 1, 314.15,74.75) ">
<clipPath id="Mask_Mask_7">
<rect x="73.6" y="-2" width="231" height="26.5" fill="#FFFFFF" stroke="none"/>
</clipPath>

<text clip-path="url(#Mask_Mask_7)" writing-mode="lr"><tspan x="75.8" y="18" baseline-shift="0%" font-family="Monaco" font-size="18" fill="#000000" xml:space="preserve">@loader_path/libglib</tspan></text>
</g>

<g transform="matrix( 1.4310302734375, 0, 0, 1, -310.5,202.85) ">
<use xlink:href="#Layer0_14_FILL"/>
</g>

<g transform="matrix( 1, 0, 0, 1, 314.15,229.75) ">
<clipPath id="Mask_Mask_8">
<rect x="41.2" y="-2" width="263.4" height="26.5" fill="#FFFFFF" stroke="none"/>
</clipPath>

<text clip-path="url(#Mask_Mask_8)" writing-mode="lr"><tspan x="43.4" y="18" baseline-shift="0%" font-family="Monaco" font-size="18" fill="#000000" xml:space="preserve">@loader_path/libgthread</tspan></text>
</g>
</svg>
